<mxfile host="app.diagrams.net" agent="Mozilla/5.0 (Windows NT 10.0; Win64; x64) AppleWebKit/537.36 (KHTML, like Gecko) Chrome/134.0.0.0 Safari/537.36" version="26.2.14">
  <diagram name="Page-1" id="242fZHSA3nMGVujh9ttO">
    <mxGraphModel dx="1113" dy="662" grid="1" gridSize="10" guides="1" tooltips="1" connect="1" arrows="1" fold="1" page="1" pageScale="1" pageWidth="850" pageHeight="1100" background="#ffffff" math="0" shadow="0">
      <root>
        <mxCell id="0" />
        <mxCell id="1" parent="0" />
        <mxCell id="FYiVNXrTDByQqckiucjM-4" value="~~~~~~" style="rounded=0;whiteSpace=wrap;html=1;fillColor=#fa6800;strokeColor=light-dark(#C73500,#0D0705);fontColor=light-dark(#000000,#010101);" vertex="1" parent="1">
          <mxGeometry x="200" y="400" width="60" height="20" as="geometry" />
        </mxCell>
        <mxCell id="FYiVNXrTDByQqckiucjM-5" value="xxxxxxxxxxxxxxxx" style="rounded=0;whiteSpace=wrap;html=1;fillColor=#fa6800;strokeColor=light-dark(#C73500,#0D0705);fontColor=light-dark(#000000,#010101);" vertex="1" parent="1">
          <mxGeometry x="260" y="400" width="170" height="20" as="geometry" />
        </mxCell>
        <mxCell id="FYiVNXrTDByQqckiucjM-6" value="~~~~~" style="rounded=0;whiteSpace=wrap;html=1;fillColor=#fa6800;strokeColor=light-dark(#C73500,#0D0705);fontColor=light-dark(#000000,#010101);" vertex="1" parent="1">
          <mxGeometry x="430" y="400" width="70" height="20" as="geometry" />
        </mxCell>
        <mxCell id="FYiVNXrTDByQqckiucjM-7" value="-------------------" style="rounded=0;whiteSpace=wrap;html=1;fillColor=#60a917;strokeColor=light-dark(#2D7600,#070A04);fontColor=#ffffff;" vertex="1" parent="1">
          <mxGeometry x="200" y="460" width="90" height="20" as="geometry" />
        </mxCell>
        <mxCell id="FYiVNXrTDByQqckiucjM-8" value="==============" style="rounded=0;whiteSpace=wrap;html=1;fillColor=#60a917;strokeColor=light-dark(#2D7600,#070A04);fontColor=#ffffff;" vertex="1" parent="1">
          <mxGeometry x="290" y="460" width="170" height="20" as="geometry" />
        </mxCell>
        <mxCell id="FYiVNXrTDByQqckiucjM-9" value="---------" style="rounded=0;whiteSpace=wrap;html=1;fillColor=#60a917;strokeColor=light-dark(#2D7600,#070A04);fontColor=#ffffff;" vertex="1" parent="1">
          <mxGeometry x="460" y="460" width="40" height="20" as="geometry" />
        </mxCell>
        <mxCell id="FYiVNXrTDByQqckiucjM-12" value="" style="shape=flexArrow;endArrow=classic;html=1;rounded=0;exitX=0.5;exitY=1;exitDx=0;exitDy=0;entryX=0.55;entryY=-0.138;entryDx=0;entryDy=0;entryPerimeter=0;fillColor=light-dark(#E3C800,#CFA000);strokeColor=#B09500;" edge="1" parent="1">
          <mxGeometry width="50" height="50" relative="1" as="geometry">
            <mxPoint x="350" y="422.76" as="sourcePoint" />
            <mxPoint x="388.4999999999999" y="459.9999999999999" as="targetPoint" />
          </mxGeometry>
        </mxCell>
        <mxCell id="FYiVNXrTDByQqckiucjM-13" value="src" style="text;html=1;align=center;verticalAlign=middle;whiteSpace=wrap;rounded=0;fontSize=21;" vertex="1" parent="1">
          <mxGeometry x="110" y="395" width="60" height="30" as="geometry" />
        </mxCell>
        <mxCell id="FYiVNXrTDByQqckiucjM-14" value="dst" style="text;html=1;align=center;verticalAlign=middle;whiteSpace=wrap;rounded=0;fontSize=21;" vertex="1" parent="1">
          <mxGeometry x="110" y="455" width="60" height="30" as="geometry" />
        </mxCell>
        <mxCell id="FYiVNXrTDByQqckiucjM-15" value="src offset" style="text;html=1;align=center;verticalAlign=middle;whiteSpace=wrap;rounded=0;fontSize=16;" vertex="1" parent="1">
          <mxGeometry x="180" y="370" width="90" height="30" as="geometry" />
        </mxCell>
        <mxCell id="FYiVNXrTDByQqckiucjM-16" value="src length" style="text;html=1;align=center;verticalAlign=middle;whiteSpace=wrap;rounded=0;fontSize=16;" vertex="1" parent="1">
          <mxGeometry x="280" y="370" width="90" height="30" as="geometry" />
        </mxCell>
        <mxCell id="FYiVNXrTDByQqckiucjM-17" value="dst offset" style="text;html=1;align=center;verticalAlign=middle;whiteSpace=wrap;rounded=0;fontSize=16;" vertex="1" parent="1">
          <mxGeometry x="185" y="430" width="90" height="30" as="geometry" />
        </mxCell>
        <mxCell id="FYiVNXrTDByQqckiucjM-18" value="dst length" style="text;html=1;align=center;verticalAlign=middle;whiteSpace=wrap;rounded=0;fontSize=16;" vertex="1" parent="1">
          <mxGeometry x="280" y="430" width="90" height="30" as="geometry" />
        </mxCell>
        <mxCell id="FYiVNXrTDByQqckiucjM-20" value="258Bytes 宽度" style="text;html=1;align=center;verticalAlign=middle;whiteSpace=wrap;rounded=0;fontSize=16;" vertex="1" parent="1">
          <mxGeometry x="167.5" y="570" width="115" height="30" as="geometry" />
        </mxCell>
        <mxCell id="FYiVNXrTDByQqckiucjM-22" value="BRAM" style="rounded=0;whiteSpace=wrap;html=1;fillColor=#b0e3e6;strokeColor=#0e8088;" vertex="1" parent="1">
          <mxGeometry x="120" y="600" width="210" height="20" as="geometry" />
        </mxCell>
        <mxCell id="FYiVNXrTDByQqckiucjM-23" value="BRAM" style="rounded=0;whiteSpace=wrap;html=1;fillColor=#b0e3e6;strokeColor=#0e8088;" vertex="1" parent="1">
          <mxGeometry x="120" y="620" width="60" height="20" as="geometry" />
        </mxCell>
        <mxCell id="FYiVNXrTDByQqckiucjM-24" value="BRAM" style="rounded=0;whiteSpace=wrap;html=1;fillColor=#b0e3e6;strokeColor=#0e8088;" vertex="1" parent="1">
          <mxGeometry x="120" y="640" width="210" height="20" as="geometry" />
        </mxCell>
        <mxCell id="FYiVNXrTDByQqckiucjM-25" value="BRAM" style="rounded=0;whiteSpace=wrap;html=1;fillColor=#b0e3e6;strokeColor=#0e8088;" vertex="1" parent="1">
          <mxGeometry x="120" y="660" width="210" height="20" as="geometry" />
        </mxCell>
        <mxCell id="FYiVNXrTDByQqckiucjM-26" value="258Bytes 宽度" style="text;html=1;align=center;verticalAlign=middle;whiteSpace=wrap;rounded=0;fontSize=16;" vertex="1" parent="1">
          <mxGeometry x="397.5" y="570" width="115" height="30" as="geometry" />
        </mxCell>
        <mxCell id="FYiVNXrTDByQqckiucjM-27" value="BRAM" style="rounded=0;whiteSpace=wrap;html=1;fillColor=#b0e3e6;strokeColor=#0e8088;" vertex="1" parent="1">
          <mxGeometry x="350" y="600" width="210" height="20" as="geometry" />
        </mxCell>
        <mxCell id="FYiVNXrTDByQqckiucjM-30" value="BRAM" style="rounded=0;whiteSpace=wrap;html=1;fillColor=#b0e3e6;strokeColor=#0e8088;" vertex="1" parent="1">
          <mxGeometry x="350" y="660" width="210" height="20" as="geometry" />
        </mxCell>
        <mxCell id="FYiVNXrTDByQqckiucjM-31" value="xxxxxxxxxxxxx" style="rounded=0;whiteSpace=wrap;html=1;fillColor=#fa6800;strokeColor=#C73500;fontColor=#000000;" vertex="1" parent="1">
          <mxGeometry x="180" y="620" width="110" height="20" as="geometry" />
        </mxCell>
        <mxCell id="FYiVNXrTDByQqckiucjM-32" value="BRAM" style="rounded=0;whiteSpace=wrap;html=1;fillColor=#b0e3e6;strokeColor=#0e8088;" vertex="1" parent="1">
          <mxGeometry x="290" y="620" width="40" height="20" as="geometry" />
        </mxCell>
        <mxCell id="FYiVNXrTDByQqckiucjM-33" value="" style="endArrow=classic;html=1;rounded=0;" edge="1" parent="1">
          <mxGeometry width="50" height="50" relative="1" as="geometry">
            <mxPoint x="80" y="600" as="sourcePoint" />
            <mxPoint x="80" y="780" as="targetPoint" />
          </mxGeometry>
        </mxCell>
        <mxCell id="FYiVNXrTDByQqckiucjM-34" value="地址增长方向" style="text;html=1;align=center;verticalAlign=middle;whiteSpace=wrap;rounded=0;fontSize=16;rotation=-90;" vertex="1" parent="1">
          <mxGeometry x="5" y="670" width="115" height="30" as="geometry" />
        </mxCell>
        <mxCell id="FYiVNXrTDByQqckiucjM-35" value="0" style="rounded=0;whiteSpace=wrap;html=1;fillColor=#b0e3e6;strokeColor=#0e8088;" vertex="1" parent="1">
          <mxGeometry x="90" y="600" width="30" height="20" as="geometry" />
        </mxCell>
        <mxCell id="FYiVNXrTDByQqckiucjM-36" value="1" style="rounded=0;whiteSpace=wrap;html=1;fillColor=#b0e3e6;strokeColor=#0e8088;" vertex="1" parent="1">
          <mxGeometry x="90" y="620" width="30" height="20" as="geometry" />
        </mxCell>
        <mxCell id="FYiVNXrTDByQqckiucjM-37" value="2" style="rounded=0;whiteSpace=wrap;html=1;fillColor=#b0e3e6;strokeColor=#0e8088;" vertex="1" parent="1">
          <mxGeometry x="90" y="640" width="30" height="20" as="geometry" />
        </mxCell>
        <mxCell id="FYiVNXrTDByQqckiucjM-38" value="3" style="rounded=0;whiteSpace=wrap;html=1;fillColor=#b0e3e6;strokeColor=#0e8088;" vertex="1" parent="1">
          <mxGeometry x="90" y="660" width="30" height="20" as="geometry" />
        </mxCell>
        <mxCell id="FYiVNXrTDByQqckiucjM-40" value="xxxxxxx" style="rounded=0;whiteSpace=wrap;html=1;fillColor=#fa6800;strokeColor=#C73500;fontColor=#000000;" vertex="1" parent="1">
          <mxGeometry x="350" y="640" width="60" height="20" as="geometry" />
        </mxCell>
        <mxCell id="FYiVNXrTDByQqckiucjM-41" value="BRAM" style="rounded=0;whiteSpace=wrap;html=1;fillColor=#b0e3e6;strokeColor=#0e8088;" vertex="1" parent="1">
          <mxGeometry x="410" y="640" width="150" height="20" as="geometry" />
        </mxCell>
        <mxCell id="FYiVNXrTDByQqckiucjM-42" value="BRAM" style="rounded=0;whiteSpace=wrap;html=1;fillColor=#b0e3e6;strokeColor=#0e8088;" vertex="1" parent="1">
          <mxGeometry x="350" y="620" width="120" height="20" as="geometry" />
        </mxCell>
        <mxCell id="FYiVNXrTDByQqckiucjM-43" value="xxxxxxxxxxxxx" style="rounded=0;whiteSpace=wrap;html=1;fillColor=#fa6800;strokeColor=#C73500;fontColor=#000000;" vertex="1" parent="1">
          <mxGeometry x="470" y="620" width="90" height="20" as="geometry" />
        </mxCell>
        <mxCell id="FYiVNXrTDByQqckiucjM-45" value="~~~~~~" style="rounded=0;whiteSpace=wrap;html=1;fillColor=#fa6800;strokeColor=light-dark(#C73500,#0D0705);fontColor=light-dark(#000000,#010101);" vertex="1" parent="1">
          <mxGeometry x="170" y="900" width="60" height="20" as="geometry" />
        </mxCell>
        <mxCell id="FYiVNXrTDByQqckiucjM-46" value="xxxxxxxxxxxxxxxx" style="rounded=0;whiteSpace=wrap;html=1;fillColor=#fa6800;strokeColor=light-dark(#C73500,#0D0705);fontColor=light-dark(#000000,#010101);" vertex="1" parent="1">
          <mxGeometry x="230" y="900" width="130" height="20" as="geometry" />
        </mxCell>
        <mxCell id="FYiVNXrTDByQqckiucjM-47" value="~~~~~" style="rounded=0;whiteSpace=wrap;html=1;fillColor=#fa6800;strokeColor=light-dark(#C73500,#0D0705);fontColor=light-dark(#000000,#010101);" vertex="1" parent="1">
          <mxGeometry x="360" y="900" width="110" height="20" as="geometry" />
        </mxCell>
        <mxCell id="FYiVNXrTDByQqckiucjM-48" value="-------------------" style="rounded=0;whiteSpace=wrap;html=1;fillColor=#60a917;strokeColor=light-dark(#2D7600,#070A04);fontColor=#ffffff;" vertex="1" parent="1">
          <mxGeometry x="170" y="960" width="90" height="20" as="geometry" />
        </mxCell>
        <mxCell id="FYiVNXrTDByQqckiucjM-49" value="==============" style="rounded=0;whiteSpace=wrap;html=1;fillColor=#60a917;strokeColor=light-dark(#2D7600,#070A04);fontColor=#ffffff;" vertex="1" parent="1">
          <mxGeometry x="260" y="960" width="130" height="20" as="geometry" />
        </mxCell>
        <mxCell id="FYiVNXrTDByQqckiucjM-50" value="---------" style="rounded=0;whiteSpace=wrap;html=1;fillColor=#60a917;strokeColor=light-dark(#2D7600,#070A04);fontColor=#ffffff;" vertex="1" parent="1">
          <mxGeometry x="390" y="960" width="80" height="20" as="geometry" />
        </mxCell>
        <mxCell id="FYiVNXrTDByQqckiucjM-51" value="" style="shape=flexArrow;endArrow=classic;html=1;rounded=0;exitX=0.5;exitY=1;exitDx=0;exitDy=0;entryX=0.55;entryY=-0.138;entryDx=0;entryDy=0;entryPerimeter=0;fillColor=light-dark(#E3C800,#CFA000);strokeColor=#B09500;" edge="1" parent="1">
          <mxGeometry width="50" height="50" relative="1" as="geometry">
            <mxPoint x="320" y="922.76" as="sourcePoint" />
            <mxPoint x="358.4999999999999" y="959.9999999999999" as="targetPoint" />
          </mxGeometry>
        </mxCell>
        <mxCell id="FYiVNXrTDByQqckiucjM-52" value="src" style="text;html=1;align=center;verticalAlign=middle;whiteSpace=wrap;rounded=0;fontSize=21;" vertex="1" parent="1">
          <mxGeometry x="80" y="895" width="60" height="30" as="geometry" />
        </mxCell>
        <mxCell id="FYiVNXrTDByQqckiucjM-53" value="dst" style="text;html=1;align=center;verticalAlign=middle;whiteSpace=wrap;rounded=0;fontSize=21;" vertex="1" parent="1">
          <mxGeometry x="80" y="955" width="60" height="30" as="geometry" />
        </mxCell>
        <mxCell id="FYiVNXrTDByQqckiucjM-54" value="src offset" style="text;html=1;align=center;verticalAlign=middle;whiteSpace=wrap;rounded=0;fontSize=16;" vertex="1" parent="1">
          <mxGeometry x="150" y="870" width="90" height="30" as="geometry" />
        </mxCell>
        <mxCell id="FYiVNXrTDByQqckiucjM-55" value="src length" style="text;html=1;align=center;verticalAlign=middle;whiteSpace=wrap;rounded=0;fontSize=16;" vertex="1" parent="1">
          <mxGeometry x="250" y="870" width="90" height="30" as="geometry" />
        </mxCell>
        <mxCell id="FYiVNXrTDByQqckiucjM-56" value="dst offset" style="text;html=1;align=center;verticalAlign=middle;whiteSpace=wrap;rounded=0;fontSize=16;" vertex="1" parent="1">
          <mxGeometry x="155" y="930" width="90" height="30" as="geometry" />
        </mxCell>
        <mxCell id="FYiVNXrTDByQqckiucjM-57" value="dst length" style="text;html=1;align=center;verticalAlign=middle;whiteSpace=wrap;rounded=0;fontSize=16;" vertex="1" parent="1">
          <mxGeometry x="250" y="930" width="90" height="30" as="geometry" />
        </mxCell>
        <mxCell id="FYiVNXrTDByQqckiucjM-58" value="258x2Bytes" style="text;html=1;align=center;verticalAlign=middle;whiteSpace=wrap;rounded=0;fontSize=21;" vertex="1" parent="1">
          <mxGeometry x="257.5" y="1020" width="140" height="30" as="geometry" />
        </mxCell>
        <mxCell id="FYiVNXrTDByQqckiucjM-59" value="" style="shape=curlyBracket;whiteSpace=wrap;html=1;rounded=1;flipH=1;labelPosition=right;verticalLabelPosition=middle;align=left;verticalAlign=middle;rotation=90;" vertex="1" parent="1">
          <mxGeometry x="310" y="860" width="20" height="300" as="geometry" />
        </mxCell>
        <mxCell id="FYiVNXrTDByQqckiucjM-61" value="" style="shape=image;verticalLabelPosition=bottom;labelBackgroundColor=default;verticalAlign=top;aspect=fixed;imageAspect=0;image=data:image/png,iVBORw0KGgoAAAANSUhEUgAABLAAAAIcCAIAAABpTcA3AAAgAElEQVR4Aey933MUVf7///1PehH8IC0yCG9/bAbcKCYgiXkTZIlI3mEZAhs2pGKyQQwbh8jIj6AShLAxwzsOb8dhQ00ME4SJsBNwHLWNtCmpmiovtmpvtvbC8sbaG2+/1edH9+mf05NMkknyTFFM/zh9fjzO6e7z7Nc5r/P/SfgDARAAARAAARAAARAAARAAARBYlgT+v2VZahQaBEAABEAABEAABEAABEAABEBAgiBEIwABEAABEAABEAABEAABEACBZUoAgnCZVjyKDQIgAAIgAAIgAAIgAAIgAAIQhGgDIAACIAACIAACIAACIAACILBMCUAQLtOKR7FBAARAAARAAARAAARAAARAAIIQbQAEQAAEQAAEQAAEQAAEQAAElikBCMJlWvEoNgiAAAiAAAiAAAiAAAiAAAhAEKINgAAIgAAIgAAIgAAIgAAIgMAyJQBBuEwrHsUGARAAARAAARAAARAAARAAAQhCtAEQAAEQAAEQAAEQAAEQAAEQWKYEIAiXacWj2CAAAiAAAiAAAiAAAiAAAiAAQYg2AAIgAAIgAAIgAAIgAAIgAALLlAAE4TKteBQbBEAABEAABEAABEAABEAABCAIF1MbePHZkdvNg/tWlCDPa1af/uTw2InVcgniKv8oVrzc/MLHn7wy2L5Mylv+NYIcggAIgAAIgAAIgAAIlAeBshCET3U/7Lpi/vfe8NJVKnLt4b5EOqvSvyklMxYN7w0UbA8vPjty9+gPXx374fa2Vz0DH4x9nc/nx096Bap+Z58W1Vevjx1f5RWu6HPBMS3aY2PHi75yDi9orvua5OqHr14faZ/DdBA1CIAACIAACIAACIAACCwyAmUhCDe8/uDwB+zfkSGiDJeqIJQb+sYUqgQz48nkSDKVoXtKsrfao+2sCQzfpmpwe/Maj3DaqX2aIHyQ6PAOtqJ54I9zoAnLUhAebyAlLT+l6l1FOAsCIAACIAACIAACIAACc02gLAShWEhmLVySglAODdzR5J+SHmjZYBQ6cChKVGFmoMk4aNpa1fvJ65qkub+n90XTCX1n6/kbk7HOrWS/bmAyn/86to/sbO2MTX4e3aUHFDf0aPeedolWDO1vuywF4ZrAxRvtP3x19LsbVQXltL9iIhQIgAAIgAAIgAAIgAAILAkCEITzVo1y21VtmKgyGqm1DYetPpPWlOJ4JOiQneDxhu/I8M6RdrfZg+2J6bz2l4u/USdLJ2/m87noHmlrx/AkOT49/vbTDhFL0poNH9/V7GY/3Kj0sk86Xut8sCwFoXNWcRQEQAAEQAAEQAAEQAAElj0BCML5agJNUSIHk+HNjim2xXKqqqb7bGe5Zvvukwontcgikzc1nx3Xpg7m81+Pjt7N5+8mEl+Q3QeTibf3rXdMUzsot+8iarOzRJMJIQhdUeMECIAACIAACIAACIAACJQdgTkShPIjG9o3/+nW3vcfsDmBVx62X/pm7+vvPbHOZh0zM/EYMrqh44Hme+Yvp81XmPbY5d1vG0dXvxp4Lf7KO98cvsz81nQMPmh+5/rm371shJGkR3bf6tAc2zyo2+6Yw/ZtH2iXd4RPPyJeJknSuj9tfv1u86WH5HItTPulB4fPXn9qnRguGBnXTIDpM66GuM5r2tzCZI94lSRJwRONZP5b6OJ/W8447K7f9WZs8gHRgfl8/uHU+LmDmxxLI1676t0bZHbi3e3/Ix6e4bYgCNesPvzOK3fudpL8d313e8+7zVZ2LJE1q7v699y/T0Me++H+4Tux3/2PiZ+QG0tg5i2G2Dm17T29etjje0jS+qljP3x1eHiPftq08T8Dh7XAn2iie/2e343cOMKuvX/41sBTLxeat2mKCzsgAAIgAAIgAAIgAAIgsFgIzJEgfHuHxWuovjv0xZYKL43iIQhXh77QBKHX9MJXt/Rpkmz/IWM2HotQz4Cw0RRqNupp9endxJ9Nhygm9dPPxw9rF1rl4qodNw5TLzhCtMRj6jdbfqtfLEl1/dqQUCXR7V702gtakOxgo3CZJK0ZvK3pme9iz7pfaVwg1x2NTlA7oWYqnIgerfNxmdy1mxoJS+GBkwvCE4HB2102PdZut0PK258bu08U6Vdd391v+06XhV8ddFhg48UgD3zsBy0wmVrJNGEnufyVv+g8ZiIIn2vuP2jL9jFv86yeIDZAAARAAARAAARAAARAYJERmCtBWNd/t+YPbwee3voInfb26PNPvHbrCFFNHW9f9FjpwEMQSjtuEK114ylXyMyO98pOQwc91fHN3tcvPvXCq6vYGnTrH9n03u5LxFo4dHezYYeSN3QRC+TQrYrV1gSYcfLydcEXjCRxDXnk7eENTz/PrlmxadW65g27Tj9hxCxRsadc66Rh5N2RZIb4Gp1SMul0VslEmySpN6nZEEfDYtp7tpP1EjpHutxmD/LQ65vOjueIbXBqfPyLfH5yfJSNIB0/31ZIFj4zcp/IziFT8XjURf0yQUil2nc3tnftWiVLK4L7XrhFkvjh7o520drGB8T+cHtH13ZWRnn7Ux9Tl6r3d3WJgaVVp68T6Xh//6BubFy39t3rVBYeHPQwojJxWMhC+BWLf7h9zXpJkisCPHLXC4uig8AgAAIgAAIgAAIgAAIgUF4E5kgQOhZSfuLIN0TR3bUrLv0CL0H42+H9mqQ0VJx8SItQsAdSy+SDbVyd6dFaN56PHyLqdPerm4xTv2MH9zaZRpNK0tE6Mtz00J/+ZASWJOnlG2SYqNkYaApBd4J9nxH7YBfZrQon6cITiqJMaRpQVZOaCmyNaYdNgjD4ThOxVu09bdJF9iSOjlqdynwd2yfXvRGnGnF6POzsVIbFtOL0dTKustAKh/aEbUeYIPzhq6Nfx54Vx8cadkhB3O5k5rimdy1uTl+svEPsfvf7hZJXsIN33jF/UdCPn7MpeT1/fgWh5sr1NJem2tV+ItdTwQYIgAAIgAAIgAAIgAAILC4C8ykIJW7i81JQXoJwxelXNBX3TVUFhfxK5Vli6NMHkdoUo3tlsEGtgpiUJKlpy3skwrMfmpTF9uvtWrpfVFoMaC/R4w9e2WURkJZkOxOa1KMOY4LhUW1HGQ1raolaBe9FtXGi1OuMSRC2D7VpgtDH7L5d0c/1ZSfIOoR+lp0wsslm0IkT8IyTRW1xC+EnQVENkijsdsgA9XH6nYNlkmvUG5WGKx1mL7Ub654YJr5Svx54wjWvfgXhH4f3WYyxPiJ3TRUnQAAEQAAEQAAEQAAEQKC8CSwqQSg1V72vCbYdOwjUdRf3Eitf1xWuMOlMvyGPMaV6bTgKQmn1H8g0RT1CLTgfSnrKNtJ1Rfu2fiIgrzw89M71zS+8ysbH6onQDTqB8F40JPHJhGpmgKwM2HCZLEBIRaCDIOz9hBjurj9njIC1xO20SwTh9OgbTufcjjG99MdB5xUL3S6zH+dzCI/bT62+eIMUhzhu0U5vr6JmwDGHwBLTqPd3tOsx8fBzaCF00N4QhHoFYAMEQAAEQAAEQAAEQGDJEZg7Qbh+9Qunt7x+Y/fZB4c/4P+Yn0+u35xoelkIpU0VvZoAo2a9VU13u648PHJJm/jHDH10kqFuMNTjf7L92UPXd/R+YeTkgwfUKajZQmhMCzRGh674Cx0vunu3MLhUj3ndX+qIRiVDYR92DVFl+Ip+XtugY0HHIrIkySdT2hDRzEADCREe0faYIxmHOYRMEOoKyhSt687BmDZ7cPykawCHE4UMaA6XOB/yEIQSK86NKmZQZRY/6h6mjbiEEf6n0/lMRkvuENV5DmHjaWY5dspZoQIy/QlB6AQPx0AABEAABEAABEAABJYsgbkRhI+3V9HBnMyCx8xoTDWZ7G9Wsp6CUKLOXdo7jkpMHH6z5VXi/5OIQDqlsMvkJnRr4E9f6AtC8AwY+bEKQt0eqPuP2UEmCl6+vsEyktDI+Hq5brjunW/aBXejHWfjgcd5CEHpha5oixGqI9RzTMMAMRAmyUIJVCuavYxyBSUMm+SRlviX6aXQxe2zjNiHINQNnrogtC4dQQyJ9OD9XXTmJc2W3P4KcYhKApi8jDr4LzWVBILQhAM7IAACIAACIAACIAACIEAIzIUg3ErteF1D3+zY1cx9e5LUmJvQGVsIJbbyxF9OMw+f/fEnmMcXLc4njgjWQpLgqlfvUjXYfPT0E0+IJj7nIaPaRWzGIF1hQqYClUhQEqPHfys2yS9drOtjCxIaKxYSQUhdjIZHBZOgROcWZjUXo5JEtWLqpDg6tCtGlua7Wyssj+GRgZmferX/j8R7TYOxiN8MI/MQhGv5EhrPsLi5IHQcMuqQPnNJ+vqt2Ct37uoLTrTfv16teyh1uIoegiB0RYMTIAACIAACIAACIAACy5jAHAhCPrWv6Q/mkZPSrJ3K6DG8NywTwx0d2EnNhvsPNVHxJqw58fLmU8QYaHESo9W3uyCU/lRFZgZqCxKyhSW+qfqd/zayPvA6Wb7iCp/KSAXh1TZJkkyCcBc1EKa0saRSLVmpMDNgWjf95XMhotOa3vUYDOk/Z+4hez8hyy2Uzsuog8Zj7jqP3jqh+witGCNmQC9nMEKeZSrqZiaPIQgFktgEARAAARAAARAAARAAAUZgDgQhc/X5UBBmJLFHmzaHqVKauYVQopEP3ajT1gzky0tQb5/v3dih+QjlB7U0udfQv5w2V/h6mS+KaBsyqgVkrmUuX3/21VuagdFBT5rjM+/RyY1dZkFI15Nou0pWnBgNy1J1ZIxsE++jcmtMG0t6Z6DeHBWzoR0dO+46YNV8wcz2Nnxc6nUIbYJwRfPAYU3c3t/Ta4jbFX+hJtD7e3oty044lYNP85uRvRSC0AkpjoEACIAACIAACIAACCx3AnMgCFe8vYPMpuvoi294cr0GePWrgdduNBtT7GYhCNnKEw/aLz/s+iDOVxmg6wSSg8IqhZLEBnx2DX2x7SVirlyxafUL79XRtSXI/EZHQSgxIyeN8KFtWULWaFbVDW/7w9uBp182hsU++rz80vAesuq9MWRUdCpzjKxAoaoKWXsinSZTCsmOqiqJLnG8KEmFLczww/XfGasvlLrN8hUCj3xcgpGpbMjo/f5AUF9BcM2q5ncaydy/o1YHoXu23WdzBfd/fDxQXUF174rgi2vbT2wfu9E0KFhMgycaib309TsDz7y6ffXL21fz8D6IQBD6gIQgIAACIAACIAACIAACy47AHAhCSZYPOftxaX79+h5NhpkFIbco2j2+sCMmr6Ht2z5gLmGEeX18ZYgrD7ssa05UDO83hKjhS6bjvet1b2u7zoJQ2lQR5oGHblWYFiU0mgjzYePkOKfj/esbdKcy4rITUnV3nHiSmcqmLoTkqu7EPW1WoapkEsdrbXJQkiS+dPvBwf82Ui7p1qrT1+l40eqdJYiXCUKi3I7+oPl9aSfbx374quv+QIB8IDAlU92162tXpzLmZTDWBAZvd/HYBMcz2uXtX9945fSeR4So2XIRLuGP/fCVaT1Dbn7c/j9CFGQTy05YiWAfBEAABEAABEAABEBg6RCYC0EoSdJ6edf1ve+zpR06Bh80dQ8/9fR6PnNvNoKQTwu88qDuJaEamCeYh10m9UgCPH265p1vjlBZOPTw8NlbW+o0Ly50wqGLINRdyzw8onk0df5bVTf8yjvfHOYrWGjydejB4bO3tr32p1WmEZ5tsZy2MH1/nXM83kfX8PXcrz9nW+rd+0pfZ+XDO4gee32k3ZRnXxc7BFoR3LXh3aG9d+62ie5A71/f3mtSa6Yr5e1PvjvUdP++7iem87u7obGB59r/WxR4krQmcPEGDdPJ16jQL6H68PWx4/oERQhCE2TsgAAIgAAIgAAIgAAIgIADgTkShA4pLa5DzD3p0N3NG0qQ8c5r2gjRzEXLDEGfMVef2EvElah2fF5aKNiawPBdTUp9Nzdqs1DyRZ1f1fsJ8bl6f8/p7Rbt+sjz+164RaZB/lACvzhF5QqBQQAEQAAEQAAEQAAEQGAxE4AgdKo9PtB0f0sJZtVpCRwiPmOUVKTKKbmCx1b1fkJMYff3nvbhfKVgdDyAHq0vny78qoX6ZYNRvx4IOOVgxenrxEjosLK8U3AcAwEQAAEQAAEQAAEQAAEQkCQJgtDcDB59/oldzP9NR9+wbLFEmcMWsxcMjxCfotlEd415qqAcDPX0dRYaTbomMHybzPS73+DHIaePrK1oHqBrD/5xeF/Jiukj3RkHYUNnf7i9o8s6lFR3WnPM5woWM84ELgQBEAABEAABEAABEACBJUUAgpBVJ51SqDu26TgbD+heYUpS43Jo4A7xH6N5kEklR5LJkVT6Hl15gq1N753Oi8ExOiryxguzn0xYfXzPXA1D9S7FLM7uPEFdlbLpgnwaIRlHqvmVOfrdJ8+9rLs2nUVCuBQEQAAEQAAEQAAEQAAElgsBCEJW00wQEq8z23ZpXmfm4C/QeCqWylARSHyL5rLpkWiktd5xFKQ9Ay8Gx27vu1gSg94a+d3rfxRcsNgTK8cj6/97A3E/o3su1ZyXfnf/4K3Y9t59q8ym13LMP/IEAiAAAiAAAiAAAiAAAuVFAIKwvOoDuQEBEAABEAABEAABEAABEACBeSMAQThvqJEQCIAACIAACIAACIAACIAACJQXAQjC8qoP5AYEQAAEQAAEQAAEQAAEQAAE5o0ABOG8oUZCIAACIAACIAACIAACIAACIFBeBCAIy6s+kBsQAAEQAAEQAAEQAAEQAAEQmDcCJRaEleRv3nKPhEAABEAABEAABEAABEAABEAABGZMAIJwxuhwIQiAAAiAAAiAAAiAAAiAAAgsbgIQhIu7/pB7EAABEAABEAABEAABEAABEJgxAQjCGaPDhSAAAiAAAiAAAiAAAiAAAiCwuAlAEC7u+kPuQQAEQAAEQAAEQAAEQAAEQGDGBCAIZ4wOF4IACIAACIAACIAACIAACIDA4iYAQbi46w+5BwEQAAEQAAEQAAEQAAEQAIEZE4AgnDE6XAgCIAACIAACIAACIAACIAACi5sABOHirj/kHgRAAASWBIGmtV0/vdTcuyTKgkIsHIEVret6fqp8pXXhcoCUQQAEQGDxEYAgXHx1tmxz3DiYVVVVvRdt9IcgPKoFN/35vtZfCn5DsZyMhv1egHCzItAYvadVe3bQZ0th4U1NZWEqK5wkmUguO1mkqcGm2K/Nw/966qlZ1f2SuTiwNxIbzyhTvFVOKUou1VfnUj65tvNiMn1P4aFVNadkhztdQpfLYfn0RD6fnxreV8IMrXjtH1pDiv1SubOphNEiKhAAARBY2gQgCO31G2y7kEhllMxln71Jeww4MicEihWE3XFFyfF/tF8FQTgnNVNukRYrCBv6P+PtJMe71BCE81erwcdaqBr86ZlgcP6SLd+U5NDljCHtjK1s1FHjVIWTOSOQsTWvbXhG7813xvP5/OR7m7yrYlVN7dFPLn/67Wjme/Lvu5FPJ86c6KpY43wZb07QhM58cBQEQAAEHAhAENqhFNubtMeAI3NCoFhBKGaC2eggCEUoS3Z7NrcwtxbOa2dar4nlaCFcUZf/PUw6ehOQJGnXAJODdxLh/UGZnJIrqmv3hBo2i+Hottx9jX7FUFIX2uo30IOByrra0N56e+g5O+L3ppPbE5M3zu6hpXpzdDqfH3+HZErec/ZGbvQv9ISRzY2979+kOtD2/83rBzYaAcWtpnU9vzTHfm0e+se6x8Xj2AYBEAABEHAmAEFo5+L3xWa/EkfmlAAE4ZziXUKRz+YWhiCc34awOl45+Gtz7Nffd/11fhMu39QamHkw3VflJ5PsI0L2aptVS/m5umRhfN50W8/fzWt/DybON62X9sem8vnxtyX51bPjU+R4LrpHzNKujhGiA29eP7J799pV2qmV67bVvn49Tq2FH51eKwY3tlf0V1zS2lVT5OYK4yi2QAAEQAAEnAlAENq5+Hyx2S/EkbklAEE4t3yXTuyzuYWXnSDc2pnIfZHo2Oqv+uU952/lJt5jBh5/13iECj7WTiw5g/m1qz2CLa9TxQ1naIqSqdXqQs879X3Tbdz1xvDktKb+pidHJ6byU+PXJshufurG+daXTap224cxTfh9dWK3tQm8eOo+GT563X3+4fZpYnn+tXJng/Vq7IMACIAACJgJQBAyHg4OSIypGHzLccDhhsZIPJ3lM4/UXCZ1sbPW9FKTqJJJnZSlqu4EHQyUTYa1r7/V3XGyP5VNXQgJF9GPvmTGiOYtIJXhU0SUTKrvUMBciTPbCzT2RFMZxey0IJu+2GKNrpf5udA8olgzk4zsdcmMXNtyLmE4OZhSlEwq2tPoEtqapuO+KAgDe8PRMe5xYSqbHu62MLfE4LOPZYpWVbXaHI40slFYlijJrr9istStoxCru6/RvpyaGRRr3ymhBTxmKaOqqpp/i0yip9aSKbGCJPG+mFKy49HOGqGBC1fKNS198XSWt3BVUTJj0bBbuxIudN8U+6asnbN7OJuOHfduKT4FoVx7uC+Rzuq3j3IvnbTd+GIO/RXTZchoVXeCt5TofmeMYlq+t9e3DtKueT5/8+TThS6TX35rlJpx8rloc6HQfs6vTm4Z1sw4W//w54LB2b2pP2lVVckp2fSA7YElMpRrOwZSGX5NLpM85foIssafy6bjfS0ujbZgbo0AlttnSsmmkwMdXo3Q58OKJVGEIPT9zKdRi7cwfRjaWviM35ty8ODZG6wxadLwbuyNV9Yb0PhW6yhRffePb+NH+O/ao7fIqdED/Ij9t+nJiNa6mvvvP2o/aTpS3R0nNxh7L5vOYQcEQAAElgMBCEJWyzN7sQUORTPcC5zmv4R3PNQc1XssctpRzl6JRAVPAcq17tCgsK+m+3fpTY4Lwg69I8hFqfarJHtm53pBDg3cESMUtq2iRZK4IIzs7kvpvXbjioy9hyrv7087hNT8Pjo7RdDL7bmh64223qRO2sjInQEPL0A++liBFlN1GBGrU5mokwj3X0yWuomtrNd+5mpbtWfBF/Kkm78KJx+eRgW1x/T7wuComG4KUig5dCHtUJXF+JJ1gqMLwrbwiEP0mYseLcWHIJRrI07RaiXNJSMOEsJ/MUUxw0smh/hzIxNrL11LkevO3qCGmfzU6Ft1hWTm+sOx3EMyqG96MnrYoe/Os1vE78oD/yITvabXFhjV5+ZkRVXVpM11L2d4sqFvzKn2HT6+cD1gNFa+ZbpniygaDSrXRJzdvaiqMhJxE4U+HlZCTnwKwqKe+ZLk89U2s/emlvuN+85ez7H2l5/OXT+7z2k64O7/o0NDoyeMlyMpu/zaJeJj5ub/ec6TrJlu0Kan/vrcdoGYfbMrYTSU8cjsXq722HEEBEAABBYBAQhCeyXpvUmPXiO5qqovTboNynifbkQK7O1L0XdLul9/U9GOMtGL2Vh7tdwe04Jks1lVVUbD1XJbjMin9Bn9TcT6NLRXoqSjnbuDsiQH9/PIs7HZzBdpGabmhmzyVKi6gvUEA1tqG1rDfcdspWaCkMnd7EgktCUgSXLw8ADry1veoFVhLteyyXNtDTT+DZW1zeHoWGrA0UuevRKcjjC9wTOSPBWq3CBJG+o7rzJdnT7j2l0u2Meqv0ArU82O9LXtIIbMDZWhU8ksFfxKKmKZz1NMMW2C0OjgKiNh10w7QZjfY8HIOG3i6WhXg0Zb+5OD22pDXZFIq4uFkFWQkh7sJLUfqO9h9q3ssMmcU60L+2yyr7WBes8IbKkN9URTY17yvhAEdgvrLSXSXBmQpMCOzhhvKe6zswoKQrmT+/BID4dDpHnLFQ2dg1zZ3otarL3FFJOLGX3ZCaMfryR7S9dStnYkviDqLj/tY/ynvOc9Nqgv739waaFKkqTeZ/q1znrDG/9bIOyhGHtgjURC25iTFWlDZe2etvC5btsDizFktX8vSWtfrmjhD6xUxOSaxfg0o6RjYdJUSCNvaDuXyFy16c0CeRVOy51MZyjpWE+I5FsO7u6MfsbUR/aK3lJMD3wuRm2/fIgKexLazlsOiINIi3vm+361CaX1/d6U694YnpjSPi5MT96YnM5PTYzyEaTxk1ZZeOgE8yjz5Zn9+hNYfrp1dITMIYydcB8xSvL21+eGtDa2s71fyKpts4eOgiH80v3W55otOA6AAAiAwNIjAEFor1OfLzbu282mzeRW2n1REseY1tLf38q1Tu3QZqYkVSXRTYJQwSAsm2b0D7LXusVuoHyM9jGMyO0FKHSkgfmw8/nxmwlCYpk8afqo3XaV9mzEj/TB8Cg96GA5LJSxAud1jKqS7jcNnKtnBs87A7oIt8RVQBBuZiJW0+fmK+X9bIqOWcwUV0yLINQVgj05c+KF907epN16j//HTxaOxi0Ea4dCy3QLqR03KshqUw32fUY6W5kBYzYPZ65mrArKKw1f57ioU7WWone6tUu5/8bMRbeWwq91uzu4QcY+yrf6JPsWlDqlf9mRpOKKyYDzrnw1v5tKqQbXH46ycaJ+bH1ynT5O1I8h0Vf90ECrb1YR682WVwRcTtdzJyvic8YpHDtmPDytVrhW8iVOVZM9wuW8Qmd/MwqRapv8drA/CasjzHSpS1MjzxZRZ9qduSAs6plfxKtNKLLP9+bWgUnysBKdyrwjrW86P/GAHP8iarYFrnz5r1G+2kTs0ukX19XsPneHDBb9fuSjs88RNzNCLqybwXVhMmr0fc9Ro8Znl2yiq0BrtKaAfRAAARBYEgQgCO3V6O/FtjmSot8TDbOeHlWIroutXG2jh3jPQPcax17/6QusV+omCJ36KOyrsx65nqrvjdp+agy7F2vxmB2nR8cthKmTFq1kjCY1vqLXsbjN8kmPa1YbHKO9gyXVMvteus/07d9IzlsQBs9QIpkBc2eEXM+tZLkYq05JkoospigIS6gGJUmaY0HIG9uY6/A2A7HRA87aRxGzuuM9WknSqywbO31JmmsAACAASURBVCTGUZJtLuocpCZv/J/1ufT7+LUugpB9BOGfcszZbWGWLCFy3jJ9FlMUhHOhBou09RVnSDTDKLj3grJTE4Q/PfPbAkEFhn7mIDOGyljE9sAS8bJEub1X12YFMuP7NBv3oVyjH/3M13GbpzAqxAjg/bAywtEtLmj5RwTrebLPm72fZ34xrzYhMX/vTUmS/zKa05edIOsQei87IUkrn/1L5NPvqAjk/391+VT7k0LqrpuPtvykDUuO5de5BqEntIU6+CCIAkFxGgRAAASWHgEIQnud+nuxsVkHzpPi2Bud9wttvWHaLzGupeEFO4xDx4VnlL/aXTqsPJjXbzXTP6o6lUkNhskQUPfwTBAauXUPKsknqUzORvd7hJrhKRtGIR7P6pAkybuPxTqFglwRotalSyrCLL5FF5OlPhqW97PpYMp4XwOPTUyrzLbltqvMmYmaTSf0AcAuueSK3Y8lR46MkQ8q96Ihl9hmcdjrFvaua0nyFoQF7j49cl6oYoup3/j6OEYldaZULWVrRzxHTcl+bH3yq9xo48eQOIPa2pknPfV/rCswgVCS+AhGVVU1h0NsVKdbkoyh8Dh1CylJEvt4p47pN7dH4GJO8W9GLjqNfWrJXuEtRYjb+2ElBCSbvgShVMQz3/NZyvLGX21CZrxuOiGYeZMuTH+5znzUurex/egQ9SmqL0X4XfyjD3c7zTq0XiuxZvbTU0/ZTuEACIAACIAAJwBByEkYv/5ebPpAypyiuZOx/KMTz7jAsCmZ2QhCrm1mNdUh0HKRT3miY5IUogz5fEIDhqSbAX0JwmIkgSkRPzs2jMJFrFekJLqEg8Kmdx9LF2zCFcKmTRIXW0wWfybDprDZppkJiZXZplyru0Jlo9eIMuTrX5tyWwwWb91lirb4Ha9bmGVSSXQ6x+udMa+YhVGCuiT2js2eAyZmMndYSxGmmdkDF3Xk6dY4d+p46+SmgpduPz9BXcjkc7Hmufl0wXrqBU03Wl4Dh/gEQNoKp4grWr5ou7k0RQnCogKb0/HeY08kt8emV8PwflhZk/UnCCXJ9zO/mFebkJkCt4YQ0tiUT0/k8/mpYY+JgI/Vf8iGjN68dXx//ZObjxy5xMXhxESHeZUKI2ZjiwvCgoZo4xJsgQAIgMDyIwBBaK9zfy82/a3JuslOP1yz2ZRMKQThrD9pa37whw2X7KQATuYImxyyI9OPFCMJ9Iv8btgwChfq3S8Xy6R3H2ueBOFo31xMCRMozNWm5pF/JM3867AeuYPHy2Jq36tDPOtieN3CeityMM1oCXtnzCvmEgrC5DnumcnBNeuM8RgWwulb5wuuJGhYCB/mEp0+lyksJm/cQvikzxUItfUbYtYH1pjd0l6UxisqcDGl059Izm60vJqZ98PKmgm/glC7ztczv5hXm5CZAreGELKIzY1nL5MJhCNDJ58Wpgs+Vn/p8gSxFk787TXhuFPMrJn9a6Of4cZOEeAYCIAACCwHAhCE9lr292KbgUziBkNJmo0g5O4BRoyJe/YyFHUksKMtMpzi3X3bZKdiSspn+6T7CwwCKiqDLLDelbf5FZQk5ibONV3vPpb3WV4o3eyjDyJ1Tc5SPENwyqF+Zpp1EFSWq/zszvEcQksW5OD+zv4RZrxSVeu0q2IEIR97yT+aWFKa3a7XLRweIYrWNV2vnnohuSjpQ0Z5Ey22mEyfJHslbVET5p4p1qb7V5wdF0kS5hBOjb5VUOUJcwgnLx8ssaFwO10S4KdnXGZzupZ1Q33bqVhKH8tsdl3Ln66qvyGjfJbsNReDsWsmCp0ooNP4kNFB3lKE+LwfR0JAslkgIWtwuu/1zC/mgS/E7nXTCcGK2uSrz99ssc0AXLn/b9TR6Pvec5AfbSZzCIfza4tKGYFBAARAYJkRgCC0VzjvEXorrj3MVWeyt3A3yaZkZiEIuYdSR28E9sL4PyLXcH8wlj5KUf0D7sev5NkzzC+GrjYKx1x9ZGOmZQ2M83ycrdO1goMTR5803KmMKCGKLKYhCLWv9MaycnbnK0KWfW3OryBkWQp0MHf6lvlRxQhCibuodWTuq+zugTz6pszVh7vTI377u8zRZZJP9DBk5IM5lVEEdVFkMQ1BqLUUPuO0tI5Yy8XLaODzrcTLaNVrhutZg2XBLbm2n7qutd7UjKE/Qcj93zpXaMFMeATgUpO7FjMFZU5lnIe4z4MgpJlxfuYX82oTCsVvHO/3pnCBj80DQ8QM+OkV27r0krTtwxhdeeKUx4BTSVr7pg8vo2Qxneq6ar6kiY+sIQgIgAAILC0CEIT2+uR+INzVBbmGL3Xg4MnQGmfpBKEcukI+jCvJsIs7TWvaRey7fLQuShBK3NFiKYe6sTLYMPKyVUWov3+PLmCBPhZfjSB71bq+I19ERDWtJVBkMU2CUJIkfQ1D6/oZvERl/uviMKMoQShxR4tOrnRnWX5XQchXhnCb2VVwyKjE131R7Ytecr8dZht7ccU0CUJJkgyftJb1M2ZJSDD9Lfg6hE098ZmVxmaPpdEUJQil4CnqB0u1ryMys1zxq/jiDaruXJqfkarZKiwur5gCDys9GroxIwshj8PxmV/Eq43Hoykq5ibKpVBCSP+b+6ggzNw/blOETx69RT2OelsI+ysu+1iHUG6L3SMDB6YyA6YFjfxnFSFBAARAYHETgCB0qD+9i8AXYXcII0lSsMdYgL2vVV+2O1BZF+q8EEtlEvqYTpuSoV0Wo1dKewCCnmF9msxlupwxyYAc1D3B6OtVOOeswNGW/ni0rytUW6et1k3+5OC2UGSELf5sXQagOEFodGHVnLYcM3PkLQerS7UwfS4ZpgvHk6wbq43bFoRkhSM/hfpY+mrjqlHpdGF6OmUuY10nXe+p+ymmVRCKxp85UM5iwWe1XReODveHWxtq9dXApUDlns4oG8s4myGjmtjhMypV5TN9QXBJrqgu2cL0I2HB+U2gvoutS2+X/QIlbuhwsRBKUj2zpKtKerCzwbYwvTISNg+BLKqYVkGoGZQH2RjdEitnue7sjWn/TkfXH47lqJuZ0jkdfezIL5qj0eF/eE8jbHk/ET3XGRJWBdAayakke2DNasioaLFXsyN9bbuZlSiwZdYL0+8yWkq0q8FYmJ7dPkqyx9xSeCss9LDi4eivL0FY3DPf/6tNzIrP96Z4SaHttXwB+tGJieP79zy5Rrtg5brd9Uevx+nihAXmENbQYcm/VFR6JsW/2mgPe3EkiOdFOAkCIAACS4kABKFTbRqD+qga4P9bxybJoQvs3c5DiL/GlLMZC0IaHXVhqkedGWzhQs4p84WPsU6nHqGwoaQvmNbx1iIrUhBqPSxXLIYGLpxNWwhugCL5nSKeXekkK1VVc8lIjXnsLu8nCaUzb1pq05jdZw6mquodx0lcRRTTLghNAwLLVhN6McwmjlmXeeMVZLR8Wx2aD3gwt9SO+bpCe1zU0ZpUSFOhjn9V1bpYudHCbfWuH7CIw6ruBJ/ApgdhSTn4ONFuCD4d0BJcVa3FtAtCraXMlSaU1rcOsjXq8zdPPl0Iq/yyvkZ9LtpcKLSf8xs/f4mMGn3pwJ89grPbxwZPVVXFwXDKGArf1zziJqfcK1S1VH2hmCznq4+5thSP1UTmQBAW+cz3eoarqupyg/t9b1ogee5W6cvQ8xUI9ZUnvh8t5GW04cm3yXjRdz9f6ZmItJn7cNLamEvpvGPAWRAAARBY5AQgCF0qUK7tvJjK5HTBQToj1t6bdi1zwJjjvZUpRcmkYhc6Q8ISDjMXhLwXq8WuZNMj0fDe2YlBLcst/SNa0RQx8px75EULQmcs2XQy2tM4q9xvqAz1RBPjGUWnrarKvXTiXEutWQxqOfASM261GWjsiYpuDLWqPCUYabV4TX/22ncspqMgFAcEqhlHzWlKawF26sLRsXTW3FSUXCY13Ndikd8kc0ULQu0qjXkynTVao0dT9I0gsCUUHkykMkIjn1Ky6UTfYYeWwj958FvY/mtXBZrHy0T6Hn8+aJEnB7rq3Zu3z2I6CkKTNTVztc0qxH1jcQy4tTOR+yLRUdDBDL1Y3nP+Vs7HKFPHpOwHg2u7iJFw6B/rHrefZUda3k9qVSnc9SoB7vI8KV4QaqKbuTDV26FHO3fNqNMJzbFnPJ3lLYU8xgc6hTEO9ovmQBAW+cwnebI/3OyvNmvmfb83rRd67MtrX37r+NBkfEJfm/7b+MjNE0ePVBCDofuVLyg7tM8Nvzy33dkSK14ps9UXIQhFKtgGARBYRgQgCMuzst36heWZW+QKBEAABGZE4PHkliHNjPP7nnjBBepnlAAuWpYEVvQ+06+1q4Zw0l+74kbUe1GXBWmWJUYUGgRAYNkQgCAsz6qGICzPekGuQAAESkxgxc7878nA0S2vOK/ZV+L0EN3SJ9C0rodYngfzHpZnEwbdr5h1SqopFHZAAARAYKkSgCAsz5qFICzPekGuQAAESk4g+FjLT02ad5lfKndCE5Yc73KLUG9OPz0TLDxYlMz7iDAPRXPivnu58Ud5QQAEFiUBCMLyrDa/gtDD3YJ9JtQsHSSUklTBCX6m3M/KFU0ps4245p0An5doahCuO06zfOc9y0hwBgS4SWf4HxufmMHlc30JH0/o2vJMJyzrc8515hC/SIAbnH19XGi4kFb06Z25VN9u+2R0MW5sgwAIgMCSJQBBWJ5VC0EodrAgCMuzlc5HriAI54NyWaTRtO7Nn6r+0FsWebFmAoLQSqR891ccfzL8k09TM328uHomK99CImcgAAIgUGICEIQlBoroQAAEQAAEQAAEQAAEQAAEQGCxEIAgXCw1hXyCAAiAAAiAAAiAAAiAAAiAQIkJQBCWGCiiAwEQAAEQAAEQAAEQAAEQAIHFQgCCcLHUFPIJAiAAAiAAAiAAAiAAAiAAAiUmAEFYYqCIDgRAAARAAARAAARAAARAAAQWCwEIwsVSU8gnCIAACIAACIAACIAACIAACJSYAARhiYEiOhAAARAAARAAARAAARAAARBYLAQgCBdLTSGfIAACIAACIAACIAACIAACIFBiAhCEJQaK6EAABEAABEAABEAABEAABEBgsRCAIFwsNYV8ggAIgAAIgAAIgAAIgAAIgECJCUAQlhgoogMBEAABEAABEAABEAABEACBxUIAgnCx1BTyCQIgAAIgAAIgAAIgAAIgAAIlJgBBWGKgiA4EQAAEQAAEQAAEQAAEQAAEFgsBCMLFUlPI5/wSWHF8bUv+pcFfm2K/Nsd+rdw5v6kvy9Te7F33wzeV//mxRvt3e82SYRCObSaFevHnb57Jvbtym3fBduabSZP7/Qf/eu7AX1eu8A6NsyAAAiAAAiAAAiAwWwIQhLMliOtNBJqiWVVV1Wy0yXR4ke2s6H3mfU0HNsd+bbryy87Lv2yqWWQlmIPsHox9nc/nx0/OQdSSJIVjm5gU/PHFn6crf06uLlE6L566P5r5fjTzfezUfucot30Y0wLcP15AqjlfXfjom4PPaCXKE6H749afx9c0elxUM73z8i87r7Dmt/fd+49BE3rgwikQAAEQAAEQAIFZE4AgnDVCRCASWBKC8LEjv2hqcPinim2tYuHIdjipKV412WM7ox+o609rQdJ9m+mhxug9co3bf/eihkJgAM1Bc9n0WKyvtT6gJ0E3emlezIHte6Nhlo9BotbVJNs3x9ZIz4qZMQXYpwnCB4kO00H7zmPb3jo+NDkyoWkw7d/EV9GPPmp5uWKlPahxpHX9z5phcOu/R/7fYdk47Li1prHl/J0403j7HIOIB188MckFoUvgmQvCjS++/kn0Jinmpx++KKbquH3qYyp6n8vZm5X1guDKV/K/J58ktjQ0WE9iHwRAAARAAARAAARKRwCCsHQsEZMkSUtBEB5/ipgHdxw541SlXBD2Op2kxxgEXXfNWhDqGu9OrK1KSHfOBeHW8zcmY51bSZJ1A5P5/Ncxqqq2dsYmP4/uEvKibcrbTtxhOpCqQeP/76In9rtqwjeHiVJS15+yRGjeXVWz+9RNKgULaDzxutZRFvjEHvGwsT0TQSg/3fjhBze/MwrrRxBK0iO3v9TshP/++FEjedet4No3iJ0wnHQNghMgAAIgAAIgAAIgMGsCEISzRogIRAJLQRDGK4e1jrjLvEGm7pJFCEIRkBQeJfLOzRDHLYRG/HKwurmzf4Qa91RVSYZFTWiOm1oMs4OGxVE8z2yA/i2E7YnpvPaXi79RJ0snb+bzuegeaWvH8CQ5Pj3+9tNC/Cv3/21EU4DfXj73Vu3GjeTMxie3dR2Pf0uE05cn6oXQ4ubV8a3e8wZX1dQevU4Gdn4/mvny/VNsO3bKxegnRs4F4ftuZrniBKH8dP27Zz5lUjA+dOXMp74thJIkXb1dxAzJR1t+0izV/ff9yEexyNgGARAAARAAARAAAf8EIAj9s0JIHwSWhiD0ciTDBKGb6NIYtcYUVVVdJF/RgpBTr+5NatGqqnKt02VYJbNeuuWtaEEoyZuaz45rUwfz+a9HR+/m83cTiS/I7oPJxNv71vO8ab/ygSEijeJn14qHJUla1fs+HeHpZqMrKJM2X4qSGOLxD3c/K0tMwn3vSxDu/j9qVCyRINx1dIQU8+at4401K6V9xyEILdWNXRAAARAAARAAgcVFAILQXl+Bxp5oKqMoU3yg3pSi5LLpiy3WoGzAHhkZKNd2XkxlcuwSJZOM7LVO+GKXy7Ut5xLpe7Rvr6pTipJJRXsaXUJb07Tv015+6qQsVXUnMiQDWWpEqu6Ok/2pbOpCyCQhNlSGeqKJ8YzCM1wwG3JNS188ndXDq6qaU5RMIlxnzpGLIJT396eZmvEwcJmjWrC9eKWXIAz2faZBdhNdWq5pwyi1IJQkufsahZiKsNmJFkYlF4Q0/vW73oxNPiA6MJ/PP5waP3dwk6k9kWBcGg3ZbadHTpCJdq76raAglDYfuHTnzOuNj9EMFSUIWeCvTuy20OK7ooVwTeO+UzeiE9QA+F08/tG+Z60lXdt6PXrp9IvMCyovtb8ho3NnIazujlN3TuV/f3Hu+AUBEAABEAABECgPAhCE5nqQQwN3uA60/HLPHMYFXBBGdvelRKXELsxE91v7kpoucgg5K7ecVBBmr0SiVA2S1JVr3aFBYV9N9wvzvbilyFJCbVcZCVcbJWRbum3KdoHNm6ijIKwKc9tWqm+3lYkttQU/4C0I2ZjPwoLws76gU1FmbCHUIqO2R1XV9L/D3xwJQrnuaHSC2gk1U+FE9GidQ/Kbj8SJ6Wzib6+tMueN2/cuH3XWscXJJEkqzkJozovDni4IG3vfpx5ijKmP349m7hz18j5aJoKwK8G/MKnqeMSx4TmUHIdAAARAAARAAARAQJIgCE2toGWYztTKJk+FqitYpzewpbahNdx3zDYviwlCRSF9sexIJLQlIEly8PAAs4ZZema6LlKzyXNtDTT+DZW1zeHoWGpgpus0UHVHMpGNtVfL7WS8YjabVVVlNFwtt8WIBE2fMXqJjRfTmbFoX1eoVsuwNtovuLszxvSjYvUjuTmSoiIzHe3cU8ksmXKwui7UeTLSVtBCWBVOUg08lRmwKWQT/XLZ8SUIVf0DgUxlmGG1C54hTkb1AOZyzUoQyrwurraZY6V7pReE65vOjueIbXBqfPyLfH5yfJSNIB0/32aRhWtfv0mdrIzEL2zTNeGaQ2xQ5cT1feucMl3szLq5EoTfUs+o8aHTZALkxor9/8dmLcbPPumScanYIaOXbmzxni0pJrTyD//yO4ewR/A3m+6vFWPBNgiAAAiAAAiAAAh4EoAgFPE0DFBR5NKVF4Nq20wQana15Mla0WbSdpV+r9f9TEqSFAyP0oMOlkNrzMXs6+Y+NrVscx+RI6qqJLpJnqgC8bJo0eSq2IWKRWywvqbNGOiYSYuFUA5xu+XsS02WPeDjFp1/uQ9Mx6z5Pbj6ZpU2ZPSnp55yvoIB541EPsaMM6lTTHJbAlhimZUglEJsBQueujnyUgvCo6NWpzJfx/bJdW/EqUacHg+LTmUkqerA0FfM8SaZYrd227sfMJvb5IlGV184vxmbJL43h13dkJqLOTcWQuIO57jJFWoFc5p6x820WbQgZP5Uv13nuPKHpZhSXb5JW/4kv67gUoTG0IZsosv49GONEPsgAAIgAAIgAAIgYCMAQSgiqaXrx6n3Yi0bxOMu29xCmDppG2XJR5Ma3T62Np2aHbbNRXSJ3udhLgjTfazDzVRB+gLz6ehXEEp8dQSL2GCj0ZTUKZPodc6eKAhLqQYlSZoXQbiiVf6z5tqx6X1X144M+FiEyG19Xp8xVI8GcFPgsxOELnXEKsOnILSN/BUPmKY+7op+ri87Qfhzye287IQkSRtrT9wSV4bQ9OGn1w+8IH4vMTedw288+W9tEcJNfw+ZT7jvFTWH0D0adsaIzaQGtbObL1BnNq6DXYu1EEoNT/xTK+yWfw4/6jUSlWZtxf8+N6Q5vN3xxv+uLKgJpUBlXW2lnwdXQSIIAAIgAAIgAAIgsJwIQBCaaruaDvZTVXUqkxoMkyGgpgCmHab6fJnO5JN03GU2ut8Ux+x3mD4x+vFUFRi5mq0glNtifMmDbDrR19oQdO/cC+sQVusW0Vi7TTDPvtgljuH4xlO/7Lz8yx6y4MSe96fXBlzNLGxEKAUud2v2QTZqmK1ET+3DS0IQipSJIJwefUM8Zt+Wn2vla7XrM/EmJs+07rZa/94cfObn6cqf82TBifymqd5HKuyxuRwxJJyPZSdc4jAO63MIHRRa15kJbWKkqzucogWhJB3uffLfebL4RP75n6crfxy0kjFyJklS5edVl8lqhMO/7rz8y84//6/pLHZAAARAAARAAARAYNYEIAgtCAMtF9kEQGY1UYgy5PMJTaGLEYTcjicOIjVFNuOdmQlCuSLUeSGWHEtnc4rC/7EiWyyEkiTXdCe4JqRhiDKsd/CMyi2EmTt0fKziYD6dcVHn8MLeZ/pJtzv2a9OVX17q+Vx+3D0xWu9UEBLzqXKtb4CM06UTNakCFydtinHNzkI4v0NGxXxLB2Pa7MHxk6aDpp1VNXzI6HexS6e3bdyy7dBHl7mblvilN00z8cKxzdpsOu3fiz9/81+3u35jistzZ/4EIfMZM3KpyyVDRTqVkSSpYs+aqS+e42Wv+XfMUxA+/tenen76PflOoc0n7Im75AOHQQAEQAAEQAAEQGCGBCAIHcBpSywMpzJU0XBdmDrTYDWMLVZBKDecSZkKx8rIf2yCkDDSVuNIps268E6szTIxjAvC6Elj8qB5yQsH4GVzaNuKzfFN72vK0GPIqEQnVd6LhiSpk6wDkeyV6y+S6afEsyiVfMbK8ubizUoQ8gmimcsN5ljpns8ho85fJWxfFpxS8Dgm15/7kkwgnDxeT1elJ4FX1ey7RI9/Hz0uuLqlMW2revRqchNRRws9ZPT+cQcLIdN7sVNuhv1iBeHWNT8+rPnPj8//M7a6Y5MHTXJqBftOsePN5GOPO+Su0PU4DwIgAAIgAAIgAAKFCUAQejEK7GiLDKeybEHCbOyQOXAxgrD2AnX1ku63uOU0RzmDPVs/vsCQUbmVjQBVRK+hWsLe89N41uRgqKs/qS9pYfGkqgvCJqn6GDMrKuN9NjHNYyvid17mEGqz4D5/iTiVecZt0CgrYzIsdRJ/MsS/6C7qkCjdX8cWKpwLQSizJqcknA1WCykI+erz8XOW20SSJL6Y+6d/fdGpwh+5/SVxKvPxo05nHY7Nn4XwrffJwNfocbfbtkhBeHjwt5r69elUZvt0g0+nMg6QcAgEQAAEQAAEQAAEfBGAICyMSa5hvmass8KKEYT6CnJuIwkL58MlRLGCkBq1dB+kQqz+BCG7INAZp1ZGs7lJEISSJOkLGGoLYAgpzWhzvgShVGDZCT5PMhmmqwIySVxPV7BMX+gkjkCNOZyWws7CQsgrKBtzcUy0kIKQi7QPWq2WdEmSDgyRJQozowcsNOhu4YXpzZfxtNyn9pnDe++x2JwshLv/jzjI+fIEc9Bkj6hIQcgGyt5my9rb4zMd2Zn3u+wEWTumuq7aa36vKWrsgAAIgAAIgAAIgAAjAEHopylQQ5A6K0EotXDDXDJsGWbpJwvuYYoVhLogMft0lGs7+EqEzkNGrTngNk8vQShJcmiQGROz17pnrQmteZib/UKCkC0GmE7EtQG0+moTbNTonUTinqqqJReE1W1XKUmPaZkLKgj/SlftGxnqXWupl1VHTtCZhC4WwnJZmN46KLPqwEffEi+pHzoaNkkpy0QQym0xrdVp3rAWyWqfljaCXRAAARAAARAAgQUjAEEoom/pj5Pl2uv48uuSHNwWiozQiXOzGjIqmsvUXDrWE2IO4uVgdSkWpld9exllAlJVUudCxJ4QqGwOxz4TJhWaBWFtTzR2Idy2p7Za96yzobKhK8p877gPGeVkdXejamZwUUwnLCQIJaa7SAfcWI9eYiuLUJejzOMoh2D86oK80TgmbDETq6qPOJUrqkM90RTt7quqMuJha11IQaj728x8r63t/mwF8ZWy8cn6t07EiazKOM0hpCUvbCGU1z5bV7GZ/2v8iIrP2LkO/eDT6xwskwJY901mIfzqTGv9Y3qoNfWvnZskUyK/PLHbFPPKddv0RCs2d5z4lBg/P/1ot549VnY9LmFjriyEh3RPwKqKhekF4NgEARAAARAAARAoSACCUEQkdvS5hxX2q6Qv2MRMUUNGtXTk0AWzC1MjEVeDkpg/x+1iLYRSVTgpqD8jC7l0YoxIX7Mg5ALSCGhsZRPdFmunecgoz/Di0oQFBSGzGGsciBcZXky+jqV2QjSc8qGeBjjzliHmJT4e1RyA7SnpwTZPK+uCCkJp5Qtn+TL0dICo6X+rl1EOTfstLAi5IU5fysK2MfPho3wAKpF/343c/Cp+kynY0cxX77fWAV5qCAAAIABJREFUWLyAvnjqPglpKp3pyKfuFsW5EoSbxZtabHsiZmyDAAiAAAiAAAiAgAMBCEIRSkv/SCqTUxTmRYZ0w3PZ9Eg0vNdhhQWpaEGopRXYG46OpLM53uOfUrLpZLSn0SkBMW+u20ULQm0Zic6BsYxeTOVeOnGupVaWWFRmQVjbE02ls0pOEJFTipJJxcgl1mw5C0JNC3Ovo4qDv1ZrLAu7X1AQGgLPMiOUD6MtqSCktC90NhZec3xhBaFWa2vq649+cvnTr0a4YBuZuH/50of7XqYGQ5eKXVhBKGlmzOPnb0ZvmrN9/t3aZ022QZr7shSEkiSTFVDIYwWC0KWd4TAIgAAIgAAIgIATAQhCJyo4tqwJFBSEy5rOXBS+sCCci1QXIs7wx2T1RZ9OZV75RxFOZfSRzGRBlIUoHNIEARAAARAAARBYlAQgCBdltSHTc0mALf5W19I7l6kgboMAG0jpczEG47pFt/WbsUltgY3/3FjtI+tB+c+/aIKw73PLoFXna9nCJ2p22MUHrfNlOAoCIAACIAACILDcCUAQLvcWgPLbCTx2hHTEh3965gXH9d/tV+DI7Ai0rv/5x5r//Lj13x8/avbgMrtoy+zqNz94mhRzy9RbBXMWXLlNqR3+tTn260sH/lwwdGBvJEldXynJ8OaCwREABEAABEAABEAABAwCEIQGi7LY4k4m+RRD79+Zu6Ipi8KWbSYej1de1vrizbFf9w79svPyL5tqyjavSyNjv7k6XqmZzn6s+U/++Z+nK39O+rGhLY6yvzn4jFaiPCndjzU/317j7GCWlqZmeuflX3ZeYc2v6f37j63wKmbDhbSiT+/NpfqWsJ72woBzIAACIAACIAACMycAQThzdnNyJQThnGAtPtJHjz955B8vDf7aRGRh5c7iY8AVRRJ48931P37DZaHPWXZFJrEgwdmA2B9f/Pnb3069u9K62qElT3Qx+tivv7/8U+WBv670VIOSxBxB6X6hLJFhFwRAAARAAARAAAQKEoAgLIgIAUAABEAABEAABEAABEAABEBgaRKAIFya9YpSgQAIgAAIgAAIgAAIgAAIgEBBAhCEBREhAAiAAAiAAAiAAAiAAAiAAAgsTQIQhEuzXlEqEAABEAABEAABEAABEAABEChIAIKwICIEAAEQAAEQAAEQAAEQAAEQAIGlSQCCcGnWK0oFAiAAAiAAAiAAAiAAAiAAAgUJQBAWRIQAIAACIAACIAACIAACIAACILA0CUAQLs16RalAAARAAARAAARAAARAAARAoCABCMKCiBAABEAABEAABEAABEAABEAABJYmAQjCpVmvKBUIgAAIgAAIgAAIgAAIgAAIFCQAQVgQEQKAAAiAAAiAAAiAAAiAAAiAwNIkAEG4NOsVpQIBEAABEAABEAABEAABEACBggQgCAsiQgAQAAEQAAEQAAEQAAEQAAEQWJoEIAiXZr2iVCAAAvNJYEXNdG3f/cdW+Eqz4uDaH7/5r6tbfQVGIBBYagTkR0Zub/7h7CMVC1+wbY+1/uul1jMLnxHkAARAAAQWlAAE4YLiX3qJN0Wzqqqq2WjT0isbSlSAQHhUq3t1NFwg3JI7vaJmesfwr82xX186cLxg4SoOrv3nw5r//Fjz8/jquoKhEWAxE2B3BLkt2H/3oo2LuUQOee9NkqIl/d/2Bz545j8/1vznx+d/OP0bhwhdDx2MfZ3P58dPugYo/sSLys6YdufWtvQWfzGuAAEQAIGlQwCCcOnUZVmUBIKwLKphYTKxTAVh8H4tUYO++pRb1/xA1eDtNWZh0Bi9p/WrM5cb3CuvM6GoqqrEWlkQB70hag9V6KOzG9N0Ws1l02Oxvtb6gDXJMO3jm0Pb91j8jYPkK5CYnBAhO7v0hJBQRrfN7rii5Pi/KQJwEXHYEY6NpbOK0Iocy1m8IJQkKRzbVLwm3KcJwgeJDsdsGAcf2/bW8aHJkYnvRzPk38RX0Y8+anm5YqURRNhasTP/e2hCAQg2QQAElicBCMLlWe9zVmoIwjlDW/4RL0dBuDpeOahZGH7fE/cxXHTl37/ZqvWDv1kXli31yQRhdtCsE02hqE4zzO+zFYS6xLsTa6sSU4IgFGmUZptV1iIShD6Vns9gVoq/uXr7ee1eePj0iNfY6a3nb0zGOmmIuoHJfP7r2D4S1dbO2OTn0V2WaOVtJ+4wHUjVoPH/d9ET+x01YfCxlp+aNE340zPBoCU+7IIACIDAMiEAQbhMKnq+iglBOF+kyzCd5ScIG9a++Utz7Nfmwem1PuRgeJhaRX5728kKSOkVJQjFNuBtppO4hTCpj4yTg9XNnf0j1LinqkoybNKEYtySt5jxTno5WwhFiN4MxZDlsu1T6fkMZi+V/GhO1cZO/2dSdv0K0p6Yzmt/ufgbdbJ08mY+n4vukbZ2DE+S49Pjbz8tRLxy/99GNAX47eVzb9Vu3EjObHxyW9fx+LdEJX55ol4ILWw2PRnRPus0X1J8TgMWrsUmCIAACCwFAhCES6EWy6gMEIRlVBnznZX5F4Tyq+cnchPnX7Wa21xKvrUjnstd6/AySLhc6Xz4BWWHZlj4pbLOSeFZrtkq/6jNm9r672FHMwUXXR4zMDf3pTWbnvMQPm9V5iAIefaqe5PaQFRVVa51unH0FjPeSUMQUtLeDHltlNOvT6XnM5hTySq6N/6s3RRb3CcTypuaz45rUwfz+a9HR+/m83cTiS/I7oPJxNv71ovRygeGyBjR+Nm14mFJklb1vk9MhbETeyxn+O7Gz7eSgd91mEzIkeAXBEBgWRGAILRXd6CxJ5rKKAqd8qGq6pSi5LLpiy3WoOKLUK7tvJjK5NgYLCWTjOy1Tcyh18u1LecS6Xu0D0Yiz6SiPY0uoa1p2vdpfyt1UpaquhMZkoEs/dhf3R0n+1PZ1IWQqau3oTLUE02MZxSeYa2MntmQa1r64umsHl5V1ZyiZBJhi1sMF0Eo7+9Ps16nlyHCXrp5PuK3mBIbU0fsLXJtx0Aqwys0l0mecq3NwN5wdCyj8LDaJK54X0uNqXKKKDJpgdkrIUkO9Y8TU89UZmC/LEly6EIqSxpwJt5dbYpRDu5u6xtOpe8JLdw7G5YWy+6ITKKn1hSx5CZpqruvMTNUZtDcDi3XF7cr14VHp0jPMJ+LHix47cbWKDUq5PNmq0LBK90CNDz5tmZVaOr73Fnhma87lXiODJDbeMmlttuukmbhIQjZzVViQShJcvc12iJTkc3mTPM9bzEzP4Jwkd2bHJ3+681QDyZtaIzE01njEZFJXeystbUZxpy0lsDeSCKtW3qzqUGH8CT+QOMp4dXDXlb6DxmKzC3J+lHHDcPOLEmS8B6UazoHxjLs1TmVTccjDbacGyXVtn4zNkkGUX+7ztMnzfpdb8YmH9C7PZ9/ODV+7uAme8z7jn9KBOGQbgbXEzty4qZ2KnaKjjfVjxsbwcfaibV/KL9utXHUcUt7nZFXYeZyCR9ojknhIAiAAAjMEwEIQjNoOTRwx/EN6OQ7kb8II7v7UqJSYhFkolrX3PSnv0hsaRjzgkwX+NihPYPslUiUqkEStXKtOzQo7KvpfmGyBe/A2XKhqspI2KwftBzoNgTbBbZsOwrCqjC3QaT6dluZ+CjiPAUpopi6IDzZ0Dem990MPE7Kp7o7zjttRkCy5aEBvItOW+BoX3hUyEO6P8RtPiR2JdElMnefHsbEpDnJqnDSoW1rEdsHN7Iur6k4st4OM1fb7E3LnJj/vfWtwznaPZyejLbSsWHuV8svnx1nvcmp0XCdiMP9okJnNn7+EvFF8VyNj3lH8uop4kvmn0OPuMUrdvGdw9CbKxdrczrNb2pnuehhIdQia40xRXjSmY23mPFOmp2d3dy5xXdv2urImyENHjgUzfAPkZo3Gv22zlm/o/HWEgldFp/z7MmijIStjVJ8tWmfOPWotUuI55t0/x5JbycsIpcfR0EY2T+gZ964LjPgOhyUlLnirY3ah5Ift0x125AZB+S6o9EJaifUTIUT0aNOd/HmI3HqReZvr60yrtW2Nl+KEgvh5aMunzy0QPyO3voH7rXJHAnfq+0nlnpSxmzsED+MXxAAARBYzAQgCE211zJMu+zZ5KlQdQXrGwW21Da0hvuO2d5rTBCy13Z2JBLaEpAkOXh4gFnDxiOmt7Kui9Rs8lxbA41/Q2Vtczg6lhqY6ToNtGdAMpGNtVfL7aRvl81mVVUZDVfLbTHSoU+fMfLSeDGdGYv2dYVqtQxLWp53d8ZYv0KxOnHbHEmRV5+SjnbuqWSWTDlYXRfqPBlpK2gh1BWFo94w4V/QnaKKyQUhq/t7yUizRkauaOF1bzG2GLpIScfCJLCGfVtD27lE5qrnx3EPKrQFaplQ0uca5Co6pJDUfSYakqv7PtNqTrkqKohwIptOXAi37akO0ga+oTJ0LsW6h+l+s9UvGBnndd/VULmBZkUObqsNdUUireawDhZCWe+tOn5o8CiZ1yl5z/lbdGJRPhcvPP5za2ci95COMfM/uNQrfXru0ZaftElHQ75mD1ac/i/S661wnD1II7QJJ+pmRuhxUtnmoqzY5S4DSvWOvqkrr5dS5ve4qanop7ntd0ZJ28plROt3azHem7ayFRaE7P5VlfG+RnavSYG9fezmTPeL8994deu3p+YqVq4I9Y3TW9n6qU5/tSWOc3OjXNt5lT70lcQxpw8B/ItngccTC0ZyoiqpcyHtQWFEriZ7nSI3+LBvJT+PPGocE7bWN50dpx9/psbHv8jnJ8dH2QjS8fNtFlm49vWb1KPMSPzCNl0TrjnELIcT1/etE2K2bbZu7CMzCSM3PWcENwwYGlxJdNmiwQEQAAEQWIQEIAjFSuMPepOJQwxg3jZehEryJH/LkiBs9JepcxbkZhwHy6E53uL29J4BmwLEJhqpqpLoJi9i2hGx23OsyejdEUunsIe6oLf2MKyX032LhVAOcbvl7EtNfI7zQUPOv9wBnXPevI8WVUwuCDW5NRIx1T03tiR7hPT4QCxNoguHZ7upt0DWWWTiX1UzA8QgzNpG4fYst12ln0LSfaYv6MycWLjxkJKwLi9PTrfqlLDU8stv8XGifmx961sH2ThRP4bEYqqjgXmhCCf9XPXeSKUmCL3HxdHa1EXXLtbtzA7zweqWAOaE+XNgRhZCKUQXvXBbQ9JbzHgnzc7q5TJn29feYrw3bQXzZmgM3M3G2swCSm6NkZvTJNs4c80bUEQcc86f/+kL4vca9mRQrlri5sevddryaxoL6nBWP6Q/hdRs4pj4ePOMXL9ckkYmiGuZb554UzjINo+OWp3KfB3bJ9e9EacacXo8LDqVkaSqA0NfMS+jN28db6xZu+3dD8hg0dHM5IlGd7dJNLnHWslXnuG8dQ6iOWPGky3db/tObA6KPRAAARBYJAQgCMWK4kNB7sVa+Ada8bR1m70IldRJ8S1IQrFTQuesjg0zMbp31uhmuM97Buk+9rZjnfj0BfZB2a8glJjje2unsIssfqYqqVMm4eOcXVEQllINSpI0x4KwqGJyQaiMRWx1L04vZJA6C83RcoZZ8ChrZtlYK+1CshrUvYOwtsEVmld8PKqoyVJNF75TlTGz6HWJSBSERp+pdBq4OFtfkYZElzK5He6vuKwZE/y5oPjN2CTp8t5e4xaddpxWwb1oiASqv8jNENkYU4Q0gEtt8ueA8MwRE+OfJJwthG73Po/BW8zwpKmNyOX/2QjCxXhvcnT6rzdDiVtBxaEc/Fom10VTP2du/9DmuH6Jw0OJRi7eszw5/sueCS4tioficwiVZK/1WegVuX65tibhZmI//6+rwkG+uSv6ub7sBHkF8K9+zstOaCM/a0/cihurTZBBpJ9eP/CCWWbz+M2/O/Oa2T/20zO/NR+37ckV1bXb2BgL20kcAAEQAIHFRwCC0FRn1Wf45ICpTGowTIaAmgKYdpz70KYg+o58ko67zEb368dKs8F6BkZ/i777DYMefSv7MPK4CEK5jX6g1qaNpRN9rQ1er0FDEFbrFtFYu7WjUJqSlzaWoorJBaEPqpKkm1/GIn76JEUUy9pjYzWod/pZ23CREKaEnBuzbjkkda+PczZdaezo/T95PzMMK+N9hbxKGJd7bsl73pugtgJftr6tHcwVYd6PIdEzZeeT8UoygXDLK8ZIbOeA2tGVf/9WE4T//th5UBy7kNmWaf+7nkxmpkOS2Ur0Qfp0cqlNrhBcuu+LWhAuxnvT1hrY3WE8qM0hmOg1ntviaXbtZ316a7M99vXgjoKQf9mxjP6QPI141seLnoR5wz2Y/kAwX2DbYwOqN/39f2ynTAeIIJwefcN00LYjP9f6SZRZBYkazHw/OjF5pnW3D99Pv71fR+7rSstUCFsiOAACIAACS4wABKGlQgMtF9kEQPahWyHKkM8nNIV27kObgug7BbprerjiN2w9A1+CUK4IdV6IJcfS2ZzmYID+Y0W29Tjlmu6E2R8KUYbarBXrHxeEmTt0KouT+dR6TbnsF1HM4gQh+zzvTz0WQ8PaFfMpCAP1rZFoPKm50uVVz91X2Pqjcq3uI5Q1j2w6ca6t3smEzvp/mQyzbd2LlsoH39b3Jtgg4VzsYEFV/dvWBPc/MfHOpmKA+g/LBGHlTj+XcEEY8+ySsnuHKDo6oODOQB+xLVPTEL3TRTORmHaBJ0wBQTj/Q0ZdDf7j74jFYtuL7960FaKAIGT3MvHerN+V+gb1NCOISdtjX0/PURDqX3ayTnMIhXmqejS6ydo08UE8zbetTyF+3GFSsXHKtMUE4ea/U+O46Zy4czCm3dfjJ8Vj5u1VNXzI6HexS6e3bdyy7dBHl7k4jF9680lzcNueLgh93de2y3EABEAABBYtAQhCh6rT/JsPG+sIkH6wkjpjM3UsVkEoN5zhTkRYH9/8YxOEhJG2GkdSd25Or7gTa7PMyuCCMHrSmDxYKlXgUFWlP+SvmItXEFa1xdz86Gp1ahOEtO73hqMjabqOBWsrUxm74ZcbBHSvpw6jyGZaY4aFMP9FwocnGd1COD3x3p6CErL4XDFBWPWajxUIuYXQzW0GS30PnTSYishS7QVtqEJ2sFE+RgZsE8+iVAO4fVaYlSDkE88yl52L4y1mvJN2kS7FCULaDH09gsrk3rQ1KW+GfOCl+VFs2RN8PrlQlSQ++tfaTmoE15hmL6Ouaye4Kz1T4dyD8QdCAa80EhOEv70tus0xpeFvR64/9yWZQDh5vF7wPLyqZt8levz76HHB27ZDpFwQPrfd4SQOgQAIgMASJgBB6FW5gR1tkWG2npuq2j6jFiMIaQ9PVdP9pR6LYusZFLAQchcFqslrqIaBfVq2ziG0EJKDoa7+JJ/fpFo8qeqCsEmqPsbMiiUaN+jagzQczPDpJZYsz2TXu5jFdTr5eC1Hzw0zyRy/xtoVK2ghZH5HVdXkR1eLzldjloP7O/tH9Lq3eFLlvihHw9q6iMzQ7qAbee6L/jXmEE5PDjQXUnnCHMKp0bdKthg9y/Vfnxsicwhb7Uue2cv1yO0vyBzCiTUV9pPGEf3OpZOZyQNH7iaKUHNmSF1VWTv6/HJvVebtZVRmte/qMtFbzHgnbXtA8RzP+HdR3Ju20nkz9HcDGpG6U3W0ELIbPzMSM750TinZdMJ1vVzjmeAyCFnPi/UppJ8QHgjGMYetN4c3uc8hdAjvdoivPh8/Z18KYtfRETqZ8K8vul2uHa/LN5E5hE895RUK50AABEBg6RGAICxcpzL/tmrtivnqQ/P4ufNJJ58BPMyMfm09A71byaKjHRE988zBCfdBKqTpTxCyCwKdcToo1NxdEAShuIBhKfxMzq8g9C5mcYIwSJd/UF1WkBOqoMhNa1eskCDkno0yF22f4otpzIEO6mdI1Scr0nybDAIldinEyJSNl1GfHupZti/d2KJ1eafXv+dVw/zObSXLhzBfMmzVeOVaJ8VrYa7H563KPAUhv/F17zV6pHzDW8x4J217QPFIZ/vr8ggqk3vTVjpvhhKzDxdcpIHF607VSRCyx7JmfC7ijz0TMgN7PC+yPoWMwKYHgnHYunV1nKxN7+hl1BrWa3/bhzHiS+YD5mPLFPbAEJ1POHrAdNi882izLy+jkiQFttTyRZvMUWAPBEAABBYnAQhCP/XGLDy6pmLXFNOHlqQW5ppFsS4x7CcHHmFsPQPereTuIulbWc+83i8xz9eQazv4SoTOQ0atWeA2Ty9BKEnG+nvZa92LwbeMv2IW1+mUgqeoSyHVacF6a4pF7Fu7YoUEIesXqinL+uMbGt2WL3PODBeWFnFi7f/pC28q6f79RXVFnZNlRwXT38KvQzicX+e5ZhnNM1+H0HuWFJ3IpyTiWmvR3RGzUaNKIjGmjSC0MNdJeasyd0FY3cYXo3Pwlsxj1x8ajk72vZO2PaB4pLP+dX4Elcm9aSudN0NJom6EVFVbQdR2se2AO1UnQcgeFEUKwv1ROnM8dUr3ZWPLh6ch0fpAcLpakh7NTWv28wIDqp2vNR3d9lcqCEeGeq3LRqw6coLOJPzUy0LI15IpsA6hVM2f56VcXtVUFOyAAAiAwHwTgCAUibf0x8ly7XV8+XVt6fBQZIS+Fmc1ZFQ0l6m5dKyHrN5L1oSvLsXC9Krhb6CAIOS9N20FYeIvNFDZHI59xlYm17qcZkFY2xONaeuY11brnnU2VDZ0RdmQQPcho5ys7m601HKIJ1CS3+KKWWSnUzLMZWp2pK9tN3PUGthSioXpDa8PhQShTNuGqmZinTs0l0ByRUPbuaQwOdA8h7AuHB3uD7c2CA7WA5V7Onnduw8Z5VWiuxtVS/wdZH3rMF2ILO/H6aj88tnxB3RkcemcjlYqO6ij0QbneXecAfn9nfzjj6TXm/BwNMqqj0wcE5829IOUyeOoKXKyw+9r8wcaPRz/FqDrSbmiOtQTTd1j09S8u7beYsY7aXfpomeuwMaivDdtZfJmKElSsCfJnsLZZF9rg7a8u/YXqKzTHIClMglxKp47VSdBeIh9jcyOREJ1tbV1Pq1b+kfMdLTL3bm09bOUUXI/grDirY1kvOhzuVbjwhlu7WML0Ge+jw+drn22gvhw2vhk/Vsn4t/SxQk95xBu/PwlX3f0U5Fxdtdoq/1iYfoZ1hYuAwEQKC8CEIRiffDusv60NzaU9AXbd9viLIRa9zt0wezC1Ijf3BEXM1Vo29YzKCAIJd1uY6ROtnLpxBiRvmZByHt7ltBkN5vodnMqw+2TJPuLQBMWV8xiBaEkSVVWT60GUDPwQhUunLd2xQoJQsFga6ROazKeICuumNshVxGWwPQK8yLUWq4c+39zpgnlujBfoz4XPShQcd7c2Bpla9Tnx982L2btfEHBo39+6l1tGmHzu597Og9l8QzRUaMPNw652n/4OqiqahldzNextHr9YcCdqoccE8ShV1Uq6cE2b+u9t5jh946QnADP9oASzvnb5PE7ldP+CCqTe1OSdKusU77JMeMrHgXh8YLQbMMzF4RSdXhE+OQnZmhKUTKpgQ7nNWb11UTFK6xmautTyKhUxweCcVrb+s3IXTJe9MsnOswnZrS38oWzfBl6vuCEsCBhAS+jjx35Rbudh6bXFrL5N17W51Frnp9mlFVcBAIgAALlRQCCUKyPlv6RVCanKNTHN30H5rLpkWh4r8MKC8W6AaApBajDxhx/w2oz+5PRnkanBMS8uW7b+luFBKEkyTWdA2MZvZjKvXTiXEutLLGozPqktieaSmeVnNCfIH2IGLnEmi3W7zTrCqKFuddRJ3+t1lgWYL+4Ys6g06lBqG05pzl1MMjnMqnhvpYaV4lQAIS1K1ZQEGoGh8ZTifQ9XptTSmaMNm9rs9GSrgtH6cIkwh2huOfZrf9ndCszNre0BUpY4LT86vmJ3MT5V30C3NoRz+WuFfZRWiBV/fT26d9Tk8Irpu8f+nnTRsPafxIj4b8/ftTNtYwu8KxrS7BF6koqCOldfKGz0WkFEVPOdalvFTAsFBdsJsWix2B7QOln/G4syntzJoJQA2J/QSiZVOxCZ0gfoEGwuVN1shBK1friMfpKM/wNxH7dRrMH9kYS6az+yKKhdTuzlhfrU8ioVrcHgh6i4vX1P2s3xfNT3fqx2W6sqa8/+snlT78a4VJwZOL+5Usf7nuZGgzdon/8ZtWw9n1n6x/+7BZEOF6v+2yFIBSwYBMEQGARE4AgXMSVh6yDAAgsKIGmdWFiJBzMr3u8cEbCH28mo+M2/b2wQbNwbAgBAj4JcMWeiR6yfHiUg7s7+dxxZz3vM4mZBJMf/fu3zPvuQlvZ+I3cf/+xQuZBWlKO1DYfeyYgcA0IgAAILDwBCMKFrwPkAARAYLESeDxeOahpwoZwsnBPUn7079+QAXLfrgv7NGouVi7Id/kQYDZDdczZyWjoCp0kP8+C8DdXbz+vfR95+F9XS70mTJHog4+1/KStNjH80zNBT/c5RrzM96+qWudRG0GwBQIgAAKLigAE4aKqLmQWBECg3AgE79eSwWY734wX1oRb1/zwkFhFvnwCmrDcanKJ5ofPTVVSffuZOyte0kB9FzMQKqNhn2KIXzur33CMrj248NbyFTvzZOD3L5U7fQz8JiP/Owf5KquXF9q0OatKwMUgAAIgYBCAIDRYlMWWl+8Hy6QP64Sissg/MjELAvoUMntNOxwxT/WcRbK4dLYEeJ/y16rXmgvGVXFw3b+px9GR/1cwMAKUBwEPf2MOt6Zpil0ZFCDYyoeFksw6TCO8E23xMZW0VEU5cPq/6NTBH07/plRxzjCezffryNec2pZeHzF0J4S59JnhAq6YfESIICAAAiBQLgQgCMulJlg+IAjLrELmMzsQhPNJu7RprdiZrz31uc8JSBUHn/jnNxuHFnikXGkBLO3YFrcg1MxaFaHwYDJ9z/BopWnDXDY9FutrrbfMLJzzupQfGZvYtPBf3iQ3AAAgAElEQVRqUCtnk9z+r5ea/ahBzY9yUlVVRXfENeeckAAIgAAIzBsBCMJ5Q42EQAAEQAAEQAAEQAAEQAAEQKC8CEAQlld9IDcgAAIgAAIgAAIgAAIgAAIgMG8EIAjnDTUSAgEQAAEQAAEQAAEQAAEQAIHyIgBBWF71gdyAAAiAAAiAAAiAAAiAAAiAwLwRgCCcN9RICARAAARAAARAAARAAARAAATKiwAEYXnVB3IDAiAAAiAAAiAAAiAAAiAAAvNGAIJw3lAjIRAAARAAARAAARAAARAAARAoLwIQhOVVH8gNCIAACIAACIAACIAACIAACMwbAQjCeUONhEAABEAABEAABEAABEAABECgvAhAEJZXfSA3IAACIAACIAACIAACIAACIDBvBCAI5w01EgIBEAABEAABEAABEAABEACB8iIAQVhe9YHcgAAIgAAIgAAIgAAIgAAIgMC8EYAgnDfUSAgEQAAEQAAEQAAEQAAEQAAEyosABGF51QdyAwIgAAIgAAIgAAIgAAIgAALzRgCCcN5QI6HZEmgczKqqqt6LNvqLKTyqBTf9+b7WXwp+Q7GcjIb9XoBwIFCYQDhJGneyt3BQEqIxes90N2g7C9Mmi825zwIawdY3nUx8PjX9MK/9PZzO3Yp2bDXOYmsBCeBhuIDwkTQIgAAIuBGAILSTCbZdSKQySuayT91hjwFH5oRAsYKwO64oOf5vinSFIQhnUjP14eFU+p7iW3jMJA1cUzyBYmVVQ/9n/HbIKUwaLkVBKDfHckQJmv6bHj8JTVh8Iyv5FRCEJUeKCEEABEBg9gQgCO0M2Xf07CAEoR3OQh4pVhCKeWW9EAhCEYrf7WKFh994EW52BGZTL9xauAQFYWtiiijBXOKNV9ZLklx3NEH14fT1N2YHHFeXgAAEYQkgIgoQAAEQKDUBCEI7UQhCO5OyOAJBuEDVMBvhsUBZXhbJzqZelq4gbE9Ma3pwevQvMm8F8luj5NjXsX38EH4XigAE4UKRR7ogAAIg4EEAgtAOB4LQzqQsjkAQLlA1zEZ4LFCWl0Wys6mXpSsI3xkn9sGp2H6jEewbJkZDCEIDyYJtQRAuGHokDAIgAALuBCAIGRv2lrL5XDAdcBxwuKExEk9n+ZQcNZdJXeys1b9Nk+ipkkmdlKWq7kSGRJlNhqskSarujpP9qWzqQki4iHb1stEmSZJrOy+mMjmWESWT6jsUcK9Q/2cCjT3RVEZR6OQ6VVWnFCWXTV9ssUbRy1xXaB5RrJlJRva6ZEaubTmXSN/jXKYUJZOK9jS6hLam6bgvCsLA3nB0LMMyP5VND3dbmFtiYPXrWINCUFO0qqrV5nCkcYMQwrLpr5gufaDq7mvETY6qZgbF2reksSC7XDCYbgDbjtOAQ7mmc0CvGlVV7qUTpyz1TiNPRWSp+lgiQ1pgdiRcLUnCDZLq3y/cELQRkuozxT+lZMb6WjwqyD88S1WyOyKT6Km1xCG2Q0m8/aeU7Hi0s0bItnClXNPSF09n+Y2sKkpmLBp2u32EC903BUFIM89ak+rjKcHr16kGhRTl2sN9iXRWf0oo99JJ2/NNCC/5K6aQc/Hiqu4EvyGiYu2LYQpuv00F4XSiXQ+69fxdIhLvnt+kH5vFhrWM2oNCUTKJcJ0lUgaZzj4I7I0YJJVsatD6mtAvZk8h/uxUc9l0vK/FpV3pV7lukHsneyUkyaH+ccJ3KjOg4ZVDF1JZcvdl4t3a3Wf8ycHdbX1k5rBe9YWy4feFMuOHYfWxhJbbqWyy15xZI9vYAgEQAAEQmCEBCEIGbmaCMHAoSruzqqpq/kuMVzjVeyxy2oPMXolEqRok/WrlWndoUNhX0/279FrkgrBD7yGJfXEl2RPUg85kQw4N3BEjFLbtHUQuCCO7+1J6d9a4ImPvusn7+9MOIVVVJRJ3JjnWrtE74m29SZ20kZE7Ax6TPn0IwkCLqTqMiNWpTNRJhPsvplMfSNZrP3O1rfw6OFwwCBgcNq2tRa49yatG+74gfG64MyBIXhp5NnrSdEMkjoXEfTXdX683FS4IO49xySDmJpcMb9aDzmijKpx0brGqfS6x0Q7bY/rtb2RHMd37JDdy6ELaocUW4zLXqVRcVp10vJ29nxK8fq01KKQj10ZGnHOt5pIRB33iv5g856J/VFmv/UysfRY3xO/OThD1N33zJJF/8sHBSTaI9E1nrS6UufBmtePDR6t++8NNF4RtbcPio541FmWUfAQxpVndHeey3mhSZMujpkwx2HbovTPaFx4VajPdHzIVREl0iXBYBVmyoO0yMWlOpZgXykwfhp0JI/upyCzvd3P2sQcCIAACIABBaG8D+lvcQ1+Qq6r60uSFqYz36UakwN6+FH1vCd1Z2oMkejEba6+W22NakGw2q6pan0Bui5HOaPqMLvNM72MlHe3cHZQlObifR56NtYmvb3shPI+0DNM+RzZ5KlRdwSIKbKltaA33HbOVmglCJnezI5HQloAkycHDA6yTOx7R860lWxXmmiCbPNfWQOPfUFnbHI6OpQaaPHPmeZJ1xHlGkqdClRskaUN951XW2Uqfce1HFhSE9RdoZarZkb62HcSQuaEydCpJv6CrSiqiWXSFv2KKaesDyaHLLM8KtYwJEZffplP33SmXcmuMNqzMVd36Idd2xGhRlWudvM3SW4xU5L1YW5XcdpXcEPe0GyLZy28QNd2nd/tYI6QdVCU92Km1KzkYOsfutuzV2dwQwcg4vZPT0a4GrVFpf3JwW22oKxJpdbEQsnbIMyMF6nuYWM0Om8zshoTIJvtaG4KEQmBLbagnmhrz+orhxFg8xuqFZqTIp0RBQSh3XqMPMiU9HA6Ru1iuaOgc5Mr2XlRQ+FquiimmrUUZikJrAGIhi9+W36AzBvPT4+c6zt6gHmbyuXhHCcyDmyMp3lI691Sy8Q5ysLou9P+zd77PUVT5/v9TWhb5Ki1rEFZxE/BmhSS4ZPM1rEsWyYVLjN7wDSkkCyLcOGTJRgguBDVsZLxxuI7DjTURJiiDuBNwDNrGbVNaNVU82Kp9suUDyyfUPuHpt/r86D7dffrnzCSZ8E5RTPfp8/N1Tnefd59zPqf/xFCfxwghaymzRusyan9de4JNDSimXhLLZ30k0vKpRDeNX23Y2tF3OlO4GHfTGnrvGJnQ8qc7VPbaIq+fQrJLbR752CiSdrFPyEoiU8xnziX6djbT5qqsazTvNT0/6rglIr1Q4j4MxXdiftSJWsg7DkEABEAABKITgCB0MwspCNWjtMPk0ma8W6xljrAOMFMyus76xJuYktS1zFHihb4jhbEI6+VXvGSbzKMeod9JrcjdBQhy6RijPfSQn5ytvriWPWGbmEn78bqeFboqDfw7tGTkMChjAddNjLqWt80nVNrZgOeNMWtMyR5ZgCDcxESs+5u9ujfJ1LOtlx+tmI4+kNl1didnz3Xw2YmrZDTE77/pE8HR+Ptwdd/l3nktfDzi6NE3n6RiuzDGxsC5GtHZuEQD86Brl9gNQaYpC0MuViMsZo6I0fPbkN9K8qwFuLICCjegXwCrHTqHjhto31ovjHWYEfCmpRudb9O1IgflPCV4FXg9BHazZu+ezNx8gonw3LDwIShaMR0tqpk/NMpXgwRsy4lpMibIb4u56dN71lYE+QCdPy+0TL9oOWRd128kbROb+SugcN5qKQpnXv5jwZYp895h3yjZ90ddZ/cja89eLcGKS+27SJ+Fwpca42q0F0rch6H1Ea2Y7hdanpU/HIEACIAACMQmAEHoRhdOEPJPxcKwnhlVF90A2vzmynuQ+RE2ysT6Q/lzTL94CUJZz4DNnDEjN1MNfdA6SvvnN1O2PopXeNaf0HInxI448c0uCYKwjcXtGCTxijuSO8cokZqtbHzP0VOxovcXhFyQmIrFCqgofPhoNmV9Qo9YTLEPVEE1qCjKEhKEL9HhQS3VK9IjxyobV+E3C+8om9KRNSRz1jS9QYRuN2+EkuGjQ+wTiSRdV0Y8HPg9dXnI9sHDwzdvh0X3ZGl2SViqylumYyzII+pozuwxEuspwavAQwawbz1ymd3DBoI/HjH75RGLKQrCSqtBRVm7LznzNy4Gv79+9reVE+K8seWGQ7UU+iLQXaOpiiJ5y/Ah2UrPh2T3TjHVSzmwpM0Re9ZoPVqCrUnyqIzF7dZftBdKOQ/Dus2trcb8FPyBAAiAAAhUmAAEoRuo5FXt9qSwnoHQZxU8sXce7zC5uonO/i71LwxQiB0mIV7jkL99w7y/HUH5KR+xMRaE5MYTZAoov+b+lXcC3P4MF/UEnVFVTAom/uReo7u6MApR+FaHoiisRoSeuhBYYV0xj6u8s2sYQaF/UYtp9oHUvWyVnDY90sFjE3OyJI99WqOVX05J+DpgXeR9UDYtzXWL0TZm8XfeIAprhLLIuTjPigvSrKTDHJlDH7pezGfMec4eQVk7tA2Me3hV1KHLZIrhzWSXl5f47j71EviUYFWgyx8jAcHN+4UXKmoxzZybkyS13MnK3BAtf+Kjg98zTTh/1dyR/gQ1ODP9p7jQ1T4mhklLMScAe0TnD9kRiH1G1C+bjxmHh7inznuH5cq8X8oWhEqkF0qNPwzj1gLCgQAIgMDSJgBB6K4fV2/V7UVReA+V2JebJfYzxP+p6U7ewXUpGWd/N4og5NrGtZBDmk0Px7qet/haINJfNewSjrOVQs4gUQRhlL6yM53AcxdGIQSbbaVlDgmOwqG/IDT7KEII4dBFIGoxWfyFAls4KBkxEJJbcodm990vZ5wJsa4k3gvkmLYyLj9ctxglzO8XRXHeIPx2kwlC5lnPn3OsbPLLrfOa2mpafGVZJcqwXWa/lJdUmhlHxJEkgSNs4KlfvbAm5/mU8M+Yq4LseXER8I/NHtg4Yzkv3GA3RPHdCk2n3Ztke9BfPdWmtpy4ymaOzk68aHx+2ZsiCwrnp151Zymsi7rNaeirmM+M9LbLxq0iYWFMhM+CYbMU4C+mIKxr7x1KprOGJWrzdqarSiXmcyK8UGr8YRgAG5dBAARAoEYJQBC6Ky6gM8QCsLcs6z3Kf3hvjPWfvPu79B0pdAVCdPXK/pBsGE+fyBXYO56WQPad3iWH3MhMF1dP0bxSgQMXRiFOJgg9RyZZL8SqAiGsOX4oHy0xxb81Ghy1mCx1y9BfhdZK2QpRvRO/1mimypnIbwXWvC71E/+uW6wSgtDY1qW8P8Pc/2SemRGiOZ6TWLzkJa0FQej5lPDXKq4KsoN1EfCPzR7YOOMt6jQ3QCUxzeoOFezCzMnMZQ7StqDuPPsp1YTz039qUV6l1mZmxp4NjsrXh7HFQjZPF9TxBn8j1eewO8XnhfLvIL5RcibCW8Dff+irMQRhU1/Kywy1UVzrSShmIuQLpcYfhmKJcQwCIAACy4cABKG7LgM6QyxADJlkqRHaH7Jeq1EEIV/BPylYcnEXIopL3bN9QxNsQypddy12ilJSPm+wKlbgWDfUwigUkhl78Ew3lCCUxqwovFCWAOAunskJOTMOeR8oYWwFxoZmJUrDESrM6dJZQ+gSCT7Zd91i5QjCncxGUnbAJ8VIl9SGvf2jk2zwSteda7qilJTPveTfhiLlI8gzl1WSubLsKaExBe6OyV/C+V91T7GOWkwr58beLfSbVMEtqNzZ9nfZk/qSTBO9KthRUl9M0UHD0uz1z4g4nMu4V7n6x+t5VW3oOjSaNVuKw95yNEHIF7J6VplnLgIuRBaEzO6ortvMUBuphHsX+L9QqvcwDOCAyyAAAiAAAt4EIAjdbHhnyF9xmd3QweBxCZeSKUMQcvN03D6HO/8xXdRt3B7MuH3niXCdAJZqL9lRQ9crnj1xH0J7/oyUmQ2MYspm718g4S8ITYFn7XNgheVGZcQ+fcRiWn0gY52ltd+a2yqJlWy4o4UUhDaLiO7sRTDAWElByA0CedoTcuc0pEvdQbbzmbnaigaMIgh5yxS30AiZfLA3S1Y5/fKnhM0QqM0Tf8p5jIqzVYKiISUrODMqI6pNbnA4ZC3Ycm4urC3bEKtMECqKYjc6OpeumB7kSOr601TUWt+MyKUAyDw4/eUmauXM7X4jnUUVhHxRbuEtl83mKO8CrxdKGQ9DYycYc5+kSAzgGQRAAARAwJ8ABKGbDzeQ4K0uSBhuZD+ENfnKCUK1610yT0kreydud7kV9onaOWcpSidAUbgFwgrNAROz6cLILzYNUUP4zpzz69YYnccYoPIcG2Vyb2fHNxHR7X3raMW09YHErRqd+2cIOV5Ch9zchXMAxJ5F9Sgz9ynZbtvuk4+cWPVF25hVO84vJnxowtHhJur6pjGJTZtKmBYvHYnFP+U943IEocKMr5IdR+NnRRrSJqsEH2GeEgFahW9vo7v39uQWROxTCaIV05lzy/RufrSM1YQbz35GRgjnp0/8m8BDUdR9GbYdYWl27Le2SxU54V+UHO0zALIj6YZhapFLd2/14fAZ7TSqIOS7XzjnYK/rHJmmutea2+KbE/kLJe7DUO1j2+fqhfNltBHfHOMiCIAACNy3BCAIJVVvvpj5JuwSP4qiNAxYG7CP9Jr7Wdc1tnX1n0vlChlzTqdLyTj7u/QdafWP+XqSwvkuti8w2SjbtARj7lchz1mAa89oOjlyqKu1jW+sbOzB3TU0yfbbs++VHHaakJmm2bfTZ/OpAbJ3PMl8c6U2pp/NJujG8STJumf72cbnrg0hzSwFC0LF3IZbtyqdbkxPlwgVnBuIRyqmsw+kKNaoSBWUs1jwihzzjafNTdjlsXaeZ5PnyLbafEtrtaF5Z9/QeDY/bTJkHWWrwYcVhIWxvcINUd8zxqYbmvtVyDMW4NqWSE6MJno7Wreakdc17uxPssjLmTJqbNjON9nTtY/N3cYVtb65UhvTO54S5gbibi0ncAjUKu1swoBuVbq4Mb026VDgkYrpFISGsh/njSf4g4JQDvvhxtPXmWnRL6dP/efTxt6D6sadB85O06mkVC1aRkftgUOctQ4kU8Z27cI41brGjkO8pTi/mARCtidpzR3Qi5MjfTtYa6zbXImN6S2juCxX5mcO9noyx4pVVjt6IdVPnrRqfUff6aywttYhCKO9UOI+DPk3OOOBHHauvp0vzkAABEAABDwJQBDK0AgvZioH2P/WCAYNpXadY31Gmzd2Yn0tji0IaUzUyJuZRGG8R2bRTlYQuRt/35sxWgda/pzr42u0EUIyJ9ITi6MnIc+flyvDSHM7R2zfmRZxZrND2+xzd/l3bqtwjiNHbVqr+xz+dF1iLiJaMd19ICM834JCX/qasIkb/3CwMTuRrM6anbY6Rf/Wdu2xBSGJjlb9LI/auTu8V/PxdvdrKsXMEef2m7wdWje4d9Tkik/TcjTCgIgcl+03smjNVdclTwl2I3Nu7l9HbTY5zWmaIbTLsk1TIhTTLQjJDVUBTdhy4optT3qmD0ul0vez01fZMCEzOurAGeKUV71JQjgoZo6WZVSGJO/NPJxlGlkZoo4QCuJcKJ5xWExnyBa2jse4vR3awkheKHEfhg2JSfNxr5tqVlZguIEACIAACEQmAEHogUxt7X8rV5i13kDGa07We2OWCa3uqaYVcqlz/V31lj6JLwjp9hX0FasV85PJxK7yxKBR3J7RSaNomhj5rHfkkQWhkYYbSzGfTQ50lpX7dY1dA8nMdEEzaeu6djOfOd0j2SXar5dPgEpq0zAeKNpdNapyWBikdTWWkMWU9oGMwaNBPshcAYsarsxV1mFd51A6XxTIGxAdEsJIUW3dN5KaLmjmrTOnGVU/3Cds4VCGIBQarXYznx1PdMp2hohW9LZE8nK+aL8jtNlCbmKkx/GVgcTLVUFoQWiEYnYprZvO544Lm3u1YUffyEQuf1O4lzWtcNnjKRFVEJLK7Dmdyd/kdUmqcuyQdIsFmumQxZQKQttoauFin1OIh8bSdjg5PTM3b+5D+OXM9MSJPesVxTIwQ4yOho3Q8tc6kMzli5r4XpgjD3zpI4hPjZbdJlacziO1ted0ytjsgTd1n6boDCs9jywISXMdttU7b1S04hyCMNoLJf7DUGVzUHUdglBa03AEARAAgfgEIAjjs6tmSK8OUzXTRNwgsGQJODu1SzajyBgIgEC1CDAxqXtuL1SthBEvCIAACCx3AhCES7OGIQiXZr0gV4tEAIJwkcAjWRBYMgS4IbcAe29LJr/ICAiAAAjUDgEIwqVZVxCES7NekKtFIgBBuEjgkSwILAkC6zq52TMtO1B5i8JLoozIBAiAAAgsHgEIwsVj75dyWEHIp9DQVYZB/0tWfPlloorXAhf42YriWLJSxXwh6iVKIKwgZDeOrfl4nywd0xR8XaJ3XsUrkuWvS7TekK2KE6jVZ35sEDtH89aiTS13ssNanR87TgQEARAAARCwE4AgtPNYKmcQhGL/F4JwqbTLRcsHBKF4Q0AQLlpDXPyE7ztBSL8ezhbzabmRp8WvEuQABEAABGqfAARh7dchSgACIAACIAACIAACIAACIAACsQhAEMbChkAgAAIgAAIgAAIgAAIgAAIgUPsEIAhrvw5RAhAAARAAARAAARAAARAAARCIRQCCMBY2BAIBEAABEAABEAABEAABEACB2icAQVj7dYgSgAAIgAAIgAAIgAAIgAAIgEAsAhCEsbAhEAiAAAiAAAiAAAiAAAiAAAjUPgEIwtqvQ5QABEAABEAABEAABEAABEAABGIRgCCMhQ2BQAAEQAAEQAAEQAAEQAAEQKD2CUAQ1n4dogQgAAIgAAIgAAIgAAIgAAIgEIsABGEsbAgEAiAAAiAAAiAAAiAAAiAAArVPAIKw9usQJQABEAABEAABEAABEAABEACBWAQgCGNhQyAQAAEQAAEQAAEQAAEQAAEQqH0CEIS1X4coAQiAAAiAAAiAAAiAAAiAAAjEIgBBGAsbAoEACIAACIBAZAK71xz68ZnuwcjhEAAEFoxAXbZxtPRoXcOCJYiEQAAEFp0ABOGiVwEyEJZA53hR13X9ZrIzXIjElOHd9hc6bLgUwvpiOZlKhA0AfyAQTCCRJY07G1ZcdCZv2u4G42Rx2mTUnAezqBEfhhrcnbrXPfHPxx8Pm2X23NOzy/LxUbdrKDVd0OZ4y5zTtNncSJsHHLW1/61s/qbGfev6rFac6PfwXaPOL6a+LJVK0ycWLfvd64fvdafudY+XHn1k0TKBhEEABBaYAAShG3hD37lMrqAVzofUHe4Y4FIVAlEF4dG0ps3yf7TDAUEYp2baExO5/E0ttPCIkwbCRCcQVVZ1jH7Mb4dZ3qWGIIzOPW6Ihod7qBr8cUNDhLGXygnCpfZqU7vOFyxpZx0Vk7tljJsS2VnLk3W0oG14ARjuMQTh3zIHZQziuq188v/tP3s9df2bqcK35N/XqfSHh/e2PyyPcMXghjPQhHI2cAWB5UoAgtBds+w7enEcgtANZzFdogpCMa9sjA6CUIQS9jiq8AgbL/yVR6CceuGjhQvamTaLW07OzUhq7GBFW+l3qXvdqbuN26Vyx7M4lROES+zV9twYk4M3Mom9DSoBoNY3t+7s6tjkpqEevUS/Ymi5c33t66iHusa21q5d7W7fVXOpEsOWs1dmUv0tJNttYzOl0pepPeSkpT8182nyubLK81jvh2mmA6katP5PXxh8TB73I+nGcUMTdiSyK+Q+4AoCILCsCEAQuquzSk98d0JwiUYAgjAar4r5vh+77xWDV8WIyqkXCMIqVowk6odY9/p3h/4iuerrtFwFYQcbHsyPNPmWn11krb14sY9KxzBhquCnOt2DA5n5kvE3m36lTVVOXC2VZpM7lZaDEzPEfX76j0/ELsumc0miBtMX3mh/un6lEY+65snungtf0NHCN1+WyG+S2tPas8YnjHtNz0f7hBE7qwgIAiCwiAQgCN3wq/PEd6cDl4gEIAgjAquU93KER6XygHjcBMqpl2UtCNUXU5/PTSXawimHlhNX52bGe9e6AVfMpeHhA3fpoqw1D0WOdLkKwmizNnYnyQpyfbEnrlepe6Bu7D41bSwdLJW+nJr6rFT6LJP5nJz+bSbzxz1lNM4tw7cM4Xf1f1zjqHuOfUSGCi+85tUmG9YcIu32QunR6O3WK1K4gwAILE0CEISsXiQGSKw1CvxIOuFwXedQOl/kS3L02ULurf5We0+EvtFzJ1Sl6WiGzpIpZhPGZ9Hmo2lyPlfMnesSAtGuHllKYSyjzxX42gmtkBt5qa4SjamucyCZK2j21fzF/Fs9zsgHmekKw6SBMzPZoV0emVFbe05nrNX/c5pWyCUHOj18O9OUnouCsG5XInmZmyKYK+YnjjqYO2II2fmwRavrRm1ODHWy6UmOKMlpuGKy1J3T85qPXqKdHL0wLta+LKGFduOCgbd9+a+zREYu1W39Y2bV6Lp2M58ZdtQ7jTw3pCrNRzIFsryzOJloVhThBsmN7hVuCNoIyQ1oi39OK1we6fGpoPDcHFWp67ph36KQGWh1xCG2Q0W8/ee04nSyf5uQbSGkuq1nJJ0v8htZ17TC5WTC6/YRAnofCoKQZp61Jj3EU4LXr6wGhRTV1n0jmXzRfEpoN/NZ1/NN8K+EK6aQczFw09EMvyGSYu2LfoKPn3hlig63lGYngmXezvOzpN9dmr9yKqSCDM6Cw8dD2c0TxkhLy3/8wXHFfWo070nhhTJnPqJlRmVCNNr4rzZ35nxcHDmZ04r57NhBv6dyyGcySzOCIAz9aqNRi7cwfea7WvgCMVTWPvdqauZvtD2WSt/PTZ9+caP8ceJTE45LL1wgqu+jd7Y4Liib9qepIPSxSvXI1SbSdNt6fDyRiNWu0Y9JN+jG2FJ7mTkLjnMQAAEZAQhCRiXeE7/upSTtzuq6btgvsWQh1XssctqDLL47lBSW0GuXjnaNC+d6ftRaKMAF4UGzhyR2yLXsQASbBJJ6V7vGbogRClY3GoYAACAASURBVMfuDiIXhEM7RnJmd9YKUXB33dS9o3mJT13XPawFSLIocTI74n2DWZO0lZEbYz6LPkN0Pup6bNVhRazPFZIyER6+mCx1G1vVrP3CxT5DCy2tPy4YBAySQ1uJyAeDE7xqDDVl9mV13dZLoJEXkydsN0TmSJd4rudHrW/aXBD2H+GSQczNbDbhNespJFUvexW67l5LbLXDAynz9reyo9nufZK+2nUuL2mxUUzmysrBZdUJ6e3s/5Tg9eusQSEdtXVoUp5rfTY7JNG94YvJcy52MlWz9gupA2XeEC0H01zmfXJ2Z0CXWt355+tMQX6eOUiXcQkYyj9c+cI/jeHBC/NrAhZjeQM0mpdLEIZrtPFebZFKrW4bkpt70XVtcshLFIZ4Jgu5CCkII73aFCXkG3wBGJKiqm2Hk9fpOKExVHg9ebj8bxTtp2+TqaE3DjuekQ++evK6IQjTp/cLnJ2HDWteIdZlLsyvcV6ynbeey5vPwOKE67OyzS9OQAAEliIBCEJ3rbCukrsj6PTaNEIfgdr0iDmIVLdrJEc7UUJ3lvYgiV4spg40qwdShpdisajr2lSiWe1LEfmUP2nKPNZhok9YLZ/s39GgKmrDXh55MVXOQoqeCfodvpgd7mquZ92lus2tHb2JkSMuVcUEIZO7xcmhrs11iqI27BtjndzpITPfBqKmBNcExezpvg4a/7rG1u5E8nJurIzFCKwjzjOSHe5qXKco69r7LzJdnT/p2Y8M7Hy08/dZcXKk71kykLmusWs4W6TmSbXckGOhS5RistStzrdlXk+jI2POtrWkzmXdd1kG1d4UbViFi+Ygudp6MEWrR7vUz3vm9BYjFXkz1dek9l0kN8RN44bIDvIbRM+PmF0Y1gj5DTHeb7QrtaHrNLvbyltZ1DA0TWLW8slDHUajMv7Uhq2tXYeGhno9RghZO9TyNDNKXfsAE6uO/lCz+f2imB3p7aDWM+o2t3YNJHOX/b5iyBiLbqxeaEYiPiUCBaHaz2145CcSXeQuVus7+se5sr2ZdIwDRCmmq0VZ/XijAYiFjHustiWm5uhYy9zUa7/hTc8jurX7knS1Vml+JrmvjAl6kvgHN4wS4xyv/LfkouBkAtQ+pg98RVHqGtu6Ri7TN4pDEEZrtCSd0K82IVfBh2p/hmZQy6cGukjzVht29CfpeJGuF981W4rtvWbqB+cBn4nDHvjOy85zcRJptFdb6De4AKE6DBVl7e5T0/Qjxtz09Oel0sz0FJtBOn22ryxZ2P4esyhz9X+fX89L8uC2Fy58TYTizOGt3FH+++v5DmIMqf5p+XXqyleEGrWjXVpmG4H4FRzXQGDZEIAgdFdlyCc+N3rm0ma8W6xljrBeiPliY33iTUxJ6lrmKPFCBYMgQa0XZ/HSUbF/pB6hL18rcncBglw6mHE3S5/4hrD64lr2hO1rL+3H2z9dNySmaO9AMnLom0zwRROjruVt8wmVdjbgeWPMGlOyxxcgCDcxEWvoc3tAdS9bu2Lv5UcrpkMQWj0/V3L2xIPPDPMDAX/l72fl6r7L88Vr4eMRB8Pmk/TLSWGMjYFzNaJrmUPGDdDAPOjaJXZDkGnKwniy1QiLmSNi9Pw25LeSPGsBrqyAwg3oF8Bqh86h44aRj0lvtTDWYUbAm5ZecCoo00vcg3KeErwKvB4CfEDGPZm5+QQT4blh4UNQtGI6WlQzf2hUSg0yopbM+342w0w4esJWf/MaV5Dz1/8cNKzoGY3rwkNXm4hljs2/FXC5fClcVrkfQby9OQRhtEZLEgz5anNnzs+FZ8/9wG8eYlI2N8S+7Fgt1qnqxPP4gjDSq40/OkK8wYXyV4WhcpjNcraMynyZ2qO2vcIGuuenE/GNyijq1uM3qP2YqcKtky93rnny4PFJuv/E128e3kHMzAgldB6uyG4mDbi1+5jzknhujldr+dEyPvuKUeIYBEBgIQlAELpph3vibxrKkXeYMKxnRtVFN4DWLvZRJ/7KNM2psfdi/hzTL16C0N05UBT2OdaM3Ew19EHrKO2f30yFWnzFRwhzJ8SOOEmNXRJ6Km0sbrt8Cp01X48co7vnofD5KsKYkj0qf0HIBYmpWMTA/Ev8bIpVp6IoEYspCsIKqkFFIfbologgfIkOD2qpXpEeOVYdNwtXI6Z0ZA3JnDVNbxC3IJQJhkPsE4kkXVdGPBz4PXXZc3qbGJC3w6J7sjS7xHu0imK2zGLqJTGOihyzx0ispwSvAg9ByL71yGV2DxsI/njElDj8BgxZTJZzMrZTLTXIELccZMY5SiFknrrz7Cd8/WG6QrNHn9a2G/3pHzf80q/S+Zc+ySOItzfhMWvEFK3RkrTDvdr8sum+xqa38E85dg/smaDL3pKK/zPZHpGi8C8U4nig048S5dUW5Q0uJFQNhoqiPJf81Nx2guxDWMltJxRFfeKlD1KOnSeufnKs0zHtRSincMiGuLsH0oKj7FBtaG5rZvuHyK7DDQRAYCkTgCB01064Jz7rhgp9ViEm9qrjHSZXN9HZ36X+hQEKscMkxGsc8neeR0/O4Vt6ykdsdH2ukBtPkCmgUo/EkXXW5SV1BFNPUJlcTO51XKnAqQujEKdvdShKQOeDzY4T+vFC1Gaf3jCCQv+iFtMUhOpetkpOmx7p4LGJaS3JY5/WaOWXSwJHt5V6YPcU/4rhusVoG7P4O28Qxf3pwUyZi3PfnqLpW3qg9l3k9liK+Yw5z1nqV1E8OuhS3+rQZfLd6GayS3q9LEefegl8SrAq0OWPkYDg5v3CCxW1mGbOzZW0Wu5k1W4Itc0c+5ubei1o+t3a3nFr9mivOccudk1tLxkLCFN/f9R3AWHXu6QFytqJR3uL1mhJ9l33XexCmQED7j6mWovv8pZiBgx6JgseyWEoQahEeLX5vjIcb3AhM1VgKMRODokgnJ96xelezvljnW+f+cjclZ7Ykil88ebwAY9NCO1JPTpAlhGeubXK7o4zEACB5UQAgtBdm+Ge+KyHquuzxHiG43+68Ix3cF1KxtnfjSIIubbJjzrXNrmL4ulS1/MWXwtE5+poRBny9YS2cFEEoUffxRZf7BMXRiEm1l3QMocER+GQveB5jQhXjENTsDnc2amLQNRisvgLBbbY0bX+Sp7uUnE1u+9+GeJMiHUlx+0wS2cR61x+uG4xStiqHecN4icIFZa9/Lkybgi11bT4yiavEWXI97+2FZyXVCp9bT4VhZWUF9xxtcxTv3phTc7zKeGfMVcF2XPqIuAfmz2wccZyXrjBbghhmZnbc0Vc1h68xFYUzl95LXD63XOjM2zcfTb5YpnpM0FYetQ3Hp8HlIs2jyhKoyVhAqqVxxvllz14vT4X+jUMnyJLchBOECpK6FdblDe4kJ8qMBRiJ4cvpozVg+VP9efxrm8dZlNG0+l3nt+0uX7HGye5OJxMn9v6IPfo9csE4SgEoRchuIPAciAAQeiuxXBPfPN1wvqPsh/eG2NvdO/+Ln01hhsh5Orlsjle5S5CKBfDQPxErsD76qQAsu/0LjnkE7tn38UnTOhLLoxCSLNf4jEy6d/5YFfloyUKVyNWpydqMXn8I1VaKyWAqMahn/Aw0+NMZDcCd+PGBly3WCUEobGtS3l/xqYjk3lmRojmeU5i8ZKXtBYEoedTwq+nbupY4YlkI+si4B+bLSw54S3qNDdAJTHN6g4V28UyOhpihNAyOjo/k6zgCOFjvju5+TygXLRtHEI2WhLGdd/ZYop1Yj545cvG/BqGT5ElWQkrCI2goV5tUd7gQn6qwFCIvQqHjx3+hCwg/PpM7zZhueD61uPXJ8kk0sm3DwnushwwQTjyaYA/WVi4gQAI1AoBCEJ3TYV74seQSZURhHzd/KSxL2BF/uqe7RuayPF+sGsVUJSS8nmD+dG2imTNFgnrGFkYhasDdLNEz3T9Ox/+V3mhLAHAXTyTE3JmHLL4pxKK2jXKhmYlSsMRKszp0jEq499ttZfFdYuVIwh3MhtJ2QF7IvHP1Ia9/aOTbPBK102TGCzGKCXlcy/5t6H4mZKE5LJK3LyBeWNPCa7A3YH9euqmIPQa2DSnjHKTxFGLaeXc2LuFWaFK9YVa0eQui6/L+l7TfmiwqRhhculspdYQMiONP24wF1zK8puYJF8gZA+3cO0toNGSNF33nSwn0dwCdBqfMjrOW4oQu/9TV/BIDgMScnqn536vtijvNSH2KjAUYq/8Id99/r3XXdtGqM+/TQ2NfrjHN91jj58xpozufjVoDaFvLLgIAiCwxAlAELoriHeV/BWX2Q0dDB6XcCkZ2h+yRpzoq1H4Hm91mJz54xZKpcv0nZ6jnKvbuD0Yx8s70ouzl+yoocutCETJjsSvC6Plh9nAKKa89j/y73yYAs/a58CKmxuVEfv0EYtpCULj87W135rbKomVbLijhRSEhfOW7UxJ7pgmt1q1xA9zcnWqyhCE3CCQpz0h72wEXKk7yMzpO1Ynhuugs8i5Jd7KZ8+ceOnInpEwf0rYDIHaisufch6j4kzyiYaUrODMqIyoNiMW0/Z8MxfWVtwQq/r7s9fpNt8hrIwqkczPWDSCjuo+bSFGGpue97t9uNX+bMLxPlH7mAkf9z6EspS9Gi3xyyvd/9Umi9bbjdu24RbUbD65oSnpTH7/Z7ItHiWkURlnIHouf7VFeYML8VaDoRB9xQ8Hz5BhwNSwZO7MluFbZPDw1jHfnSfSjWRv+gAro4qirGtsbWskWzZVvBiIEARAoOoEIAjdiLmBBG91QcJwI/shrMm7lExsQagy2wNa2Ttxu8vNzdYJupR4iiQIFW6BsApzwFwYeRmahqghfGfO+XVrjE72Ad7w9RwbZXJvZ8c3EdHtfetoxbQJQnGrRuf+GUKOl9Ahs5qrOzacdORQPcrMfQbvpVE5Qahyi75TCd8BGEdew516GMyIJAgVbmhRZgs0XDY8fdlkleArzFOC92s9BCE3eqm79/bkdjvsUwmiFdOZc8v0bn7U3LROKFGMwyW3D+FufyON7BuTlh0UGrI1oUC2Mb2UikejJX5Dvtqk8Xo58s0bdNOGtumzme3C4vEmXTBBaFpktb8gIrzBzSIpSjUYCtFX/PA1KginPnpnizPupv1pal3Gf4SQmcm9678PodI0lKOmE2aziWoM9Ttzj3MQAIEKE4AglABtGKamMnW+CbvEj7F52oC1AftIr7mftbGVcP+5VK6QMed0upRMWEFYOE/3+SUZUBtMSzDmfhXynAW49oymkyOHuoSPeWrD1q6hSbZbvdM+fjRBqJh9O33W2KeYbfOtNjRXamP62WyCbhxPiln3bD/b+Ny1nZSIIajzYW7DLVQ63ZieriUrODcQj1RMpyBUFGtUpArKWSx4RY75ds/mJuzyWDvPs2mWWj6V6Ob2x9WG5p19Q+PZ/LTJMLYgLIzttayaq/U9Y2y6oblfhTxjAa5tieTEaKK3o3WrGXld487+JIu8nCmjiqKY2yro2sepRDf7gq7WN1dqY3rHU6LrNNsn0K3lBA4BglBR2tmEAd2qdHFjem3SocAjFdMpCI1x83HeeII/KAjlkB9aiwbnPzkbtKWgtWiw9HmmQntN2LL18P67hqHRib/7LiPkNaLlx/Y1qIrasHcoe9N4+hSmcuTRbE1ZN2KP2GhphkK+2my5Dzx5zmopyUMd1sb07PbRsgOCxBViC3omC17DjhBGe7WFf4OLWakKQzGByh5v4hvQfzuZfuf5rZsfNqJX1zy9f/+FL+jmhP5rCBvWvEJMjL6tkZCemXuc95qwMb0nI1wAgaVNAIJQVj/WpD6qBvj/zvEltesce+lxH+Kv9f6OLQhpdBqx2WhGXRjvKW9WBuuNmREKB1r+nOsDfURBaPTtPLGEmU8oqxHixkdmSH7niHFX0yLObHZom32uFV9zIpTOfuioTdvHeLvPG9LVTRGK6RaExkuZb0GhL31N2MSNf9jBuNaYNTttdYr+re3aYwtCEh2t+lketXN3eM/243nBr6kUM0ec22/ydmjd4J4x0ws+TcvRCAMicly238iBTwl2I3Nu7l/HaGHT0QzfjMPhV7ss2zQlQjHdgpDMpa6MJnziFbbLd2l2onetg5nrdOf5WWpQdP7KqaAdKVyBQzqs//QZMmv0mRf+4BPCeiAIuLXJRDNrn/b2FrHRsnTDvtp8sim51HzEs6X47CZSBUFovyMEjLoue7X5vaq8h2Srw1CCtUJO6w/wbejpeKDt/yArow9lN5P5ov5N18jpbjbLxqBe1mOtQsVGNCAAAhEJQBB6AFNb+9/KFUxz+fTVInvMMSNvVvdU0wq51Ln+LmELh/iCkM7BoKlrxfxkMrGrPDFoFLdndNIomiZGPusdeWRBaKThxlLMZ5MDnWXlfl1j10AyM13QTNq6rt3MZ073tNrFoJEDvw4TASqpzbrOgaRod9WoymFhkNbVWEIWUyoIjcGjQT7IXJBqTld6i+iwrnMonS8K5A2IDglhZE9t3TeSmi5oplaf04yqH+4TtnAoQxAKjVa7mc+OJzrXlQ2lLZG8nC/a7whttpCbGOlxfGUgSUUWhEYoo2ll80XrpvO548IWSG3Y0TcykcvfFO5lTStc9nhKRBWEpDJ7TmfyN3ldkqocO9TufReHLKZUENpGUwsX+5xCPCwWRVFfTH0+N5UIqe9aTlydmxkPlo7h03f5bFhziAwSXvj7o4+4LgoOdbuGsqbd52I+M0wemFJBGLHRWomEfrVZQUIcGYY90/kibym68bYa6xemcrjjqIIgjPhqI3lyP8Pdb3Bn5qvD0JlK5c4frN/60jtnJm9Ts6LGwOD128n33tu/o91/2K/h4QOk3Y7Pr/HdRZPmtP1cnnZVIAgrV3WICQQWjgAE4cKxjpKSV4cpShzwCwLLhgATM/ZBkmVTOhRk2RN4JLv5gjH17ncD6RBd62WPAwWsBQINt9rIyPbm38o3FXGWwfwI67nbjTMEzkEABJYOAQjCpVMXYk4gCEUaOL7vCUAQ3vdNoNYBrNhe+l2k7nWtFxj5r2kCj6Qbx6N9wjAtUdkNsNU0BWQeBO4jAhCES7OyIQiXZr0gV4tEAIJwkcAj2coRaHi458fdhnWZu43bww25VC5txAQCEQisGNxA9x48c+vhUCPaautBboTLZYAtQrrwCgIgsHgEIAgXj71fymEFIVuGwWbuB/1IVnz5ZaKK18y5JUFZJtfLMkVTxVIg6gUjEFYQshsnVLPSdckOfgtWIntCfF1iuIxLlr/ao8PZEiWw+9EBZnF0/c+XYBZr9fZZgihrOUvdrJWOl/yXvNIyHk0La5jlBthqGQbyDgL3DQEIwqVZ1RCEYs8YgnBpttIFzBUEoXhDQBAuYNOrdFK7H331x6b/GKx0tBWJD4KwIhhrP5LHr24+E0oNsj1+5wxbeuUajat9bCgBCNQ0AQjCmq4+ZB4EQAAEQAAEQAAEQAAEQAAE4hOAIIzPDiFBAARAAARAAARAAARAAARAoKYJQBDWdPUh8yAAAiAAAiAAAiAAAiAAAiAQnwAEYXx2CAkCIAACIAACIAACIAACIAACNU0AgrCmqw+ZBwEQAAEQAAEQAAEQAAEQAIH4BCAI47NDSBAAARAAARAAARAAARAAARCoaQIQhDVdfcg8CIAACIAACIAACIAACIAACMQnAEEYnx1CggAIgAAIgAAIgAAIgAAIgEBNE4AgrOnqQ+ZBAARAAARAAARAAARAAARAID4BCML47BASBEAABEAABEAABEAABEAABGqaAARhTVcfMg8CIAACIAACIAACIAACIAAC8QlAEMZnh5AgAAIgAAIgAAIgAAIgAAIgUNMEIAhruvqQeRAAARAAARAAARAAARAAARCITwCCMD47hAQBEAABEAABEAABEAABEACBmiYAQVjT1YfMgwAIgAAIgAAIgAAIgAAIgEB8AhCE8dkhJAiAAAiAAAiAAAiAAAiAAAjUNAEIwpquPmQeBEAABEAABEAABEAABEAABOITgCCMzw4hQQAEQAAEQAAEQAAEQAAEQKCmCUAQ1nT1IfMgAAIgAAIgAAIgAAIgAAIgEJ8ABGF8dggJAiAAAiAAAiAAAiAAAiAAAjVNAIKwpqsPmQcBEAABEAABEAABEAABEACB+AQgCOOzQ0gQAAEQAAEQAAEQAAEQAAEQqGkCEIQ1XX3IPAiAAAiAAAiAAAiAAAiAAAjEJwBBGJ8dQoIACIAACIAACIAACIAACIBATROAIKzp6kPmQQAEQAAEQAAEQAAEQAAEQCA+AQjC+OwQEgRAAARAAARAAARAAARAAARqmgAEYU1XHzIPAiAAAiAAAiAAAiAAAiAAAvEJQBDGZ4eQIAACIAACIAACIAACIAACIFDTBCAIa7r6kHkQAAEQAAEQAAEQAAEQAAEQiE8AgjA+O4QEARAAARAAARAAARAAARAAgZomAEFY09WHzIMACIAACIAACIAACIAACIBAfAIQhPHZISQIgAAIgAAIgAAIgAAIgAAI1DQBCMKarj5kHgRAAARAAARAAARAAARAAATiE4AgjM8OIUEABEAABEAABEAABEAABECgpglAENZ09SHzIAACIAACIAACIAACIAACIBCfAARhfHYICQIgAAIgAAIgAAIgAAIgAAI1TQCCsKarD5kHARAAARAAARAAARAAARAAgfgEIAjjs0NIEAABEAABEAABEAABEAABEKhpAhCENV19yDwIgAAIgAAIgAAIgAAIgAAIxCcAQRifHUKCAAiAAAiAAAiAAAiAAAiAQE0TgCCs6epD5kEABEAABEAABEAABEAABEAgPgEIwvjsEBIEQAAEQAAEQAAEQAAEQAAEapoABGFNVx8yDwIgAAIgAAIgAAIgAAIgAALxCUAQxmeHkCAAAiAAAiAAAiAAAiAAAiBQ0wQgCGu6+pB5EAABEAABEAABEAABEAABEIhPAIIwPjuEBAEQAAEQAAEQAAEQAAEQAIGaJgBBWNPVh8yDAAiAAAiAAAiAAAiAAAiAQHwCEITx2SEkCIAACIAACIAACIAACIAACNQ0AQjCmq4+ZB4EQAAEQAAEQAAEQAAEQAAE4hOAIIzPDiFBAARAAARAAARAAARAAARAoKYJQBDWdPUh8yAAAiAAAiAAAiAAAiAAAiAQnwAEYXx2CAkCIAACIAACIAACIAACIAACNU0AgrCmqw+ZBwEQAAEQAAEQAAEQAAEQAIH4BCAI47NDSBAAARAAARAAARAAARAAARCoaQIQhDVdfcg8CIAACIAACIAACIAACIAACMQnAEEYnx1CggAIgAAIgAAIgAAIgAAIgEBNE4AgrOnqQ+ZBAARAAARAAARAAARAAARAID4BCML47BASBEAABEAABEAABEAABEAABGqaAARhTVcfMg8CIAACIAACIAACIAACIAAC8QlAEMZnh5AgAAIgAAIgAAIgAAIgAAIgUNMEIAhruvqQeRAAARAAARAAARAAARAAARCITwCCMD47hAQBEAABEAABEAABEAABEACBmiYAQVjT1YfMgwAIgAAIgAAIgAAIgAAIgEB8AhCE8dkhJAiAAAiAAAiAAAiAAAiAAAjUNAEIwpquPmQeBEAABEAABEAABEAABEAABOITgCCMzw4hQQAEQAAEQAAEQAAEQAAEQKCmCUAQ1nT1IfMgAAIgAAIgAAIgAAIgAAIgEJ8ABGF8dggJAiAAAiAAAiAAAiAAAiAAAjVNAIKwpqsPmQcBEAABEAABEAABEAABEACB+AQgCOOzQ0gQAAEQAAEQAAEQAAEQAAEQqGkCEIQ1XX3IPAiAAAiAAAiAAAiAAAiAAAjEJwBBGJ8dQoIACIAACIAACIAACIAACIBATROAIKzp6kPmQQAEQAAEQAAEQAAEQAAEQCA+AQjC+OwQEgRAAARAAARAAARAAARAAARqmgAEYU1XHzIPAiAAAiAAAiAAAiAAAiAAAvEJQBDGZ4eQIAACIAACIAACIAACIAACIFDTBCAIa7r6kHkQAAEQAAEQAAEQAAEQAAEQiE8AgjA+O4QEARAAARAAARAAARAAARAAgZomAEFY09WHzIMACIAACIAACIAACIAACIBAfAIQhPHZISQIgAAIgAAIgAAIgAAIgAAI1DQBCMKarj5kHgRAAARAAARAAARAAARAAATiE4AgjM8OIUEABEAABEAABEAABEAABECgpglAENZ09SHzIAACIAACIAACIAACIAACIBCfAARhfHYICQIgAAIgAAIgAAIgAAIgAAI1TQCCsKarD5kHARAAARAAARAAARAAARAAgfgEIAjjs0NIEAABEAABEAABEAABEAABEKhpAhCENV19yDwIgAAIgAAIgAAIgAAIgAAIxCcAQRifHUKCAAiAAAiAAAiAAAiAAAiAQE0TgCCs6epD5kEABEAABEAABEAABEAABEAgPgEIwvjsEHI5E1hxbE1P6Znxe7tT97pT9xq3L+eyLpGyvTr46HdfNf7rzjbj37XVSyRX5WcjkdpECrXlp682zL6xcqt/jNtL3aTJ/e7Nfz71wl9WrvD3jasgAAIgAAIgAAIgUC4BCMIwBDuTN3XjbyoRxvd97Wd3smiQKiZ31zKGFYMbzhg6sDt1b/e7d7efv7txWy0XpzJ5fzH1ZalUmj5RmdicsSRSG5kUvLPlp/nGn7IPOX3EPN8yfGuq8O1U4dvU8F55FFvfSRkebh0LkGry0MGur45vMEpUIkL3TstP06s7fQJtm99+/u72d1nz2/XGrYehCX1w4RIIgAAIgAAIgEDZBCAIwyCsoCBsT0zk8je17GCYdGvQz7IQhA/vv2uowYkf67f2uuogkSUfB7IDriumQ9to3vCTH9lEnXj7IQEl/91MWgqBAbT7mi3mL6dGetvrzCTowSDNi92z+4x/yOgcJ2pdz0o/bLCrYmZsye0xBOHfMgdtju6Th7e+duzCzOR1Q4MZDmuFVQAAIABJREFU/67fTr73Xs9v6le6vVouvWt/MgYGW36Y/D/7VMtZerS6s+fsjTTTeHukXkTHLcdnuCD08BxfEK7f8vIHyaukmB+9s0VMVXo8/D4VvU/NupuVM0DDyt+Wfkc+SWzu6HBexDkIgAAIgAAIgAAIVI4ABGEYlrxDzzvWYcJ4+OFyAoLQA9AScD72OBkefHb/SVlmQtQgE3Wm7uLtxy3VqIuowaSC0Ax4I9XXJGSq6oKw5eyVmVR/C0mybWymVPoyRVVVS39q5tPkc0JejEN16/EbTAdSNWj9/03y+F5PTfjqBFFK+tphR4T20we37Ri+SqVggMYTw/VOMc/Hd4rO1nEcQag+0fnOm1e/sQobRhAqys+ufWGME/7w/iorec+jhjWvkHHCRNbTCy6AAAiAAAiAAAiAQNkEIAjDIOQdegjCQFrLYYQw3ThhdMQ91g2yxuA3xusUhDZqiSki70QRKF7ngtCKX21o7u4fnaSDe7quZROiJhTDKkysFsetEUfxeuQRwgOZ+ZLxN5t+pU1VTlwtlWaTO5WWgxMzxH1++o9PCPGv3Pu/k4YC/Pr86dda168nV9Y/tvXQsfTXRDh9cbxd8C0eXpxu8V83+OC21sMfkomd304VvjgzzI5Twx6DfmLkXBCe8RqWiyYI1Sfa3zj5EZOC6Qvvnvwo9AihoigXr0VYIbmq50djpHr0Vhj5KBYZxyAAAiAAAiAAAiAQngAEYRhWEIRhKBE/y0MQ+hmSYY3BS3QZFHpTmq7rHpIvsiDk7JsHs0a0uq5d6veYVllpQaioG7tPTRtLB0ulL6emPiuVPstkPienf5vJ/HHPWp4341d94QKRRulTa0RnRVEeHDxDZ3h6jdEFyqRNbydJDOn0OzueVBUm4b4NJQh3/A8dVKyQIHzu8CQp5tVPjnVuW6nsOQZB6KhunIIACIAACIAACNQWAQhCd32prQfHsvmiNscn6s3SfrjcqIy6rWcknS/Ocs+6rs9qWiGTaDNj5npS8CI5jDv8SId9cidUpelopkAiLtJBpOajaXI+V8yd67JJiHWNXQPJzHRBM7M9p2mFXHKg07lKjRciRDGJVw9BqO4dzTM14zPAxRNb5N90o58gbBj52IDsJwjpTM5KC0JFUY9eohBzQ2x1ooNUxQUhjX/tc6+mZv5GdGCpVPp+bvr0ixtt7Yl449Logns69P7jZKGdp34LFITKphfevnHy5c6HaYYiCULm+fbxHQ5a/FQcIVzduWf4SvI6HQD8Jp1+b8+TzpKu6f0w+fbrW5gVVF7qcFNGqzdC2Hw0Tc05Lf37i3PHLwiAAAiAAAiAwNIgAEForwe1a/RjLv/cos2l2cxBG5df0czmQgjC4rtDSaoGSVa0S0e7xoVzPT8qrPfiUwddudZ1bTLRbEeiKEq4YpJgUkHYlOBjW7mRHc7+tSu1RXfwF4QKHeILFoQfjzTIihJ7hNCIjI496rqh/yV/VRKEatvh5HU6TmgMFV5PHm6TJL9pf5oMnV3/3+cftOeNj++dPyzXsdFkkqJEGyG050VyZgrCzsEz1EKMtfTx26nCjcN+1keXiCA8lLEeW9ND0oYnKTmcQAAEQAAEQAAEQEBRIAjFVtCcmGLDWPnx/o560uld19jaPZKjI2kOQbhpKEfVVz7Zv7ORja2pDc1tXf0nhvqsEUIxCdZlt1aIiRdjHVN1p2marhdTB5rVA2S+YrFY1HVtKtGs9qVI5vMnrV5i51v5wuXkyKGu1s0012rDjv4U04+a045kpGK6BWFTIkvpzRXG9kp0RKxCVzVQKEFo7UGi0jq1Ru0aThIjo47WwrNcliBUeZO72MfjE38rLwjX7j41PUvGBuempz8vlWamp9gM0umzfQ5ZuOblq9TIymT63FZTE65+iU2qvP7hnkfFzArHwSOEgudqCcKvqWXU9IXXyQLI9fV7/4etWkyfesyevnAWURC+fWWz/2pJIWpl5X/8M+wawgHB3mx+tFWMBccgAAIgAAIgAAIg4EsAgtDCo7Kv7Fp20DFIxof4HF181gkTBwOt2DyOqiUIraVlm0aIHNF1LXOU6K/gES2a1yYWUHOIjUjFdAhCtYuPWxaS5apBsu0Bn7co/+U2MD3gh3N+6GqTMWX0x8cfl/tn46u8MahH2OBMbphJbocHRyxlCUKly3dLzEoLwsNTTqMyX6b2qG2vpKlGnJ9OiEZlFKXphQu3meFNssRuzdY33mRjbjPHOz1t4TxweYbY3pzwNEPqYBhpyqgjrPuUx2aYwzlmM4Vaz4ym3vAa2lSiriFk9lS/flS684czb22l3cb2J6VHA7ciVLvGbtAB/2LmkPXpxxkhzkEABEAABEAABEDARQCC0ETCF2jdGHPZQvQQhFxA5oZbQ498VU8Q5kdYh5slkT/HyhFWECqVKKYoCCupBhVFWRBBuKJX/YNh2nH3GU/TjkzvXR4ilc6bja7rfKoe9eA1p7Q8QehRR6wVhxSEkqnClpNt6eNzyU/NbScIfy655dtOKIqyvvX4J+LOEIY+/OjDF572vkP2vfLYD8YmhBv/2mXejAEHXMJ5LkoMCG+/bMVmU4OGp03nqDEbz8muUQWh0vHzfxiF3fyPiVV+M1FpDlf891MXDIO3z77y3ysDNaFS19jW2rjOXjacgQAIgAAIgAAIgEAQAQhCkxAbeym+6+6WevTC1b4U3wugmM+M9HY0ePd6eTJVE4RWP54mYY1blisIIxXTEoTm/NtC6oBjxJXDWEK/x9YP391+/u5OsuHEzjPza+o8h1nYjFAKXD1qjA+SCbvmTvR9F42Jx8tCEIo1RATh/NQropv7WH2ql+/Vbq7Euz5zsneHc/Tv1fENP803/lQiG06UNs4N/qzeHZuHiyXhQmw74RGH5cxiu3VMotAOnbxuLIz0Vp4Rp4wqirJv8LEfSmTzidKvfppvvDPuJGPlTFGUxk+bzpPdCCfubT9/d/sf/tt2FScgAAIgAAIgAAIgUDYBCEIToc/oiocgVBR129EM14RswpahDNu9bHUqfKe4iq8hFDY5CCUI1fqu/nOp7OV8cVbT+D82TMQnQ5poIhSTC8LCDbYaM3di6atBRVEGN4ySbnfq3u537z4z8Kn6iFl614FoRJSMEmuXRsbIPF26UJMqcHHRphhFeSOECztlVMy38mLKWD04fcLmaDt5cBufMvpN6u3Xt67fvPWl985zMy3pt1+1rcRLpDYZq+mMf1t++uoX1w49YIvL92ThBCHTe5NvH/LIUHRBWL9z9dznT/Gyb/sh5SsIH/nL4wM//o58pzDWEw6kPfIBZxAAARAAARAAARCISQCC0AQXRxCSwHWdA8ls3q4Lb6T65CumWCqLKgjVjpM5yyahNVmQH7kEYYRickGYPGEtHrRveWECX4IHW1dsSm88YyhDnymjCl1UeTPZpSj9ZB+I7KDa/haxyUMsi1LJ51XFZQlCvkC0cL5Dhs+nDRve2WRXPStdwMauWkPNshR83NT201+QBYQzx9rprvTE84Pb9rxN3b9NHhNM3dKYtjatupjdSNTRYk8ZlY4QMr2XGt7rUfKogrBl9Z3vt/3rzq/+kXro4EaPOE3nFew7xbOvZh9+RDJ+aXrEAQiAAAiAAAiAAAjEJgBBaKLz6Ux7jhCagY0DtaHr0GjW3OuBryiz+VkCI4RqL5voqonGUY1cVqKYpiDcrTQfYaOn2vRIR/BkWjsnydmCrCE0VsF9+gwxKrPBa9IoK2M2ofQTezLEvuhzY6Tm86NtbKPCaghClQ5O6lpGPmDl04ZJBY/TzxZVEYR89/n06Zdclcc3c//oL1tc1xRF+dm1L4hRmfdXya5K3BZuhPC1M2Tia/KY3GhwZKMy+8Z/aajfkEZlfj3fEdKojAQSnEAABEAABEAABEAgFAEIQhNTB+3R61MJh3gxFZS104AZSHJQ15+mw2/SbjfrsnuM8EiiC3RyDezQJDzXENJBLdMGqRB/OEHIAngUUxCE4gaGxgYYQkqxDhdKECoB204opiCkuwIy5d9OzTzmz/UTQ6AWf0dhyxgh5BVUTPU4ImWniykIuUh7s9dx/xh5e+EC2aKwMPWCNONLYtsJ2Qjhjv8hBnK+OO4yNMXLEXGEkE2Uvca2teexePxuL4XddoJ8kGpuaw6xjNkjLTiDAAiAAAiAAAjcrwQgCK2ap7ZAdC2bELbPVveO5s3plfK5lFYM9Kj1HN33QSoI+Row+fihM6ow51EFoSlI7MZz1NaDfCfCcoppF4SKonaNszHT4qWjZWvCMDzK9xMkCNlmgPlM2hhwM3ebYLNGb2QyNw2bMsnd8pyY/Dul1xlA3TXA2Nx3kZLUvJdlLqog/AvdtW/ywuAaR8ke3H+criT0GCFcKhvTOydlNr3w3tfESuo70oFNUsolIgjVvpTR6nS9Znb7dLQRnIIACIAACIAACCwaAQhCAT3vi2v5sZ561ZgCOpwtzum6XsheJnPt7EqpdSCZOpfo29naTLewVxRlXWPHoSQTkB6Sr2eCTtvT8uP9HWZAIRdRD6MKQuZf13Knu8h4Ql1jdyL1sal6dcdAaLRiOgWhMUyYmGKRF8ZrYjlhkCDk835JB9zaj15pGyVfAqjJ0fyI8FlBrNOoglCtb+4aSOZod1/XtUmfsdbFFITmBgyFb4293Z+sJ7ZS1j/W/trxNJFVBdkaQkomeIRQXfNkW/0m/q/zPSo+U6cPmo5PPCoZmRTBex6zsc3bJ3vbHzY9rW5//vQMWRL5xfEdtphXPrrVTLR+08HjH5HBz4/e22Fmj5XdjEs4qNYI4UumwWNdx8b0AnAcggAIgAAIgAAIBBKAIBQRWcNZ3L6Ksd97drCZiSi7IOTKSvBrHhYzR+VGZRSlKZEVxJcZwiHDxGz5H0cVhJ4ZmM1nZLo3WjElgrDmNGGgIKRLB0nVESsyvIJaqSIkF8TxYT7V06ps+5Fox4V/lbD7oGdafrzPd5R1UQWhsvLpU3wbejpB1Pa/08ooh2b8BgtCPhBnbmXhOvDeGUJMSXbMJ7sS+ffN5NXb6atMwU4Vbp/p3eawArpl+BbxaSudzeUj7xHFagnCTeJTRWx7sgLDDQRAAARAAARAAAQEAhCEAgzjsK5zOFvggq2YzwztMraQkArC1oFkLl/UZrlvY76WphVyqdM9ARvVr+scSueLs/Y+v11tOrLlcxpZEBq7ZfSPXS5oxuCn8afdzGdInitQTLkgNKaOcqujWu5kJUzM+BAp91KgILQEnmNvCT5bWNdtljwt/4y448dfENJGda6/M3jP8cUVhAb31e3thz84/9HtSS7YJq/fOv/2O3t+QwcMPapmcQWhYgxjHjt7NXnVnu2zb7Q+aRsbpLlfkoJQUVSyAwppWRCEHu0MziAAAiAAAiAAAjICEIQyKnC7rwkECsL7mk41Ch8sCKuR6mLEmXif7L4Y0qjMb/8ewaiMOZOZbIiyGIVDmiAAAiAAAiAAAjVJAIKwJqsNma4mAbb5W1vPYDVTQdwWATaRMuRmDFa4mjt64PKMscHGv648FCLrDeof7hqCcORTx6RVeVi28YlenPCwQSsPBlcQAAEQAAEQAIH7nQAE4f3eAlB+N4GH95OO+MSPG56W7v/uDgGX8gj0rv3pzrZ/3Wn54f1Vdgsu5UW7xEK/+uYTpJib514LzFnDyq1a68S97tS9Z174Q6Dvul1DWWasymYkOTAgPIAACIAACIAACIAABOESawN+NkUcK8/89jZYYqWqtew8km48b/TFu1P3dl24u/383Y3baq0INZbfBy5ONxpDZ3e2/av0q5/mG3/KhhlDq41Cvjq+wShRiZTuzrafrq2W7zhCS7Ntfvv5u9vfZc1v95lbD6/wK2bHubxmrmKezY0sYz3thwHXQAAEQAAEQAAE4hOAIIzPriohIQirgjV6pKuOPbb/78+M39tNZGHj9ugxIEREAq++sfbOV1wWhlxlFzGJRfHOJsTe2fLT17+ce2Olc7dDR57oZvSpe787/2PjC39Z6asGTXtXpl0oR2Q4BQEQAAEQAAEQAIFAAhCEgYjgAQRAAARAAARAAARAAARAAASWJwEIwuVZrygVCIAACIAACIAACIAACIAACAQSgCAMRAQPIAACIAACIAACIAACIAACILA8CUAQLs96RalAAARAAARAAARAAARAAARAIJAABGEgIngAARAAARAAARAAARAAARAAgeVJAIJwedYrSgUCIAACIAACIAACIAACIAACgQQgCAMRwQMIgAAIgAAIgAAIgAAIgAAILE8CEITLs15RKhAAARAAARAAARAAARAAARAIJABBGIgIHkAABEAABEAABEAABEAABEBgeRKAIFye9YpSgQAIgAAIgAAIgAAIgAAIgEAgAQjCQETwAAIgAAIgAAIgAAIgAAIgAALLkwAE4fKsV5QKBEAABEAABEAABEAABEAABAIJQBAGIoIHEAABEAABEAABEAABEAABEFieBCAIl2e9olTlElhxbE1P6Znxe7tT97pT9xq3lxsfwoOARUBddW1m43evP2C5+B01H3ru1rWt3av9/OAaCCxbAo/WTVx7caL7Z4tfwPq21d99/YvJtjA5Gdwwarw7dr9795kh7bENW8OEgR8QAAEQWCwCEIRhyHcmb+rG31QijO/72s/uZNEgVUzurmUMKwY3nDHe5fR1vv383Y3bQhYnkSUtpTjeGTLAfeutc5y0lJvJ+46Uuura57/6151t//p+/YVfBtZ/86Hnvrx95Lvbh2+Nrgn0DA8+BJb1vam29r+Vzd/UyOOH/DerFSf6vXDU7RpKTRe0Oe59TtNmcyOhdI5XlNVzP3DhwHfGLfCfE3tWREhFff16qVSam9gTIUyA1wcuz7SQO/cXF1sCvCrKsfXDd7efv7uLvEe6J+42bq/pl2JgeeEBBECgtglAEIapvwoKwvbERC5/U8sOhkm3Bv0sC0H48P67hhqc+LF+a2/EOqhgp3OZN5X7VRA+cPEaVYNh+pTqnl/fompwrE61NcVB+uUh6/ONqvVc3ujvfzzSQEOyIFwDuH7Fh1JiynV5TtMKucx4oqvenhOFPx5dIewO5kci/3uEXRUzYyt4/BP/dKPE+2widTlf1PzgR4mubL9NieysHTY9k3/BVLvOF2S+zQoqOz9hIojE8MHBD16Orgn/NF0qlWb+vNE3Oyuf/H/7z15PXf9mqvAt+fd1Kv3h4b3tD8tDqav++lV4TUjiWHWSfV58W/OIVJ4UXEEABEBgIQlAEIahzXs88vdrmBhMP9Xr7phJLOrBchCExx4nw4PP7j8ZHWXlOp3KMm8q96cgTExsNEYY7mz864vBjau+/vKtI9/dPvLNBw3NTt8hBCEjbD61yhSElobQcic7BFHIH4+WB+mRqTf875HqNXv/dJ2A/c5DwPcLXuFr6tFLdGBQy53ra19HY69rbGvt2tUuSeq5MSYHb2QSextoPar1za07uzo2SbxXyykiw9V1E9cOG5rws1a/udPqgczMlVM7aalenZovlab/REqg7jx1ZXbqv4Rmazg/1vthmulAqgat/9MXBh+Tl71l9XffbzPu4uurw85uWP/pM8Y44Y8b2LcZecRwBQEQAIFFJABBGAY+7/GYXaswgeR+qtfdkae30K7LQRCmGydirxusXKcTgnCh22710+v6+Q+GGmz5x3iI5VB8VOTWc4ckqwfZjeY3SOUUhGL5WHDdayCOjRAKE3rrNnf0DafyfCSqMN7l6Fyb0bN0da+8+d8j1XtC+qdrZj/EQUQxEyLGcrzwcl3s86oRMfYONjyYH2kSnRf8ODrDLY03jNHyI19eWOdV0Jazn5WMv79dP7t7rbI3NVcqTf9RUX9/anqOuM8mdwoF3XQuSdRg+sIb7U/XrzSuqGue7O658AUdLXzzZQ+FXP/y2p/IjXznbMhlwOlGrEUXyOMQBEBgCRKAIAxTKRCEYSgRP8tDEMZ/efPOWQXWEFavZxy6NqvpcTFGCFsOpmdnLx0MXv5DCt7Sn5n9PBPWdzArvgDpq5/7zPPk0aj7niVLB1++fOxB7ib+hrjR+i4aA0fy5azRBSFLXO1KsgGm/OhzYoasYwhCi8UCHAVVpSMLbqnv8LBAp9EFoaJsP91FJo7umxB1nS3D6597ZWJm3lB/8zNT1+dKc9OXrpPT0tyVs72/EZXkluFbhvC7+j+ucdQ9xz4iQ4UXXrPFLZ68fYVP/P430dnrGILQiwzcQQAElgoBCEJ3TaitB8ey+aK14H6Wr9SXjRCq23pG0vki/3BuTJaa1bRCJmEt0Od6UjqRynSURe7OnNuFdr9yJ1Sl6WiG9tWK2YTx9bf5aJqczxVz5+yf89c1dg0kM9MFzcw2WSCUHOiscydAXEIUk/jz6Keqe0fzbFoTzZtHMkvCOfzLu65zOJUr8Oah6xpvKtJeeN2uRPJyQbO8G/6L+bEeq9RVbSo08tyQqjQfyRSIPYniZMKYjGi1nNzoXrHPpKj1HX2nU7l80cr2nFbMZ0b2tdr8WUVQQhTT8O0hCNWuc7ylTJG8CTGXdbi+N0k7isagwRNBUa3tHee+r54I9B0UG7neS0cVfjV3NIT3B1//kEyQu9LkYd920whZIGjOw5TESbv+0qaoBKkIP9nA5xwWJ4SWK6S/NARhpe9NTsx8YEsPvEZcBTwBh+z2Mc29zBZyE0OdbCKoLCzPWMik/WrWHn3YZz4LZbw3rYcheUoM7bK/T3hWpehMR5+CrF73/mdsErXf5Eu14cVTV+iYIJGGn6Ve+e1ae+EURXnhAlF9H72zxXlp0/40FYQ+S/1b1DvGIOG2H1JkaNEZheM8/DvFeDgX53R9rpgddE0Ud8SKUxAAARCoHAEIQjtLtWv0Y6HDbr6j6IFLszUPZj18ix21qvbyWce6+O4Q/3Jv5FW7dLRrnH3JJ3m3fc7nPTZH8UhAqhDsVMIVk4Rhr3yx+IrSlGCYtNzIDi8dYU9yMc/Cvbybjmao7VkJRfewjJchB123zayralOhkReTJ2wtJXPEHPNhLUX8YM66j7IyFs7bvzIYVRaymIZXqSA0W5o2PSIuUyuzOai/OTX9NzJnrDQ3lWgLaIJq26krdFChNDf1WpDvsFm7cGWzse7oi58fDBHi/zYTWzL9k4c8zSrSAWT7jWaPmdZd/qSs68y75l6db1/Z0DDyMWkQN5Nd9hTpGX+8LN6U0Wrcm5yY7Faw3Lx4yji53ep6bA9tK1p9rpB8yS6uzNA8YyGT9q1ZM1LFvBOFTNBDWZNTW4cm+ZtQ08zvYrqu254SPKuuOG0OvgXZPvoiGSTseuvXVmZdR+v3nPpwlt3DpfnZD0/tWe/yo7Sfvk2mht447JgZ+uCrJ68bgjB9er87lOXC7ujv179tuXkdhXunGKH7MxykrueGHDnzih7uIAACIFA2AQhCEWFzYoo+jLX8eH8HNaa3rrG1eyRHR9IcgnDTUI68yLR8sn9nI3tdqw3NbV39J4b6rBFCMYnKzwOk3S/NGMEppg40qwdSRhmKxaKua1OJZrUvRTIv9gs738oXLidHDnW1bqa5Vht29KeYftQyjh5rpGKyV77QaTAt4M0VxuyjTyKXpXQc4uVtTpybK2aHuxrJ93u1vrmjl2kt57DMSymyx4JenBzq2soMOSjrGlt39iVOH/WwTFDxpkIFIWkpN1N9TSqbUnjTaCnZQd5y9PyI0AtJXCrm06OJ3o5mZluyrrF7JMe6LPlRRyOPUky3ILT6oDfG3FozdgsxZn5+T9Tg366f/X2AGFRaDmY+p9Jx/vqfmXGK2ElbAdXV35HxhH9cCLF6UPn3sX1Gr/fWjv+SrB5kkTqbh0rn4E0Pcf3HZJu8e8275vKriuIvG7repc3Z1lTMwi6yIFyAezPOdEcTj+dBO7UKq+vFyZG+Z8mTeV1j13DWGC8yPvLlhviqP07YpqPcJ7xyWVNxe7C5COtFlUjPfEXtu0jbQyF1kE8cUFv7L9I3ipY5JLvp4jL8dRNdSXjjT9Kp1GrbKxPX54z7fX7mysx8ae76FJ9Bmj7hkIXt7zGLMlf/93lTMD647YULXxOhOHM4YOvAo+uJgajG2Zc965Rf+MtTF0KuSxcry/WA5dHhFwRAAAQqTgCC0EKqHqLf5ozOseVqHPFxG4cgHGB7zkXZc8/ZjbMnFOfM7Bxol/qNFy+bS6brWuYoeRHTvp1ToriTaqKT0HTtYp/tYqRiOgSh2TnTC8ly1eCe1Je0p+79/5epCuw59dDVJmIR7vHHbRjEE951cxeK1a+DNjfk4DVmIsZtHle8qfBmrLMuWsNJMuuQjCfTlkIatCDmzbzYD9Repm/FrwyKokQqpkMQqnv5uGUhWTk1aM38nJ9J9pqdPntxzLO1+/is0vmZ5D73HDPTY/QDZoViUxjjosqDb1wx5sV99+FTsp40S5zVJu/0m6YmzVEFhwd7nssThOoJ+ilM3lT4E8mrtcvvEZ6/cpv9QtybccUML6PsdxObRmF8xbNfV/fSzV11c44uJ2wTdO4T3jYYUrcHm4soCCM98/kU4vxJR8ab2UjyjTFx0gErXGyGdRNk1uh3H9TbMRlnLWMz/NOPaVTmT8ra3Wev0wkCnydt617VrcdvUPsxU4VbJ1/uXPPkweOTdP+Jr988vCNoLqi6ms0anQjyqTDL1W09PpNQaXGsSRbFdD//uOMuKVxAAARAoMIEIAhNoLxHJXl78Z60QxByAZkb5p9Fzcg8D8rt7rgj5p0D02ocSyJ/jr2FwwpCL90bqZiiIKykGlQUZUEE4Ype9Q8/GvvRn7m1ys2aubSP3TC6UtolqrhFfwy+QxCyHeH0Yspr3pcYBzuueFPhzfjjEdZxY30yczoxTVHey7dnsALFFAVhVdSguvPsJ2zW2Gw60DSMuvPPzPhEqZKGZBi2HWc3kMGEX1y0c5SfrXuf7Dbx5diT5MnUAAAgAElEQVTP5deJK6tNY/GwMVf3qDnTLDdMu5HUg0dtlicIFdZy5JHzJ1KAILSpEdcJFzM+BKSXFuTejC1mpFkmjvzrTGHMJllogIahaQJoNmX/VkeuBlWlI03/sV/mOcozv2eCDA/K8sY/HMhGkuMzHPyAfC757Nf/7iiacR/819Ssue0E2YfQd9sJRVGfeOmDlGPniaufHOvkg7HuJASXlX/9muw/cc17IJ/7XvnCP429bS/88/HGgHFHRVHqNrfyyTs8PH5BAARAoMoEIAhNwF1JsiSs+K57XQzvSTsEodrHBkp03TCz0dvB5wKacboPKt7Ld6/FcnbryxWEkYppCUJz/m0hdcDx5diNZdFdjq0fvrv9/N2dZMOJnWfm19R5f5xV2VRh1he35V2ulBQ++mosqrmcTHTzCca2sI6TijcV1owtsUr7ZNbIgLPlODIknFagmJYgNJeYFlJ9ofphQka8Dq2ZnyEWDSqG9VE67lzBRYNi1hKpTYYg/PrREPZFFaXhMjGv/8lxzwWEiqKwGaG0NtUjhh4ks4HNnejpXHG5ZivLqIyiLF1BuDD3ZnwxIzYK23E/3UvQuhltV/kXJcMilPOvGoIwwjO/dZTOM3C8HGkuWd60VK8z17wJeX01cPm3HNiE6tsdQaNtdGP684557VZE5OixzrfPfGTuSk9syRS+eHP4gMcmhPbQF68RQfjVz1+1u0vOVvSu+cOPu4j96l0X7m4///f13jNQJMHhBAIgAAJVJgBBaAL26OMa1z0EoaKo245m6OoJ/oWbKMN2j+X/ilKFzeWsjjUrirNbLxWEan1X/7lU9nK+OGvYAKD/WCFcr/YIxeSCsHCDrcbMnVj6atDo4W4YNdZ4GGOD7959ZuBT9RGzYbgO/Hpgnq2o7qUxZj2TUp7TDGXIN4Z2pVGNphJTENY92zc0nskaNmmdTcXSlrwA4YvJ2m2xwKy0CkukeGRxf3/Zm+Gzi6//aWNQLE/0prlBwk9OBPoOik1+PZYgvHxMHhlzFe9rIie0zOkx0jmnAzK0KcoGZxSlTEHIR37kajPkCKG78ZCCsTvIOUJIOveSyeKOWeILc29WQRCygTvXs5dVNktRBtyvyJIGxBLyUJ5mgNDPfP5ynLMeDsKDgr1SnLVpfVMoQxDuDBCE6uvXS6XS3IT3MoL1rcNsymg6/c7zmzbX73jjJBeHk+lzW6WrFE1EiqIwQRjqQ0/Dyt/Ot7x9bzd5yxib1P9SjAnHIAACILDIBCAIzQrw7Mr7CEISuK5zIJnN23XhDa+xDo/ujpmL6AfRBaHacZKbBeE61vYr75SEKyYXhJYpy0ouCYtOJ1qIrSs2pTeeIbLQZ8qoXw/MpxUpitrac9q2TYUx7/SylznNijeVGIKwuW9CtFVrayaee9yFK6bZboe4ZUWfvc6jVaOxmCiSbRhrhHD+k7OVsyRj5ZoJwvm1f7bcvI/YCKGH2QweLjFpVAeZ0UAtE2YTKpswSdZ20vbj0eH2a8NGAv6ygZojshvI5dky7cfazOdaV82PYktHEBqZC9doWTHuA0FIShrmmc8FofPZIJ5rmUNiAyDH8Rlyk0vPuSN1peLn8NjhT8gCwq/P9G4TFgGubz1+fZJMIp18+5DgLouKCcLP1+yTXRXdVvz27x2pe93j/9zw6z+s8Bv5FwPhGARAAAQWjgAEocnapyvP33lypcRjUBu6Do1mzf6zZe6PezB+K97Ljzxl1LQIYjOOauStEsU0BeFusp8S6RVUaAuBBVlDqCjK+k+fIUZlNnhNGt05RitZ8tmb169HZ5e3hHXtfcOpHP+GYNqK4Jfpb8WbSmRB2MytztiMoxq587lZhEL4FtMUhJ1K89FLlIWWO1m5zSaENYRzU68FbUYvrCEM4VsoZKjDfeO/JGsIn5h0T/lzR7Bhkq0h9J5pYO3bMZVQ6Iov8sBpf4u0zfxoKzMuVQ1ByB8U+dFWd+arJAhlCUncFubejC9mJFmmTv4KnE8ZldVmkLZ3JOmfkMMzO/V7tfHG4P9ydMcbn+HgB2SLzmtbf++ONYIL333+vdfXOEOpz79NDY1+6D26aIRZ+devyJTR6YecMTjPe9ePGN8ZQxiVcYbEOQiAAAgsDAEIQpNzB+vmTyUcfTZTQemh3nl1/Wk6W1L28uY96cL5DjPhMg+EjjWNiXbWrclFtAdgShS2WIXbIBVSj/Rq9yimIAgVxdrMym06T0g35OFCCUIlcNsJTzlkKahxj70kxLKqraN8PzeZb5ZK5ZpKVEHIVwdJzCx5EhDLx449imlvt+aKU7eNX0mUoZ2WjJXRCBbqFeWht6iV0SuNXt8kDAAM4FSCjtcxWzLM5GN+9BAxTek1MzBIRfjIhga++Sq3XuOsDZaxyo4QOhPxOvdsmZW8N5mYKYzt9MpGZHcu+aRTfLlRGakCD6pKR1Z8atbh03Uqf+bTkWrdq6W5YmEOsRmuGb9GjMrIrIx6JSZzHzxDhgFTw3vdV7cM3yKDh7eO+VqAeYjuJfNDsJVRtiShcbs7LbeL2rC1lW/z474KFxAAARCoCgEIQgsrmwelZRPCPmzq3lFr6VcoQajwV7tUEDLTNbp8/NDKTPgje8faHL3xFIRmh8BuPEdtPch3IiynmHZBaOxUzicEFi8drYnVhEqwILQ25haFXPMRaz2pKb/969HXkkTFm0pUQcg/EFx2WLKo6zzNphyXU0xnu7Vs0hYzRyrZUpbUPoQ/pAImoZEGw81m7Bz0MV/IFvJ9nCHNztxtgs0aLVwizl7d9CAVYT4lxBZuzKzcwXehvOm5O8iiCsIFuTf5PhBektj/rpdf5Zs3FC/2eX2RlCcXVJWO5Lxq1uFNeip9tVGDRnQvU2kouWNchvWNvvsQyhOTub5GBeHUR+9scV5u2p+m1mX8RwjZXjJh9iEMLwjVPmq1VdcL5yu3/46zhDgHARAAAScBCEKBCH+zavmxnnpVURv4psCF7GUypc2ulFoHkqlzib6dwse8dY0dh5JMQHpIPmakW9fy4/0dbLNvIQ/RD50dazYI6SkIeXdNy53uImZR6xq7E6mP2V7jxhzPcorpFITGMGFiikVeyUVi0UGFDhE4QqiYgyTFS4n2dYqyrr1/nFS7ls2SQT+HUuo5k0me7u9qa6Vb2Bsd6/pmo3WRKbUeU0aVSjeVqIJQZX1HvZA6ROwkqQ0dvSNZYoyXrhAqp5iudqsoprnRCuxaaatt9TenpulGZKUQRkfVtlNX2H4VlTM6+sDkZy3GrFF97bAta/KT7rYvDUOjhz857mPXgo2xkKoQnjas105Njn48Ih9k5M862bRnI0su2VDXuLNvJM0MAOlzhTHvbUX5E0b6Rcz8YqU7Gg8HwYb4vDLGvXn+Lsi92cPsS2v55KEwxqU9cytcUNnnIWNj+qGuzcLG9PRmK4w5xDkLG1SVQhLGoatmHdeN04ivtk42uUbX8hOJrq3M2LZa39zRO5SczOfekmY8HsPtoy8aW3Te7nxdsg2hpCjeTpv4BvTfTqbfeX7r5ocNr+qap/fvv/AF3ZwwYA3hhSubQ9/R4QUhx2JUOjam964+XAEBEKg0AQhCkag1nEVfweR/Yw4b6+LYlRLv9wh+zcNi5qiXAX2r12v6Jgf2yMVs+R+7Ota0R+UpCIVutz0Ds/mMTPdGK6ZEENacJgwWhKLKtSCSXjLtbzk6u1xZWX7NIy0/6vkduMJNJaogVKztAc3s0oObmYxM90YqpqvdkmZuFbmQ9JYc/neE/Or6Xr7rfGn6j0/I/Viu1lzT0tUTgb6tcN5H9a+tJ8sIN8+95u3JvLKazYu71uw9yYxtFmdUCbEiwwO3sY0AjAviU0UUkI4KJaeiBvOpSv1mdmiHYxCLJ01++RNjcQThwtybzXzerAOkyNAGJcyJ2iVMR7FH7GmlLNhgrCNlVrNeQ8e2GrTngZ5JX21NTmvbYkivSe9xGNa9T3al/yb1pF8LdBTZ63T9Ab4NPR0PtP0fZGX031S6K/0/LvzMK37BPbwgbEhMWh9ny2pOQvI4BAEQAIFAAhCEDkR1ncNZ/hnc2F1waJfxpZZ1ccTeFfmMmssXtVnr8a3PaVohlzrdE7BR/brOoXS+OCu+NO1dN0emfE9dHesgQWjsltE/drmgzbEMaDfzGZLnChRTLgiNqaNJZm6nooZDfMnEvRhGEBpmCfvHc0XK0NhDYqx/m9FHof0thyDsOZPNFTRNrPE5rZjPJgc6fe2GKEolm0pkQWhskbxrKJMvWk2lkKN5Lr+YrnbLqstSoVpuxFd4RK9fw5ro7KXATepZxMZc00puUv+za5+TQcKvH3UuU5aURD3w3DfGSEi/9yAhHxrSdcfCM774s6KCUJst5ieTQ/sCnm3W03Jx1hASlAtybzpuDfowLbsHbxj2zJlvIF03XijDdCqHpJUYTrwZhEw6jCBsHUhGfrVxM63ms0KnDabXZxMm5+MliGHzn3aT4cGut/6vB4yozg/Wb33pnTOTt6lZUWNg8Prt5Hvv7d/RTgYMvaP78+RTxved79e/HUqZhheEiqJSo8EGjJB16p1NXAEBEACBsAQgCMOSgr/7hkA4QXjf4EBBK0Wg/sVHf7iz7V93Wn5IrQqe8Pbg6x/2G93fWzsHXYucKpUjxAMCNUNgy1OfcOu7oURY9QrGb+TNd049EC6VwQ1vGlZGwxmV4dN69WJSYvAmXILwBQIgAAIRCUAQRgQG78ufAPuaCxPhy7+qF7yEidRGMnF0019fDE57S8Nl0gP+5sOnKmllJzhh+ACBJUZgdd3ENbrbxK+7fSwtLUSuW1Z/972x28RP11ZLF0dK8vDI1RZjK6N7T/1actHlxOxC6cVUj+saHEAABECgSgQgCKsEFtHWMIGH99/tTt3rnvhxw9MV2x2khnEg65Uk8MDFa78yNGGpPoQmVPf8+haxLvPNBw3QhJWsBsRVSwQeHPzg5aUxWq6u+utXZOL3V2EmfhPGq46t/yN5oVyYXxO4Jf26zqFJtilrdkBuEKqWKg55BQEQqB0CEIRLrK74ghC2vC/gx7Ics8SKUePZeSTdeN74oNudurfrwt3t5+9u3LbkSsTW4AW0EH7Z14bEkivb8s6Q2aecf+zPwSVtPraTLCY8fONP/yfYN3wsBQK4NytaC91j+8jSwf+c2BMoqCqasCuyBy5eJ19zvv/FxRbXRafDsfXDxrtjF3mPdKfuNm7f7fQinu8czVv2CJb+Snsx6zgGARBYDgQgCJdYLUIQLpEKWXXssf1/f2b83m7yOg+59mMh845O50LSrnBa6qq/frFx7rWQC5Caj3XcutK02DPlKoxgOUeHe7OytbvlF+9f6x5fbDVolKl+p3rnqzBqUFEUtvRg97t3207OP7bBd4t70zjQbDGfHukh9skqyxCxgQAIgIA/AQhCfz64CgIgAAIgAAIgAAIgAAIgAALLlgAE4bKtWhQMBEAABEAABEAABEAABEAABPwJQBD688FVEAABEAABEAABEAABEAABEFi2BCAIl23VomAgAAIgAAIgAAIgAAIgAAIg4E8AgtCfD66CAAiAAAiAAAiAAAiAAAiAwLIlAEG4bKsWBQMBEAABEAABEAABEAABEAABfwIQhP58cBUEQAAEQAAEQAAEQAAEQAAEli0BCMJlW7UoGAiAAAiAAAiAAAiAAAiAAAj4E4Ag9OeDqyAAAiAAAiAAAiAAAiAAAiCwbAlAEC7bqkXBQAAEQAAEQAAEQAAEQAAEQMCfAAShPx9cBQEQAAEQAAEQAAEQAAEQAIFlSwCCcNlWLQoGAsuUwInpkvE3/adlWj4UCwRAAARAAARAAAQWkAAE4QLCRlIgAAIVIABBWAGIiAIEQAAEQAAEQAAEKAEIQrQEEACB2iKwIIJwxeD64R8bt+8ORtOy6nL2lz983/SvO9v+dWfTX7uCQ8BHWQRW/P7Qrz+5duC720eMfx80lBXZUgr872P7SKH6v7m2+/3ja9b65y2R2kSa3Jafvtow+8bKrf6+l9NVddW1mY3fvf7AcioTygICILBwBNSfTV7b9N2pn9UvXJJeKW19uPefz/Se9Lq8kO4QhGFodyZv6sbfVCKM7/vaz+5k0SBVTIboSNcGqMEsqftlVKKqcU9MLcxtUn1BaKjBu92pe93jpTWrfHm1rP7u+22kX77tX983/jS/4dq/+/q/Hy52p+ZKpdLVE1Up64rusf9kUvB2/ze3+r5JPVmpdF648O1Uwfj3Zq8qjXPL8C3Dw0fvbJFeLtvx96f3GCWiQvf24W8+aGj2ifPV8Q0/zTf+VKLNr+Wn6dWdPr6XzSV11bXPf2Xccd+vv/DLsKXqHCfvJT27LF/hdbuGUtMFbY48fnVdn9O02dxImxyOuq1/bDJf1LhnXddmi6mDcs9wrXUC7KVs1bau30wutwcF66RFuLtfeHMDeWv/KuJ3pRdTXxqrVSr5btuibU/d607da+0ZXPTGBkEYpgoqKAjbExO5/E0tu/hVH6bg0f1AEHoza+gdzUwXtBtjy+1xzIu8XATh7kcHmBp89BFeNvnvA5OftZC+6ROX97h9JOi3hOyA+xJ3aRvNG6/q/Mgm4sJuH/HtbTsujltth/dxbR60m/ncxEjfs3U8AfYr9WwLSU7M+FlVenQdAip6ryEI5y8F9THXb3npnTOTtyeJBpsqfDt5febN069vfVQuxlhButu+NPTS4VsXHv/Nakchnacrnzx4+AKRcIVvz/Q6r7rP93BB6OU5viBc3dlz9kaalDQ1LGkq9sz8bB8Tvfvf77ZfkZ4Nv7+RdG6emg1RSGkMteP4wMVrVA3+4mJLhFzz9h+hy+gRe0PfuUyuoBXOW3eih8+FcVa7zhfcN7LXN9nmwaygBK1wC9shWe69oIWp+XCpHE1r2iz/Rz8ZeDzVw8W3sL6eTaQu54ta0G0bXRAqipJI0cdmJE24xxCEf8sEvdse3vrasQszk9fZF8ap67eT773X85v6lVJ8K7aXfrc0NCEEobSCHI4VFIS8jwhB6GC8ZE8rN0LIOiU19DiOWCkBOiFibN7eqztCuKr7x92pe90TP25oCJyM+NB3xjTRljtvSGevhbjZmQLkL7yyBaHZxStM9ImjS7xDbF6XH8QXhC1npz9LHaR99GfHZkqluQmqe1oOTsxcH3/OUZsP7j08+Q0djnP9f+Pwbzw14e9HyfDgZ237HBE6Tld39rw9Y0rNqXCCkOm9wrdnXnJEx07jCMIHt+0YvkqlIC1pCEGoKMrq8WvGhNgvx5zSXpqzn137whgn/OF9/+FsadhackxM0D7cxr/+//be9Tmu6k4b/VN2SMgJ7AMI5FwlTDRDLDOxohdnONZ4UPC4MUSMojLWyDjiNY3HHWNaCcgx8qvQlNKeiPYrqoVocWnHZNtORzAbeXZcSZWr8uGtypepfEjxZWq+nK/nrOtea+21b61u6+JH5XKvvfe6Pmut3/o96/Jbz+TLtmj/oqPlC6365sqA7Cnqt01wPzHH6eCVWvFwP+s3bt/g0MHCCJtjUvPkTtcYHVxrzI7v5y2rd2BouDD6uOqv2+4MgrHbWbgj40+e5tuKkGRkehm9mSWUs0tfX0qaXdr7+ntXq5PMxzAZ2z6t8rFtsnr11xVzbHMfe/lKZFBjzPBG5eXDVk7Yf88Y1TqqWbQOsxgdfAYhzAImCGEWlKgfrBDGQwVCGI9Nri/dJITfuj60QPZv7P2nf0nP0w/u/0vSuUEuN5Jm3w1CqCXJ1aY41TOq47p9g4Wp2Trb3x4E/nJR5YRa3IJ5xuUtWXWIMv9jl24Sw69/XKsdH3YdUkFrbx109h6rXqXvb66eVnf3uf/4xmdkyLx8+eVnjzzEFvruffQ7h39xgU2pvv/LIS234cOpt4+nnBu8d/TQzIecgF2+/OLrH7KxOW7RL4zacQQhvP5izHm8fITw7n1Dx9+p8vXP3712hruzEULn1Nt5Tkhe/IhuHP0obdFULe62cxdYd9v75/kv5s17tLPkjUH431qEcIQvDzbLe0QGE35P8uMP1Zgt0QlBO/oJhLCjcGaOLFmqZ47mNnrMyPQyeotm3P3yWkAl51U3dsX/aI2OYbfWFl8gY9v7t26tVcjYtiDGtn/9uhLxlw7/bzoR+dmFmZeGdu2iX3Y99NjUi4t0yPN+9/J+xbfifOqhElE8jrzh33OX8vr2OkEIs+ANQpgFJeoHhDAeKhDCeGxyfekeIeRC+anXrmdaaik8kIUQxjE6UubxKpmyty8a5yaEAsTB4jJbCPBrUzFrbZ0mhI778DMzq+t/JKxw/Z3lq7duXb1UW6OPNz+unX5Ks49y96nXKE26cNxcxPjS+DLlb1ePx1CyVJokxuMb1Tde+c69jsMjzLRl9L7jjD12iBDufqNCi7m4+IsD33Sdx37ByOE2IYTuM9Xfri8Xh2MakGhr/Hfv6ffXr86Pa9VseNno4xdWrtLt2f9+fxvnAHcqIcyl4ncOhA3WJQjhBgFsM3iu1tJmGp0NlpHpZfRmy1vf9K7Pyazuo/GHCd2Hj7y6So4O3rr16fLyx7dufVyr/ZY+/sfV2r8e0oSeyw+iL756n5GaGPWqLx80vojHXb/eSyejhzfvMCEIoaiM8NcdOjZXb7bCI9prYte9zaiMu2+svNhsrSlbsNZ836sVwyPdgk8qXixOW+RhpuJdTMo3TrvOnuka2z7SqhfJfOHg9CJ9Xm81zhW0cb13oHCyQs6zyWyv+77XqJwcjduglKGYNIsxhNA9PNvkOirLW3x5NvdL72hpoeGpsPDKtxmVcYfGZmrNa6J58NP8Xu2ksr7BRZWlwpVXtsiz4EAjb71VcNzC7Cq1mrDuzR12HcctnGu06IEBb3FaXyZy+w9MlOlBVqWFt5qL5bF9WhsJ089STOo7unBEXw9OX2IWHQJvXm+HYRq5XF0jhAP+42Qr/3898t3UzaI0wymEsL/8AankJELImkeHCaHjyL1hqyV7STpOCFkF7nriBT5vyobP1VePPBxtVYIaWVbtDvwbXdyLpWSphNBxDh1f/PDF0X18Z04eQijY44c/esDeHtUVQn5KhC0AXv7dhZn/+fW7jVC7n37jytnnR+9hr0WptwUh/PoLy2xa/NbaQjrNO3hhjdb3rZvvvZqRQRpQpT+OP0j1tr9Zn073a9pNWfeFrLNtGc0g37hkU0S2xWnvxem5DX30jhbntdHHW62Wnowbk0m4XCp+HkLYM3qy0vAkbsxQTat5fizMrerqHS0tKoZq1rzG+ckhred3VwtS8+I4zqEFYtZKbu0zvrb9mFULclTGS/TJhieUhDWvfiZWy+p5slhZ8XzhN1hLHJfzFyNjayHdZyW0UeRfa9ZseebNiSquPU+Wak0+ygd+qzFv1L7Ma8/oGV1l0joSVYTE2KR9iTxoe1sUQqhlfr3VXCyNaO1Q5kQ6xEzTZw8kzjQ9+MSPq1f/g8m5W7f+uL4684xlbDv04rt0d+ib0UNhP3r5ffIpQf7333OUGi9489YDX5HZszuIRk3VVO9CR3QqngoIoQ63W5j9QHbHSBuMcLa4I9r6ke7uikLWLVtvlSrK2XL/0nRhXnkOmrPKTmcxMEQKGAT+kmWbWbZiUiSthHBPkZ9k9xvlAym9U6+P2/o0eKLGSJQFl6jd1D3FuuSNegCNAHSfEAbLZbEiRPPRnC1olgOMZSI+VulZpk+cTOqYZywmDWQjhK5sh95F7VSbnkyupy4Rwv77XqB7Nn76a+s2f0sWUwghV9e09mDEwprHB2UbbWt7hZCkMXGRybFGydrhxKCrDatK3pJVB1tF08Du8Avzl9k6IVkq/LDygu044AOvXqA8aumNHxtI9/HTF7GULAMhVEpBlmDZkmOmFUI9pOVJEsID4++oxwLZrtTlpTeSrI9uK0LoOM7eY4uC5n34+kFrKwohcg/+7DJnkL+t8aOk4dcOuN5871FiOOd396eZc3AL5/jco0XERa2MZpNvvMHbYgzfbYwQ9jxb8aSZ0DBS4vLmx+JIYXI/NXAX476NFate3cLcFT0H8imiAjmOo+ac2C+RCtSaOvnbXS1IzX6XCGEOLUgSwtMj5RUJhwTROjE6OL0oCFXokbpsmBvlzfiYobW4Q6eF2SFiq1aZEbgyZzAPQQhLVrNG/lLRHNTUdkUjVwtKLd80Zw86jhib1K9RtzZyCUJYOjxn6UReihm/vpd2UaNcjyZONrnDxyuX2TohmWu4XCGHIyJ/u3+0SAnh5f/9j8b8oNgwEt0Xo0Sy69d/R63L7P2nZPtgQ8wYHYWlVY058q7Em9UJQqgiFW61as5PjvTR6u4dGDpSbjDV3+iZu0sNWiF+szJ5cICLbLd/cLgwebo0Ea4QqkmoU0fq+/bdrFtSMdyqHh10j9JNaK1Wix0icieqNPPNs2H3HD3f9FYq5anC0KMs127/gckq54++aUEpVzGjhFCOuFa+0X65OxzSPSwI9bV66QirTbf/sZGJtxguxiJef2lV1P3UyEAvy4zb/9hQYapUGldWCJVscgG6Mb1Bic9xmBwkde83Z0bcPWVqspLWvVcpuINshcq/OKGEKtZazdq54sTBQW6CoHegMNPgo1ZzVs96vmJGeEJoAc860aDkKpezO4TwrsUBumHj757OcHqQ5TcbIQyvq3FZ92+UxFbJ/rO0xgzBwsHYECF0T3PhVLWOLGLQ1YZVpRKSVYdIRTuO8+ChmVW2R3T9vdW1W7euvrfMd5C+9/q4QQt3j/2SHbL/7MKL4SH7e/a/xTZVLr35krnfRmRtSxDCy5/RUyK/e+15egDy3v3/OHOVccILx+OPcuUkhFPVyZTTkgIT8vsG40sdPkPoDheX6VLLrVvryy8ZlagmT90PPldhp2pu3bxaeU7bSBXxm/OFey+13rTvz2+mnB6UWrv/QWXyAJNwPQPDBaGXG1won3yjmebEJjU1PLEAACAASURBVGmWJ2fhiPcnhILXqpe5uZeegSMlcR7Yb5yW+zy4WIiqyNobPspko2E6Tx5bYMykVT9TGGRakOP0PDo0Ml4sn4ictOKDTuCvlkf5OOj0PFnmI0pz1nZiqvNakAF551cIc2lBghByciw0CrdvbI5PVoRDAM15OG3qN6tFVf2YqXkXExeujJInPiZLdcdx3PEqq3vvolzic4eOcd3QvzSpUiAxvyAVIWKmyO0rlFeZNmGoTI5sV7UXxeKxOzR5kelXfu2EGrcohmB6KRBwb6wH+I2ZAlHJwsiD+ilb5CIRx/nKOr076vMl+0mRB596lQxpZI5zdfW3t25dXV3mO0hXX58waOF9z7/PxoKlxXOPSU5477N85fDyO4ditp+w3IzvKtNZ6dL7iQcJR4QtqSAI/NpUWJINukAIQwDdKWaCy6+fksKXfRVS1dDbxBHtPHfudV4Uym7Ju+tuxgpIO5mmvYBJgfQBTEp2jT84Tq5iGoTQLQia5VXIVsaN/FGDv2LF3v4rrD/lT2Y/H5AJj9JDc1ljSLcUZV2Pgj91ixCSawvYuMvJfxB4c3RBmKdotFtL5tyJi2wgEPcfcD/5imnwhFA5S7BuYslM6qvuEMK/ZdcB/fUb4cxJWk6eZ9vYvnoxxqOBv3uCG/lrnOFpGB70aFLA52F1ZS6M4TC7ETSwU75OE8IX3qHrQ4pRmfWFQ+73XuBnLW6uvqQalXGcXadeo/tnlr3f0yN2fd85/h5fc3v33w6wo/hhWaTr7p++R0ytXJ+NI4zSp3B0Y4WQmsM5pvGjJ44vUYq79EbsRcc5CaGwp/rdTPda/piZ30zZ9SRAyfMb0rw/rtW4qb3Y8O73XhIM8ubln6UtK8ZGE/nAO9ruFOOi7iQfwiMCJ6azpHSxSD4cx+kGIeznWzx8dUmNJu4W+B3IrarYrMnzrNG/6EP7hFDomumjBmEQ05eo9t+qTujjpqAWVkWfF8Eummyg533XeUKYSwsShJBo60slwX5oIdih8SDQ7iIS0jjJDFheCGz+0wjhfr4y/EHZ0IAH2cSl0CtY3KJPBYFfL6nnTYQK2jynTi9z5cS/aLQU8f7SpCXLuQlhq3ZCzXti5Ep6S5epaZl/v//HykvuPM53z4dGZT6tHnKHX+AbKG6uFlWjMo6z5+k3P+F7Rt4nhxfue+ynP+eD3dWXR+NnDFly94z/lZiWWbiVPMSFylVzNjJJEy1D1jcghBIpIdquzEXmtGIIoSCQjTNal5cx2hydF4WiW0o7YzyJ5jlejqyEUAx14YIGK0CuYqqEsJNskGwDoVeC2pkgf9s2IeTGu22jl50QCs1jRRf3tiqX73hNdXyFMGgJq3G8ocqZPJ5ilqG9E8VUCWEosCLKmQSkXUdXCOFd//h/iCCu3kqcwFOy/NUvrVwl29g+X/3KAeW16uT4r7Btm0LCBEEgjvYxDzGTNbwjx3x1eORxhFAoGXatK/mrPJsUVTTVN2q7OlC5fFVcO0HvIUy+doJcrPDs8UUxcLKTeN6N6hunH5GzqiqSxH3X947up5cQ/nA+7li+GaQ7W0a9qy9qbJCk2vfiZaoExG52zWtUxvkfg9fJjYuTV2Z7Mqy2jdz/Z2oa4c8LX46xxxPFJvObvcc4sb+Vgea5B1//UJw/XOzM7tEDr7NbpGNnXlhJxIQLnw5TixfTWdoQ410ghEKB9s5HVA/H6T+TtNSfpuKrGKRJDO5X7Ea7Vh0TK35aLOqDWDdT9x+J75zK6vtT2MfOa0EiUf7beUKYSwsShNBfKanshGbOUvZJRqoDY9nQKFMHHlNay7NsedC3bCpx+W44taJFn4rO9Vv7iKXgrEiq2mAWMh8hjK7liEO26lBlpkGei9XddNeoVcI8Ufm1vHaCaqFCz9xrvXbCcZxdQy8LS9d8aPv98rvvPP23+qSJLSOO8/1bVA/56zf0KdSoZ3K7zGN8m1f0a3tvQAglblx+ERMd5l8MIXQn+Pp6ELSatfL4SIbKie0VZpqZn3m3DGkGSyJc0WL9LU6tVNLpRDFDQij333rVoxGpqKS6FZxif53twJWdKcklNVr3MxN8g3FiYSI1leg7y0dTXPIalByAp5gmDUlSnSimlOxy/62/Wk470p2lnIafrhDCL4/RmbmfX+c2QIw0w8evrN8c+PwmvR37T3s+//j+M18NvxkuviOU9U1m6IXvIuIrseykX0zf5LIi5muaepdM+ZK/tkEI1ZKzi+mXX1DfRd13H3ha3NXO51O93y/ZRs1/mDl04/rEjU/ohROf/HBp6itZxlWeYDdWCN/9heWsILc2HmsOJzchdO763tTfUwJ84g+fPH/j+sSVmcRJ4+dOPfSXW3Se+9bffH5z4E/zxvnMaA3keeMOy7W/9eWXjG1SkYgeHJ8Pd4+Oxy74RsLFvODqWtr6Z+Etus3hWsUyhM+zHRDGltE2xLhV2Y3Jd8bXnGyEQ7YWbphvXiF24yJ/KSq+7l9o8AYIuifHEctBQbDuNeaLBX6uxPRGnhNzzvNmOSDdeS3IyFznCWE+ZS9FdOu5FYvAfN5Q/9jRp+TWMnSOnl+wzzDyZq/S+3h9xtpHxOSLsQHNSVzEMzWcGDjivUmdJCakeP3KVykhfPg3KRsyKCG8mTa2uY+Mv10RW2D46Hb56tnxAxlk8reuD9NjhAP2Q2ciw935BSGUuCb0Yd6+zaUzx3H3TdfYQCMmzikzFFe+yrhDR+dFYaRbsiTC0YV1CUOtdPsKk+eq9ZVma40eHab/80JE+EOOYgpC6F1h+8jVww8hClvNlTRS2pkS2aEujWdy3FrN2szE/vhZ1UhNbRgGUw7yhppGCHv2j5cqi3ViRE7WPj9EGDYbnrk8xeTC1/P4cdRrkf23Gy4xjaCbhHA29cIJfpyJjB9/3P3n+r0/tuhpopysghghpMqTf6k8R4ddNtXKEFOnXUVIMmvJbw2bt28JSWq0juPc3i2jSrYd50iVHDx7/7T2Unv40jdPiy2j188+f/ihXYfDywO93509rO2r+cHcc+Q0HV0uu/HRwfnnYtcQtTTYw20jhHxH6GdnD1tyQV7l3DJK9uM98cjSez8SZT/x6dz9MVHT130H713/7SNUrSG08C/VDMpHUnzRbw8eu8RPFN587yV9m1TUs/PE7FW+cWOtkvMaeTO2jISQy59wbjSMJ7az5JFvNDqrshsm1I7LFONGHElyIKHIRixkt6udFUc99oyd1w3z+JQZivOEYQCe8yCQ44jqYDZyLNXRcS0ow+4h2hZXfxLmPa8rhxaUJrr1pJPqV/e50afk1iKaRxBqBUptRpVD7t9Sv9Y+IidfWrYzhDGWUVK6hgAk3hsvckSnFSHFLyeEu38TnUwSXujvM3Sf2mrC2Hb3PrFllFx99NiuRx979pcXBDlcfOPHD2nxRR8kIfx+9FvX34AQSogTumUsIaSBiYHmujS5y/rNleqEptOYqUiVXX5o2xHplqwgoWbPuoRCCN2Rs8KICO/l+o+982QrpiCEldPh4UHzVF7bRe1aQCEKbVOnXNaEeKq5IHail5qabdL12BXRSE2pMbXlNuVgBkK4Z6IaZ0GOtIINFVMIX2n11LKFo61yGoG6SQgv+GkrhDQz7heOPX//n9hJ9Pgto/z8LV2yYPuC6qfc/ecpX6YT5wyxGGmQIJFIHpIarePwxcnAm7Nur8y4QmgZ7EnSoqJTjvob1SYf7+YGuJfffWtIuUn9S9/8n2f5wHn5mDC7IwM9+O2eU9UfUna02VtGrSuEnO9df/F7Msu6Iy8h/M4jH14na4NX5r7xD32JFgZIOnvvpa3xb/5c/cqxh/WEO/MUGh3NsEIYGh29ebXSsRXCmw/+LLEsvFnaGm1yZ8kjxq3KbmK2Uj+aYtwIkCQHEopsxJIqMQz/5IqFhfC6BKoi+I2z+oYPnnNdfzCeTENl4VRXjNwzMpLl8XYQQpqPbFrQNieERgWqj75y0i9en4npI/uE5SR+QRefhCZ2dOPuTkjpGqJtxHvLOlRxQvitjyy7tkUqWX7d/TO/o0uCV1/cr+yMuHvfoTfY+99XXlQM/luiFITwke9aPnb7FQihRDhB7CYTQhGD21+Ymq3zxZHwmJD4zH55Kp0ThUIvDEdBlkSo2bMuIQmhOO0daMZRSe46UUxJCJ9yyC0OVJZ0aN9gBqEv9nbrmKc/jVxg1ZabEIqo3f7Dk7NLsu7thwHiBaiIJu+vKQd5DcrWxVMMGT63OxoEmgU5kiyPKmw2trykFDMUvm5B3DsZS49t8Wd81xVC+KV/+k+6d///PJCqfItsCnPVX1+KWyTk3aFedNiGGdow+IHV5uwwv6hQ1peImP0mSCTiIVHHdXld+DXbUf3QtHdM0oLyhVJFy1pY0drrjA/i9vnfvRwdfIVt7pjbe++d/4gsFX46F2eGP5KF27ZC+Ow7VA+wUFmep5yE8HszBcJ+P85mVOa5+W+RtcG0TZUReLK92DUu7Yemm4pRNpeudegMIS/dn+I7Gi1HcYmON7ZGm9hZJAgp8o36i1F2ZRxtOJJlr9gyau2qvCfaihzNSDYQzHA9j0+UFvittkGgr+Qk59yMST53XguSUTNH57eMGgmkKHspoluPTOylVLiW7qFjT8mtJW/z4P4tbc/aR7ju4S1Vw2mGdb/VrCXdtGlqODFQxHvLOFRxo1x/sp4hjEnU9lrcPr84E70KQhgee/d/WU4chJEN33qKbBn969e+Fr67bS4QQgl1aFzL0O4kg4puGZWBFUfP5CKb+bCxCzF15F0YUYJsyBnplimEkJ9gFjZIlbSzEUIeIKaYCiF0HKejlkW6SAjjLamGDCqLLdmeY9yMpHXwzitwlaqJcZpyMI0QCt3CYr0gz9AeV0xN+HbYpJCKQFcIofPdmyNEEP9X39+qaSW6066dEFcq1YvMuBy3JcONuTXPTVITgnEkPEWrSGpOYgGwtSBsExrlEB6sDTVcA7QM9iQiraKNmNMf+W1+3ntPW/Z+nnqNncK3XOxLYt4S107YVgj3z1ADOe//UjWsp2GRkxDyjbJvZ7N5yzdVdvjaCZJ/9x9ev8yuY85gZdTJZX5GgyfxYZpdFDaw9nySt3BezxzC5Wl/66Bsxhkn36g/MUoutbk8bibmOI4Qy9at48KoTHPWdqYoWcU30kqSGIbXyKMrlnfkzDLxcpBbv08z629ExyVbB7UgI4GuE0KeXowWJNQ8DSsji+EjnxYM1qrq9VDh9865UlpLPkuqYkbSMkbYCCEfcWxmGhIKyNWSmH0uMqCpCMkPWYeqi6t7yYSa1cpoGFm6Swj5n48bIogEffpNdtnS8tMJEX35SCYro+T+z0eHxL1xCfHl+wRCGOLFr3L260Vlu5J7WCx1BEE2Qugkns0VB4iFmcEw+XZdeQmhFAr6ZunwtpkNFVMnhI4TXrDTujS9dW3LCDtvugQfVE4JxmnterWJod2qZwvTNfokqx5BvidTDqYRQkEDTPsEvaNxdwfZ8xNTTJMn7CnyO2795uxGLx1RM9IdQijuIRweO6UmluROJYTcOFuzRi8dlrdN8F2jV2q1a7HbdNs/Q7hnQtwb1SjZN65v7grhd15mt/Z99tq4Imkpzl868G/s8omYFcKtSgh3nf75ZTLYV88cim0vQldI8qME3gqEcMvdQ5hyMJLb9PfrpxQaHe5WCAK7wQwFdeaMkW/0o1taoeuQ4T0QkeC5Xwhz/5HLGxxpyyRGYZCjuf2csZ6TjRBCh+9xCPQhUuQ8el2TnrT+1HktSI/fuV2EME7ZS5nLM3IrOL/1wnrD74YeU1oLM3vG7q/OkE5E85RhbISQ6yo5CaE4CS+HTpmG5jAVofCjqZOEX1TXl9duknPXcfcQql6T3Y/9L3GV7inTAlh4UCJphXDkoVKWewidQW58OOjoDc8OCKFSv0Jd9ptzY32u4/YXztTp8TCvvkI3P4Zb70iooZOVKrnge0he3ur0DoxMVfhx7BgJLm7n9Jvzk1lMUyr5szsj3TJlhVCMCuT6TmoWtWfgSLH6Qbif2yCE+YppEkKyTMgvWQq6Lu/sAGV6K26CClq1k8QmUM/jkxWKib9cZ7e9ayuEw8XKwmxxfEQx+9szcHBS1L19y6gjjHQHrXqJXz6bKXOxnkw5mEYI+cXoQeBVJx8nu+7cvpGJGdbI2UkBnffmLGZU+Epzo0H0iq3YUqV+6A4hdEYe+lcqi9/IdozQcZxUQiimiim4SqvgGiczOWrc/SiLn6JViI4sFz3c/scKxXm5uSvxAKeQddaZi3AN0DL7S7IXrWiZ6SwOQY2WPXK3+9cfoJOp9z469OwvL1BatezFbrzMsEK466Hdw33y33F+TfDPj4cvH1IOLmbJr/TD1zbff+fp3eH5kHt2T738Lp36ff/f9mtrnu593wwT7Rv9JdMVqjPHZPZ42WUCimPTCWF4aPDmh6+nXSkYHhq89dtaZ+6aULBwnC8sfUyn8IMHz2jvjQcuAAO/OfdcPxnCD/O73b3lBh3CZWehAXPKN5aYVN9bS6UkC5xG1hIfxR3IZC+/GBroxfTcZJ0395Q9fIqKrweKSAz9M38am12slKcKQ8MDYl82ESylJZYVczaz/ySf9Ata9fL4CLkQnPz1DAwTq3UNr2ZdSO24FsTzLn46TgjzaUFC7OvkWWQu+hvupglaS+WJA9xcfc+jIxO392L6UX52JvCb1eKRQZ4Pt3/w4ERpvt5cnVPnHSKapyyYjRDyOy0C0muGh4aGM65ujXFL/n6zMhVvxt9UhGROMg1V4ujHI2vjYcA2XYf4BfTe7xfffGXom33Usteuh/a/9PLiZ8zcaOIZwl2//jtqYvTRkeQthF8rrTKFDRfTt1lRWYKFy1kSbHLp5qlB3vR1QijEq+JXOlu16bi5eblsIj0zhx55luwyP5FumUIInbgMrDVrNt6br5gWQrhNOKEVlitzBU6idKYk9GmjDumjcTWqWpPWBpawRqSGtblNOZhGCJUFWyPnrcWahffmLKaVJ3SBE3aJEDrOPrZr9P99ZJ+ywmADnr9LJ4T8fAhBWzO/Li77Ih8UJTUJcOJV1TCSOuZas5J814tIaFMIoeM+Iq+hl9c0hQ7TyqhaARkIodh0GkbINuqE/7/W7rgvNruyqD5bfP+Txcs3uFXx9995+pvGNqFQOeB+IllKWC3cXEL49Rf4bcy31hbGU69BPHhhjRkUvfneq2k3Uqi1mcMtlLZH119KChVKG0XAkUl03uCVvuaE6+SKX+mMF+OK+i59E0fM7ElSdsNvbuGcbthTRh1vpSycmsmWtJAYOghhHpiLz0PJ9BWH3zwXtRAXn3MSMiYt62ibeROWmeXIc8cJoYBOAUM6LcpeylxeJL+Os8e0Vy+jNyboLWETXgk5H8ZmuMyWo+6KMrwGgTen0hSOiRlDaI1CHa3IwsCSsuqgxr3u+15j7pj9Nm957EgNQRqWuo/HVIRCRKw6SfiZuMRk0+/uP6Z/aOvpS3/7qriGPhxxpPxPsTJ6z4/+ixgyePPmfWmGDCR1N7SCtvIcBsIKYYgFdfWMnql7ot3KA6+86eucbehkpdFs+WvCNzOd5DWqM2P2pi2T6h0tLTZba3oL1yOXflMdkW6ZRgjJbRmTcyuez6xCB4F/rVmjee5AMbkA0ukTWYoqCKujEUtlqSW8XR7cfZOVVT4lG/he4/wkrUcTT5Kd4WKF3dghMCQTNWteY6E8ts/QCo3cu0PH5sh9D0rAONueRkjLoykHUwkhmbsdPVNrXhONdt33VirFJ3vEBkW94nIWM074hjLdi7O+aylc/KuuEULnX3aV6SLh7PV70iQyyV46IRRLFkFgHBASG8t1nSlt/FaHWN5bVSmy5nur1dmpUTG1Hw+hSEgbVhXvySsPcRWtRJDqvGf3j370+uWqJFTejaV3L58989JjbMEwJvzmEkKHLGP+ovTLqyEPpNkuHf/nr2trgyz325gQOo77TPW368vFjPxu7+n316/Op1PHmGrN8vqLH/2WLhJ+9kAxUcT2PFnShvAztDvwBq/zk5zyLcylOzR5vuGpQ/9GCSGJmxg7VcblgAwopUL0socwH2IBxKKUK56EU0gMHQTxVfyOzS6Romkj1FqrucSGCeFL/+VmWqVKQ1X86rnJpMx3VAvSs9P5LaM5lb38hJDoSENjM8TgikQ+m0ZhFF1/FHJeHSU0t6XluEPPlaurni90hICYfqlXzphXakU0T5m0bYXQCammvNZCy0n8DrKeJ0u1ZkvCwkJpI5epCMmciA4Sr133Pf/g53/a999/+pv16TDUBl337t9//O0L736yJGYAly5fv/DGLw59jy0YxsX+f7+/Z4GoH3v/6V/ivCjv90ubrapWoHhoxwlC2A5qCAMEgMDmIdA9Qug4/fxa2KEsJwnTCeHmgbQzU85ACHdIwY/M/TOxMprVqMyvdhOjCF0wKrN14Ox75oG/ENVt71+qX+7bOtlCToAAEEhDQExGeJVnjelKt//AJD/0HreenBZ5+9/dL//mM3J68L8v36vuhm0/wvZDPvVAMc9kdGhmPDBNQrSfB5wh3AB2CAoEgMBmINBNQuj03zP2V2b3+Rv9qRtH2SX1e//wymbAcCemyTdSZryMYRsjdPdP3yMXbNyofiNLIb6wcpWqNe99JYvv7eunWH2YaG9/2v2bDV51v30hQM6BwPZDQOyUWSlZV/cLb7GdWclr1x0v9hcufvQ3RJ788asX93Y88lwRCq1j4a8ZtA4Wszt9ia3hKrYJcqVp84wVQhsqeAcEgMDWRaCrhJAcLXrgJN3Kv/CfX0vhhOL4wR+/upR82+zWBXOb5ezI8KefnPjDJ8evzz3U365tmC1f5C/+4CejN0gxJ5emMmxd/vHPv053PaWcr9vyxc6SQaHD3eoDJ8yCF/wAgS2AgDgz7zfKh7mpGpGrnv1Twir2cjF1ClaE6sCvmF16eNMlyV3fv/X/0CuvBr4fYzzKKK47NDnPjxx7Fzq5tAlCaCC92Y+pe761bdf6ia/NzjvS3yAC/GiWVsXxD/Hb4jeYjS0fvNuE0HHuOvWN1+j+jQu+dUZTQtT3zP1/vkUXZ/60979vDnx+8xsf/UB+hKMLCNx96u2jZC8l+ff8jesTN6rf7EIqmxPlP8wcIiXipTtx4+3+pJt6fjz/jc9vDnzOm9++zz/a9F1PtwU198u/+Xd6mPDmQz+7LQnmTISfH4sX3NoX7ShUzpTg/U5CYHu3q/5xsS2UNn/LMcIrlTFuovZ21OrTr3yVHR38wytfuB3pJaSx+/owPTqY6ZSKM11Tji57CxNJI0RCojGfQAhjgNms1yCEm4X8FkgXhDBbJXSfEDqEE36t/NdH9qXP2PUN/18frX7rL3/cwzez6fd7ZisRfOVB4Is/eHn4w48ELcx4yi5PApvll2+I/WTyxseFpZfvS7HuyS+j/9N3Pv/sW+s//dJjm5Xr25+u++Xf/O7h9Zc2W5OzF3x7K+72MuHt5iOw7duV21cozteb10KrOYQbrrWaK9XyOLnr67b+uV9cufzw5rNBUuan3KP/+XdHVKupCUjQZuBLW4AJPtv5BELYDmoIAwSAABAAAkAACAABIAAEgAAQ2AEIgBDugEpEEYAAEAACQAAIAAEgAASAABAAAu0gAELYDmoIAwSAABAAAkAACAABIAAEgAAQ2AEIgBDugEpEEYAAEAACQAAIAAEgAASAABAAAu0gAELYDmoIAwSAABAAAkAACAABIAAEgAAQ2AEIgBDugEpEEYAAEAACQAAIAAEgAASAABAAAu0gAELYDmoIAwSAABAAAkAACAABIAAEgAAQ2AEIgBDugEpEEYAAEAACQAAIAAEgAASAABAAAu0gAELYDmoIAwSAABAAAkAACAABIAAEgAAQ2AEIgBDugEpEEYAAEAACQAAIAAEgAASAABAAAu0gAELYDmoIAwSAABAAAkAACAABIAAEgAAQ2AEIgBDugEpEEYAAEAACQAAIAAEgAASAABAAAu0gAELYDmoIAwSAABAAAkAACAABIAAEgAAQ2AEIgBDugEpEEYAAEAACQAAIAAEgAASAABAAAu0gAELYDmo7NMxo5VpA/paLW7OAo/Mtkr1rldFs+Ssu0+Ko/2UOmy2FrL54TrYqsFmL0a4/XnFBfWs2rLztyjlVV9sUdbcqT7WLzgbCdb1ducPjs6tr/3GL/61fXX7loLuBDKcF3eoiKC3/t/H7UxUqDTen4d3GciIpIAAEgAAQuB0IgBBGUe6fOFdreL53ISPviMawTd90UBvbX1xoNK/59VOdhCKv4j696Ptr4t861dtBCDtZIVnj6hwh7ErfzNuunBdrYbvyGTfcHL28y4Rw7+n3bwouGP6uLTzTNU641UVQ1hZ/G/yBEN4GkJEEEAACQOCOQQCEMFrVXClpzYMQRsHJ+KbI1lA2lxCqeeWqMwihCsrtcneOEHalb+YmhCpufLVwBxLCh2cuUxZ48/LsMw+7jrPr0Ou/Zvzw6tzjKgQddHeQEHZFBHWwqBuNCoRwowgiPBAAAkAACIQIgBCGWAhXV5ROEflW/t3q2thGFHcQwk1seSCEXQK/myuED7/+MeWDv608IXN/oLJG363+RL7qrGOri6DOlnZDsYEQbgg+BAYCQAAIAAENARBCDQ76AEK48aNeXZmeByGMNtZt8QaEsEvV1E1CeKj6KSV/759WMn96FYRQgWMznSCEm4k+0gYCQAAI7DQEQAh5jXLVKmIsQnth3XDYO1pabLb4UaIgWPMa5yeH9EM2TCFunHadPdM1j0bZqhf3OI4zOL1In9dbjXMFJRAjVHQfmjs0eb7hrfGM+F6j/GxPJ5qhO3Rsrt5s+exwXRAEa6IMNtsn7r6x8mKzJbJBcrPm+16tOCzzImb3NcgiD7bIZRTJDpUQ9jxZrKx4PPPrrebCtIG5EVXGFUIt0JLjcQAAIABJREFUWlJGr7FQGu01IlMe3aGxmVrzmoBu3fe9RuXkqFFDMYr74PQlahgiCLx5tfaV+Leh0903Obek9Ih1X7Qxi1GZDO3Kab9vZkNvI+1KGJhJ2TKau105PaMnKw1PQhf415q1mTGjkXezXR3kq4Efv/6wgNGdrNE9ozdrR8WrDf3mE0EcQ9HVgiDw1/xWc24szENXRRCLvFFyncETNY+KzdZScdBxFKnemD2sSHHHcXoHCicrtVXPl5IzRkTIQmQoJvUbQwjdw7NNBpHPhhgZMXcQDzQz3oWdI3PMQuIZCAABIAAEciIAQsgBa0/p7Hm2wjQDpp34UllZ0wZjpnG23ipVGBukLMm/NF2YV56D5my4N0sQwmPTNU4ZVGbl10/256xo3btbmP1A5lWNmbojnG3wVD3Gt6oHd1UbI/mXivuENT9X5hIOffL6tVJ6jk3PmFYdCizrXsVGwqVqpXhlThUWErtNcXdl7XsXJ4hauRP+3MI5ro5GMAmCiJXRbO1KoGeLMXyXVLMpyG6kXWUghLnbFSEYzN5vWDzuMg7ldrVdjS+u0+XA9ephCuDel5bZi6tzoaBKgTb+cz4R5BYuqKJSxUWdZeiqCGKRtyqnNSleO1FQn4Pm7H6l0LxpqfkVbp+RScWz42QsJg1jJYR7ilxS+43yAZ2a8oSGZpsiB0Gr+qyWPB6AABAAAkDgjkUAhDBa9VyrSDcqs6fMxlZ/tSwXkXqeLDcYeVI0A6YW+IQvtqpHB92jVeKl1WoFgb9cHHQnqnTKtnlW0jy+5ZIN3X6zMnmg33Xc/sMi8lZ1wjrcR0tjeTNYXGZZ9JvzkyN9NKLegaEj5QabxjYI4e5Sg+aDZOPgAF/7cvsHhwuTp0sT4QqhmlI3t4xSHIOgVT9TGOh1nN79kxe5stg8G0usUgnh/nNcUWotlScep6XsHSicqbfYCqrfKJEVXeVP6l5Bqz4zocBYrKw05vRLCCKKe6j52fRCJZVt5ZQEz/+AtVjHcXoGhgvlFdbeVN3dcdppV5n7Zh7cuNbeVrtKJYS525UrCYbfXCgWHqVN0e0fPDhRXvSqJ7WCdbddHZi7ShnhrbXqCz+uXmUGZW5efvXvtTy09ZBTBD1bZdNiraVS4bF+Lvl6B4YOThRnpmOmgTougljbo63kWnVijztxkUrxa0SK108JqR40y7tDSEbPN72VSnmqMMTq0XH7D0xWubjya8dCn8SVq5hRQrinWGcCfN2bMxYqw3RG5kJm7demwg9wAQEgAASAwJ2MAAhhtPYzKp3u9CWq5ka4mTvO1Be/doKrLnKe2L80SV7t5kwy8GvT1AtT7BQKGhLC1qVpleW4J2o01TDyaAGS37hTPIb6KTVisgJnv4fwJLMYaq56JabScW2MpCZhDPymvjVr/9wVylmvzKnT82oOUwjhbj6zTvi5Gsxx3MPsvq+gtaDsTXP6Ban2KrG6VxiRobiHxCmSXBgmm+v0+0xnT/h/VT0Eli3Wtny5k7xhRQolKk4nhO20q4x9M1/+RfaCNtpVCiHM3a5kIyccI7UY3WtXNGn3mQVmRIa3rptXqy98j8u01LwleMgrgkb48qDefhISIJ86LoKEeAz82hQBof8sn0LyL3EpTgVlBjkpZxIvTqiFyFdMgxCG8wgpEikUPs3ZGC6tZgpuIAAEgAAQuCMQACGMVnM2pVOsbyjLejKqAmNWvhjvhcbZLPNVJq6sNM9x/hJHCKP8xHGE2i0il6lmcwgea+FOQuMxVggFgWycMU4wJSTYcW2MpCVgtGg8Q3x9T5ueV/OXTAiFbufZNsP1l1Yp21yrhurbMN94pbNENUHNrSruoUIWIU5amGwPW4cQiqkKC4ai4nSFvp12la1vZoNO+hLZa6ddJRPC3O1K9O5gtSR3C8h8Rh3da1ckLXf4pXfYJlFCCNcvHXswmoN23uQWQaJ3t6q2ndsxWei4CBLi8YMyZ+r8xhG51Z+lmIEQxky95SumSggzs0GGlds3OCQXWmPgw2sgAASAABC4oxAAIYxWdzalk6uz9uGfK2oflJlWxzXO8JiTqTow/9EVQuPIEM2rOARi0LZoOexvOFltvVWIfBcajxGzO8E3bAVBq1krj4+IPVuRCMIXHdfGSNQRGMP0nMTqCE/xhVWghHWcSbbYG/NVKGrEngT7c0+zXbStCjtepUVmeZCKu3uYHzjyV8sjIjZLgG34qvAW3dZ3rWJpWPNsx59OCNtpV9n6Zk70NtKukglh3nbliOVoYoAqw18X25X7TFWuDv6RrRCuVY/wXB1aoETx0+qhDJmMeMkvgsSSWhAE3kqleERsXI9ErbzouAiKtD1GCEOhYUp1JTOGM0bS5ipmSAjl/luvejR9VdnICh6BABAAAkAACDiOA0IYbQaRgT/q5f9Hjk8PU2Oba75v/GMHz4SuENE4TdUhDyEUNjaas0PWjKW85HqSQj5lgBg1xXHcfaZtG8oM9xu2NGVEXdivReKOwKgkyNWj2FMxXHUWNaKEJE6pWBvv+WPk8nGek4iVFHtwGb/n8fM71yo7z8BfAsJxcOVvV9n6Zlw1xLzfSLsSciBxYsiYYZHZiLSr5NhkOOngmHe+XT18+j12ZHCt+tyD7hHBDW+unt5LEufr0lfn7CeIZf7sjnZEUM+zc5q1onWfMMPDCXNTPBXbnJo9W2lvI20vGyF0+wqT56r1lWZLGSPY4fAg0jByFFMQQu8KO6DrN06DDabVIb4DASAABIBADAIghFFgIgN/1ItKCPnYbvsRnC2icXaCEK7I9Spr/uJetqON0biIHfx6U7d5eqU6YZha4cl2XBsj8UZgVMoo1KO4JbsEunL7COFyWZw8zHRCTCneNnAmIBxHCGmpcrWrbH0zJ1obaVfJFI5jEtH7eQY7RQg73q4e5+Zkrv6M8j/H2TtZ4+uFa9Vn3GH2+ebyCzmRZt7bFUHkipdqw2P8h8tbfyVupb3jIijS9tIJoTtylpsYsw0PQZQQEoAyFlNKPGn11NuB00xtNTAEAgJAAAgAgdwIgBBGIYsM/FEvISG0rwwYISIaJ1NWwrBMcVRW7RK0GWEmbqm96+Pb1cZkkdz+wtRsXZqqsx92Ssi/jCi3IwKjEgO3UNKcjVmzSKArISGMWT8UW0bDHY/iTWxySs6IMyQGbkFcE9aZ/V1b5wxhcYkqvTYMEwmhgCpTu8rWN0WUGX830q4yEUIbJo7jiFYUtiux8zl2odsoUbfa1U/Y/fPiwgma6t6frHI7o7++zMjh5Rl5Q6GRr+THDYug3v0TZ6oNMTcVc4634yIo0vbSCKGwLhZo9pkJNjwqOyGU4CUXUxLCp8i9iAyMnbcRXYIBBxAAAkAACHQVARDCKLxitE5mXAe5+e76qfTTPhGNkykrbRFCYaHUZswmWpboG8Enl4tGvqX6kqKm8Ch7JhfZVL2izoapcW3MuzASvtuwKwJjGCMzAR+0qqol0PCzpGQpqrnVJo0wKiPWe0m04/TikCDIWAuh4k5WAOS9AhYrJmqes7i3DiEMbSSaDUueQbU2FaOUye0qW980okx73Ei7SiaEgvJlbleid0t7VMl571a7shFCxzGMjl5+9dvJuYv72iER5A7NfhA7ByF3rXdOBOUmhPwEqTAlrcAhmnHc0rHi1YkrpkIIHcfJZaqq59EhcQ2GmhLcQAAIAAEgcOciAEIYrXu3tEL1jHh2QcOIqw4ybNSJaJxtE0KXm+7w60XltqtoGRLecO6kx0DuWJdbsbKoKdb1jTBVbjcio7HEMFyiKwKj8L2nxDZmKUus4pP45apzDCF0nuD0vnXRvN9R8uTGGdXu4xg3tOPXi/ZNsyJh+qsp7o7jyDsMzfsztFDb7IGTZL9+SgEqXBG1XExvLaAgUVb2mLFvWiOOfbmRdpVMCPO3KzH7EGSaLOhWuzpaY4uB6wuG1Zi9r/5aXHCy/FIsoGkfOiWCEm32dFwE5SaEUuboZpbcoWPiJsJsktZeTJ0Qknmmeb5tw7ipyKiNwTPMIFawk25ANcqIRyAABIAAEMiLAAihBbF+MWSSe5D5hcI2byfrnEO16uXxEXJJOvkjN3FPnqs2vJrc0xnROLMSQu9CITSb4PaPneesTd5XYclW6iuuSQR+c26sj1x3L65f9+ordOeRrqYMnaxUzxUnDg4NsivsHcfpHRiZqvCs2LeMOmMLfBNTc36SX9qemrE0DxzGtXqRXRxP/fc8Li56jlwIqcYnlbOYq7dcrnUFQVjp7GJ6dvrHmzMCyin5YK1ZPVngte/2Dx7JcjE9ud6Qq2/ZKKValq3qFusefnPuuX7SsA6X6tcIfN4y29+ncbz22lXGvpkLoo20qxRC6ORuV2HDWG/VZyZE3+kZyHQxfafa1XiN3zdx8+rCCwepDHrwO8+cXuS301NSGBodzYU28ZxTBI29VqvMTBaGh4SMddy+QSK12MSddkFomJdOi6DchJC3q8BvzDAx3jNwpFj9QE68mWcI8xXTJIRkmVAcUQ68+TirVV/jl+gQ6LLuTA4xhQsIAAEgAAR2KAIghLaKDTf1MTYg/jfXl9zCuXBdTXiSv6H62zYhZHExE6YyXm9+LN68p6045rtwLlnGGQTEzAnPp04IhVqj+JXOVm06bn1MLoJJz8yhR25mLfFZy8k6tewqlau1emmfvlVRKJ1G+uGjUZvaWlboi7jstnMSaj/cDMwKZK7k0Leh6r9TOGFYIgU/shDB6yLsEaGJIMVn6ExoV1n7ZmJL0j/ma1fyAFiYXcOl137udhUeCTPiJWusp7Ssd69duUcqa/y2CbEkKH5vfrjKeaEwOqrlKdNDPhHEixmFIwj85mwc9QnX4Y2AbYqg3IQwNgNrzZpt6i1fMS2EMBMnHL0gz38HCVsqMlUjPAEBIAAEgMBOQQCEMKYm3aHJ8w1vTRIOqlMYFIIG7XmyWFlqttaE0rHu+16jem6yINfTLOYxs64QBuz6Cha332ouVYpPbowM8uL2jJ6pS3N9rWatRKO1EsKhk5VGs+WrULAyzoylXFTfO1paVJBhpWhTG6P57h0onKzUVj1foh0E/rVmzZqTvISQpEAsXqpmDElVnlEWaTl64U+09lvNeuXkqFFJVsVdPfkTeHH2WsO0toWr58mS1rDOUChshLD9dpW5b2ZFLFe7yksISSZytyt331h5QZE/MT2uu+1q16FXFy+v/Ycggn+8ufbr2usTw67jSAMzt4jR0aww6/5yiKCx1+oNz1d7fbDuWzuanoTjdFIE5SeE5MKeybkVzxdiXAorq6TNV0w7IVSPKPuNs9a7TvfPNvloBUJoNhg8AwEgAATuVARACLdmzXOjLMaCwNbMK3IFBIAAEAAC2wUBuSTeON0mm98uJUU+gQAQAAJAICMCIIQZgbrN3kAIbzPgSA4IAAEgcCcg4E5fYjtfGqV2LZPdCTChjEAACACBOwoBEMKtWd0ghFuzXpArIAAEgMC2RcAdmpzn5969C4adrG1bKGQcCAABIAAENowACOGGIexKBFkJYYIdAnGoUfndyPm9zhYz9YCfkusg0K10dDYniG1HIcA7jtZ84h+wJXtHVX6uwtxxImi6ppwD9xYmBnPBBc9AAAgAASCwoxEAIdya1QtCqGrxIIRbs5VuwVyBEG7BStmSWbrjCCHtGr7vrXTKMtmWrFZkCggAASAABNpCAISwLdgQCAgAASAABIAAEAACQAAIAAEgsP0RACHc/nWIEgABIAAEgAAQAAJAAAgAASAABNpCAISwLdgQCAgAASAABIAAEAACQAAIAAEgsP0RACHc/nWIEgABIAAEgAAQAAJAAAgAASAABNpCAISwLdgQCAgAASAABIAAEAACQAAIAAEgsP0RACHc/nWIEgABIAAEgAAQAAJAAAgAASAABNpCAISwLdgQCAgAASAABIAAEAACQAAIAAEgsP0RACHc/nWIEgABIAAEgAAQAAJAAAgAASAABNpCAISwLdgQCAgAASAABIAAEAACQAAIAAEgsP0RACHc/nWIEgABIAAEgAAQAAJAAAgAASAABNpCAISwLdgQCAgAASAABIAAEAACQAAIAAEgsP0RACHc/nWIEgABIAAEgMAOQuD0+7fI3/und1CZUBQgAASAABDYugiAEG7dukHOgAAQAAJA4A5EAITwDqx0FBkIAAEgsIkIgBBuIvhIGggAASAABICAiQAIoYkInoEAEAACQKCbCIAQdhPdbRb3aOVaQP6Wi13IeLFO427Nj263yDeeX172+qlsUT1VaVGs1P+yhs2WQlZfPCetylNZQ8AfEEhH4BQTBvWsgob7VzvE5rTJ0XnaNa9VuiHFVNxACFU0Nuzu6tC24dw5Tt52VVxW+wJ1d79NWsvJc9IVncGaIF4CASDQLQRACLuF7DaMt6uj5jYhhI8XqyvNlp9ZVc1UzTkJ4cHZ5prv83984AchzIS04akrtWmkgcf8COQlhC/WRHfwfZ/1CBDC/LA7/RPnag3P9y50m8+2kbeuBung0La/uNBoXvM7K5DzEsLpRTlA+P46CGFXGw8iBwJ3CgIghHdKTWcoZwdHzWhq24QQ5lVVowW1vMlJCNUYxGphZ/UPNYUk93ZfIexKbSYBhm+ZENhIvfCwIISZkNY9cQnfnW0aelJb66mDQ9sGhHk8JnkJoRoTX6PDCqEKCtxAAAjkRwCEMD9mOzZEB0fNKEYghEE7pA6EMNqUsr/ZCPHIngp85kVgI/UCQpgX7dA/CGHWTcohZqYLhFBDBFtGNTjwAAS2MwIghNu59jqcdxBCx9mIqhpbHRvQIUAIY1HN8KErtZkhXXhJRmAj9QJCmIxt0lcQQhDCpPbRxjcQwjZAQxAgsDURACHU66V3oHCyUlv1/DV+ditY932vUTk52qN7dBw+uNJln57RM7XmNX66JWg1qy8Oubp/vieEnr3uebJUa7b41v/1VnNh2vQtwrr7JudWPO4zCPxrzdqZaE7EkXQlcp57v9WYn4yJ3B06NleX2QiCYE3k33pAvHe0tNhsCS/Bmtc4Hxez4zg9o2eqDU/6DnwReSd2K+WKvGf0ZKXhiYMWQUAqdK3VPD8mMHYcQbpEldt/21nf42kohNAdGpupNYXRGN9rlJ+NtKwwZ2HeUlJn0coWuO63mvW5YzE1T+N3942VF5st2c5931upFJ/UMxOzZdQ9PNtkdevXi3vU7G4Bd/u1qffidd9bmZvcZ/RjWpXXKgXHLZxrtOjpHe9CwXUc9/Bsg1WrV5sOMcknJdqDr+fJYmXFE4frSOv11/xWc05p4ixipR06pPuHPXTNq9sECwtmxr/Wai6Wx0xk8uRdIYS8HbJzUATz8lhvYlQZCWHvaHG+4cnmve57q9WS0by1dExBQYTtzJjRhWK29rmFc6JDLBcHtWjbfOigURmustulmnhr3XCYRebT6mi9RTrE7CrtAOve3GHSIcIOsjitYMIaId3x6w5Nng/rKF0YZsUy39BmSkI6FPperTgs0xNTpQIt+6913JRxJDrUdsW7G+8RSeoBizLjllEtWlJGr7FQGk3oa5ExxaoIxRDCwelLfJDz5ol4jPwNTi9SD62tN4JE8ooXQOAOQQCEUKtoLpdt8t5fMkZ6Pkg0zowJ7VgL5p3XDu7zmFdKY0J10HxfmdN8k0y5Q6frnFERDqNQmitzhojlkS+XChc8LVr64C8V+7VSksF69oOQrZlBIgNbz7MVj41PVNcMVc81mzTfM11j1krNeMnzRglhrsjdwtwVWyYMS6rtUwgD1rhHoYiftubHr5806yeMSOQtgRC6+0p1qfjqxfWXSoZGS2MO9VfdexAYeqGVEO4p8nbpN8oHbGN9mPvNcAnEzKLpzyaevWMV2VSoOR/h3a+fUrRZh1VlvXxK9E3irzl7WGBCg/mXJgUu+aREfrxca5enuYgaRpLtcKS8Yun+NtVN6G0CjvA3IiVyZF4QwtLhOSlYwpjX6sXd8ZFlIISqvAqjpS5vfkyf86AJxUsVo52oirvM4qBoDP5qeURUvPzanmPTCaGKIRl9ZHsxZD6rjuVycVn6IB2iIDChqPu1KYmLIITHpmucMqhVlCgMs0CZc2iTdadmgrrVQ6q3jxBOaLiJTFnUgxCLDISwZ2zeohiQ2Ne9im1Gkkz52ccUFRaSBxshdAsiOe/ihCo9w0xP1cLmslqKH//CEHABASDQbQRACDWER883vZVKeaow9ChTG9z+A5NVLkv92jHVsz5ItOqlIwM9jtPzuPTfLIcLBWIRj0v4Vv1MYaDXcXr3T17ksTfPapLTHa+y4dK7KBfi3KFjPC+KxkmypPFYv1mZ2t/jOG5fobzKpK4hxAfF4O035ydH+uhQ3TswdKTcYGOAoertKTdptv3VspxQ7Hmy3GBxN2f3q6i4hQor0LooI8nJ4Mg4f70hQpgz8rEFBiHJySArpuP0PDo0Ml4sn4gQcFYKoapufGuRggpXxJlW5Tcrkwf6XcftPywwbFUnpL6kBCNOQW8MxTT05U7yodVvVk8W+kk8pNFWBOFvvWXMHjihDtSql8dHaBACS+FkpbGiT0xECeGeIieffB0gzMhWdGWtzcHyB6yJN8pyEal3VHSf5uwTsnCsKklN+h+UR1wesHWtFQRe5bA7OEP7ylp1gofIJyVkMlkdz3Ip0VoqFR5jNek4vQNDByeKM9ORJq61w+AaF1lu39gcX99qlDQmFip2frNapPKNtK7HRiZmat7FDXQRXi+iQzAp5PYXZrhQaV2M7RBiU7ch0xTAnphl8iogzZtIQsfpGThSqvNZKr9xWpO0jpQqgd9cKBaY5Hf7Bw9OlBe96kklZilplXmTsDdF5um0kDkfOkgIlZR5a0wXwtllPqtK2iGaMyMuD9hq0Q5REB3Evyg6BJ9S4QNhPmGolCTGmXNo211qsH7frEweJMM3+XP7B4cLk6dLE+EKoZoa70SxAln1m9nNR3DWIQIxdMarB2rEqYRw/znRIZbKE4/TUvYOFM7U2QaHwG+UFEWFxCyn/IJWfWZC0RCKlZXGnH4FUYQQhlNUkTl0Jdcn2cUzFP3m7JDyBU4gAAQ2CwEQwgzIy9ExHNUIC+O39gWB35zVlO4n5hgn8s6HXCnkbH5zluyokX/7+SrWlbnQtyNeflDWlRdn8CwT7t5cqKQqhNCvl9StXLs5l2ueC0WuyyfnjKUPpUQaIXSnL1HmFyEtgrL6tRNhccTYQ5RjWULq4ONoui6iB1OfckY+wqtBK44an82dlULYwsa+42UnC6SX1N1TjnuCsTkNQy2aNEIo2lUU8MESXwXStfzdYi3Lq2iNVktVPBiEMFSdo8mJIBl/D1fXb6X8rS8cyhhZrLdstSlqoVUd1xutO8H4ln9pWnyQVclZ4sRFPtPNOztHTK7O5ZMSsQWJ+TDCdwTI5GL88dcy84G5dDxeZcWoq/xHtD2/Q9sgw8zxeiEdonZClXBC2vg1iXgYirl42DhC2M9nu6Kbmd0Cl9itqrqZVvSgqDw0Uw6n3gQhdA/zea4gS2+yxBf7alMJoaiFLDJfViWfGZyo8pUlPkJxeEMhHDbC3MIwFi3+IefQ5jiclsS1JWt6PP9dIYRkt3cW9UDLWAohFAI/2ovdw/zC29aC2iFED6IzXFpKtgeDEMr5kWhyWuhw806rNoUFQg0bPACBzUIAhDAL8kKrC0c1hT5ZVIEhPkf9QVmKOqF2WDTpIT6B1yzL6Xk+8e9XxyPZc/mkZvOsjFsSwmjk0SlhMdhr/JOlYiummENVkxN54gqWMvvLeayiQAu/YmJ4A4Qwb+SiFq5VU04lyTw63TUqYxsj+fqegqGam9QVQq5+2QB3HLF8pNadaGyt6rN6QtYnlRB2kA06jrOFCGF/aZVOVCu9VYJReIsuMocrflwdlEtYvF/7Nb5JNI4QZpMSMt2MDqU2+fJGYkCeeX+lpJIwGsSi5k6ymaBAn1BITCDrR84ibBxMTFdZRB+LPZkQiikwdTJO5qr/DF8QUiIXC+zZ9q3x6qaEsHts0HGczSSEuWS+qA4xmcIHEbmHJY4QtiMMZUXaHTmHNsdxRGNrnLHtrLenYukpdo953uZTD/SYkwlhv20GWUQgRF8o3xxnmCsvOksUISK/KiHMygZ5JD0Dw0NknxT+gAAQ2BoIgBBmqQcbUxIrhFaGw3UpMZEcnVrWUuXDUjhPKfQ868S/GHGV5UpVTdFitmSSszhiBsD8sxUzkjc1EB8MpCYtyGrjtFhQCX0LTXo+spEt9JPoyh+5WE0lJyUa82IzWGIiYkOaFfnkkAlfE3QIwVq1uQYlKrFKY5+QFoO3/avDlV2lrt3SCiU/xCxKhr+QEMq9WF71aIRNZIhpc7xwbTW5NgVK1pbJY5CTNWZVmvpuDCHMKCVyoyQ2LwRBQGwC8V2dcdHk6oNiPW2lFO3McQlkfZ9QLylNWk7ZhNJSSzRRXkllNxRQYpEkfKNFZz6EklZuq/OqE8aOOzNQO8+bSQgTMTRlvlmVfBCREsnsIGJmUHpQ0EkThopXmzPn0EZ2h/ItAGSpulmT++dtkct3pgSQHzbiCNtVNJbE6ghP8SnKhhpHVBVRvwpNoyE7uXuaTZq0KodVj7FuSQjl/EgHT9LGpooPQAAIdAEBEEITVLevMHmuWl9ptqhtCXKeXljIDDStnY98VlWPy3e/NimiT5L4XIn0a1PcN/fMLLgo2YjLTHzk0UwmKIU2QsjHe2KDlKWu/c8szcihKIm9JKQrMEr+bSfynrHz/HQUpUFB4FNmKM4TWhI09RuLl/yvknQIPqDGnaNIKrVcP4xRjsV0gNJubVWcUB6eesu7wnYURs5fJYTdCp8y1SavHWp+NtLI+YZQibBZlbzrScnAEZMUNNoBQ1x4WEVKhN8yu3qeFQcAWRMnhjorxcPiPKEWT64+mMuzlkz6Q1K98HTVXe5ahDysrBHtY9qETqSvvZbrAAAUI0lEQVRQybHpcYfzei2PW1COnr+KBGnvxWYSQo5JNplvViVv8JLvmR0kiRAKCyVxwjAFykjlhv5j5Z67z7RtQ5khO3oahldcPBVZQOVT+874EVwK+VA9MJLhI4gchfXPkrDpr8VTpP3znARSggmfMb88fs/jthCuZTiJEBMVXgMBILC5CIAQqvi7I2e5VQPOH4wfqfaRQBlUPWUdJoPED+fkhFA2ktce/UuSbIoto5YhIZrJnKOmVA60xPUHOX4nsZeEdNUqiHe3GzmxKr4QGtinWfcbZ2PMAZr6TXx+cnxJ0iH4gBq3DpNUaqkrxCjHoolunBBWTnfrrFQOFNvwmqk2ee3obdp4as5yCxNmVfKuKiVDG4RQkRJtFJEEIQbitVteyFmklajFy1x9MJfnnBlPqheebuySHQ8b0+aTYiarKcyWRTiLlxxbpFhSjJekHUW7Vf1IyJwvtgQhNDqB+ihlvgl4JwhhnDBMwTBSuaH/WEJIvZAbR+ryLiBWzCtxC788ldtOCEP1ICwWdW0JQhiambXtAzdyjEcgAAS2JAIghGG1CCspATF9Jm2Oke/W4STKtcKoikt0VPHmRsQ7qUlYdkzyo+3e3EHuWxDCrLN08ZFHM5lz1MylMB3kZlxsg2VCugKj5N8NR97z+ERpgd8dFwQxh+hM/SY5Txm/JugQ3PKNSu+1SDMRwsAGuOPILaPhZkixKUvqc1pikQeeOlG+B09wK/Gd2RG0hc4Q5mqZZlXyrtcWIYxKiUgF5HzRu3/iTJVfhxgEkVNAuUoqTrcqE085cxPvPaGX8W4eux4i1gCTCWHM1+h+VL4fLz45vRCKpJU3rcXPLulhcz1tAUIYg6FRDLMq+YgjJZLZQQQnlx6U+IQZsKX2DNgmNG/rCK6kzJxuf2Fqts6XuoLAfqzUlACRWNp5obSrSHCuHsg5KdNDJkJomSwm8Ygto6GmId7EJmckz1NfLpK7rPh2nG11rMAoDx6BwB2MAAhhWPl8t73FwJ11OIlyLRmVMPWR6Zifww0Vqge7c1o/ix9OopkUg+5y0TgaJPmwsqDkOCENM7zLwqqO2CFZHucL5+bVcJncnYnc3ScOzYc0SUme6zchOVe+te2M1yGEDYzGmdBEkJZMMiEUlM9uk0aYJpJbkR1HNLZAHorTUjMfFELoOOF9FTaDEGbQlOfbSgiTazO2R9iKYFalqe9yxKSCFe2AMlaLlJDfNuRwh2bZLRqmFhjbg2zJ9fOrOFS5ZPPXzjuTRYRxCBsY8ZZseNgYuiIon2pIScYujMooyq7ogPYeJEMKhy5p5cHazq+KdJUQBsmMK5fMN6uSN3jJ98wOkkAIRV1Y607UQMJvbEe2D22xMfVMLnKbuzZiyjuRd0FO9sZGlP2D3q60cFw90E3jqj6SCaEkeKHJujCwMCqjzg8Kg8MZayEkhGSrgrh0KouFUnK9x6B1a3uYQbiAABC4jQiAEIZgS8Gq29sIb//TmJJYNowynMHTbN+pprLESvw9Je5b5SfuNL+OIJvB99jIbZnkA4yv3f5MLqLlx6UCvZjiAgyLmcQQOuESSqSuicrFpY1dTN+pyBONiEgjE3EMTRQ1z6/JIkRYlxux1OtCfKW/KYRQGNYLtEsvaUhxt56hSQjTo5lInU4IyYAvdsoZJuO1PG+dh2y1uf88vyYmcldKtCRmVZr6bmZCaJUS0fTaexNjSSIXIXQEfQpsF9a3ly8RymQR4r24GcJfLsZMkKQZlZEX9kSuTAgtiGgrP0InzqLCRu8hDDVg4/4MUaJ2f7tDCIVNKUMmmJnMI/PNqmybEGYQhmY+zeecQ5sZXD4LEiWndeQXx3GEsSWtFake2nHHjuBW9UBPQeotls1HjuOIS7CkYWQZWvJkfTpyjN9tGr24RYZUHBohVO8wNO/PUMIwcz7sXtBtcZ+tnnc8AYGdigAIYVizXCgHfmOGXfDdM3CkWBUXfJM9oHJjGAnERz5/qbg/NJ3cs/+k2Fl3iRuiZwnwyNfqRXYzLH3b83hR+BZm60V2RvkNYwG9ElpMpNHrkkvz9eaqdoF47HAiMqmxVsEx/ObcWB+5IF3cUevVV6iRfa2YTv/JurCsQe4xF3aiewaGifWdhldTp1H7T3HPrUsUlt79k/OUafr1Ol210HIiCpvxN2fkY7OLlfJUYWhY3DhM7tQulJb4bfUx9y7I4bBZmeKXtmfMXrw3OanM2hX1qFzD3Twbb7dTVJaccTdTkddw+zLD9GJ6zu/9+klDtZbLGoH/gbxt3HH7BjNdTO+EwTvPE8yybfw5W22Kq7oCdhEzu5rccXoeHSpMzVZXvVp4O1+bhDCjlMhb4LHXapWZyYJivZ3U45k6b+La9WK2E3TJ6YVsJ2gtlScO8Nn8nkc7dTG9N6cYv3H7CuVVJmmisxtKRpNXCB1HXEZHKrPEza7Si+kZKIFn3KwtrSMG68o13E7PQLaL6ZVbvKO3/ijZzunsDiEMSX5rqVQQ7TyatRwyv11C6F3QhKG0/tU8p1zHG81Z8hshLTMObUMnK9VzxYmDQ4PSzFjvwMhUhcvOGMo3tsBakt+cn+SXtifnKsPXGPVgssqmqqKzG0qcKYTQcfn0UBCElc4upmenJT1Nl1B3ggRrzerJAh/x3f7BI1kupnfCDpVAKcW8JMmCuj6plAtOIAAEbjMCIIQK4NKSOBOU8v+1Zs3ClDgh5L6YEU5mdTOI3Pssp5aZ73VqzFCuyK3pt8nzHMkzKjIfikM5nRjavtPX5Wg0PJM6DQvXeZQYya4nPizphJCsC50Llw+VIMxpTKOGhCH0SWcB2bil50QBP5MzV+Rcdw+zEbr85rnYW9nlZUqhd+qKpWTpOddzotqtDQJvfsy4Qo4P8EbyyqORE3UBVvFFDIvYbeeEhz1070EQGE2IK1jaWrezrThhxtrUVsgjqCjXtbdJCHmUaVIivSnpPhKait+cjTRxnvkcfXCPaYMxxMaUEnrOkp84i+CRUcPFIuJ1r/Ks0SF0SSs8Kr9G+4yXV+v2003xPcg8nWufegsHjo5xwi4RQmVTn4JftONnl/ntEkKWvGY32yYMk9tR5Gu+oY3Xpo4Ef2rVpuNuEwmrWw+5gR6h5SRVPRC8V09eeTLEeILAt9vOie9BgdHXhGFYvezpnDCcgwuCzBZNI9WNF0AACHQSARBCDU133+TciudLXnetWZsZG3KFGU9N6gk1RXgm8njd91ar5ecst9yGEl/x73uNKo1fy0T44A49V66uer6kjut+q1mvnJlQ1iSJb7uaQr9U6MaMiArYM3qmzi2n0yuYSk8SJYzHoxWT56bnyWJlqdlaE6POuk8yf26yIOdWZbbdocl5YbuFGMGfm9xHzh92ghASg4qZIx+bXWp4a76sTZL1tVZzqVKkhZX5jTp6nizVmi0tYGCqhtFQ8W/c/gMT5YVG85qSGZ9eD2DLSYKWz9A3CCHZgLNvrLzYbMl24reaS3OTylp0JG/csF5YRisydkKonhWJ4ZyR9DbxRdba7B0tzteb1ySIgb/mNRZmJ5VVLGmmUlaB2WU4YnKWJJ+UyIvS2Gv1huf7sldSEURExMlRg1TRmPMTQsWEqWwqFJbyGO3UeTPM/bv9I+PlKr3aRwgUivZ8cTTcbSHjFhhKr6bDVFIdxyHySpHkAanKkkVYiUS4LWJ5wxCTbxHhHCdpFQ24UT6Q5bi1SDjmt1uEkFbo5HkiGDUUDQpBc5VJ5rdNCJVxMCDyKl0sx0BlvM4xtA2drDSarfBaKdp90gZlmlzvaGlRGQ0ZlLZx08hc7GPvQOFkpbbqqX3ZF+qHGSovISThicBXbW2TYp5RFmnNNGgP0kd8q2Dho1Wk7OFMXMxFneFKPghhBHy8AAKbggAIYduwczUlwrXsEcZpEnbfeAsEgMBOQCCflNgJJUYZOoFAFwlhJ7K3gTjMNfYNRIWg2xoB3hKCjd+7s61hQOaBwJZBAISw7arIp+qBELYNNAICgW2LQD4psW2LiYx3GAEQwg4Diui2GgLS2o151HmrZRT5AQJ3CgIghG3XdD5VD4SwbaAREAhsWwTySYltW0xkvMMIgBB2GFBEt5UQ6HmyxC1fJVjY3koZRl6AwJ2AAAhh27WcT9UDIdSATj0FoR1wsZwR0mK7jQ+pB/y0jEdOVtzGnCKprYBAVinB5YPWeuIfbCe+Nqm0Yt9XfGbVL/Ls5SbldtskC0K4XSXtth3abk/fGDnXDG0irHXmwO3tyTlSAQI7HgEQwrarOKuqxxIAIdSA3raj5nZVUzT08XDbEMgqJUAIb1uVbIuEQAi3q6TdtkPb7ekXTNDF2su5PZlAKkAACNgQACG0oYJ3QAAIAAEgAASAABAAAkAACACBOwABEMI7oJJRRCAABIAAEAACQAAIAAEgAASAgA0BEEIbKngHBIAAEAACQAAIAAEgAASAABC4AxAAIbwDKhlFBAJAAAgAASAABIAAEAACQAAI2BAAIbShgndAAAgAASAABIAAEAACQAAIAIE7AIEOE8I7ADEUEQgAASAABIAAEAACQAAIAAEgsEMQACHcIRWJYgABIAAEgAAQAAJAAAgAASAABPIiAEKYFzH4BwJAAAgAASAABIAAEAACQAAI7BAEQAh3SEWiGEAACAABIAAEgAAQAAJAAAgAgbwIgBDmRQz+gQAQAAJAAAgAASAABIAAEAACOwQBEMIdUpEoBhAAAkAACAABIAAEgAAQAAJAIC8CIIR5EYN/IAAEgAAQAAJAAAgAASAABIDADkEAhHCHVCSKAQSAABAAAkAACAABIAAEgAAQyIsACGFexOAfCAABIAAEgAAQAAJAAAgAASCwQxDYOYTw4Hc//eTEHz45sfLiDqkaFAMIAAEgAASAABAAAkAACAABINBdBEAIu4svYgcCQAAIAAEgAASAABAAAkAACGxZBEAIt2zVIGNAAAgAASAABIAAEAACQAAIAIHuIgBC2F18ETsQAAJAAAgAASAABIAAEAACQGDLIgBCuGWrBhkDAkAACAABIAAEgAAQAAJAAAh0F4FuEsIv/uDlv7/y8fN/oLZe/vDJ0evvDE59965IefpXiIfnFg46zr1fmZo9eP36FA0yeeOjA68c/GLEP31BfI4okU/euD7JEoJRGTtieAsEgAAQAAJAAAgAASAABIAAEDAQ6BYhfKBn4SPG647/4frEjeshLVx58W49D4IQPte/cv24YI/EXij998P5g7p3x3EP7bli8cmDgBCaeOEZCAABIAAEgAAQAAJAAAgAASBgRaA7hPDun75Hqd310Z/KJb4H7vvpO4wWFs7/DzUvjBAyKnj807e/faTvLsf54vePPn6dccK3+13V+3f6V65T7nf90MJRt/9e8u3Bb3/lyE+evEH9gxCqaMENBIAAEAACQAAIAAEgAASAABCIRaAbhNCdOkC52Y9+9Zy+QfTe3l99TLjcjeo3FY7HCOGJP3xy/Ppcz4NKTo++OUEWCa8/MRW+vGuqSlnl9YOnvhO+JS7cQ6jjgScgAASAABAAAkAACAABIAAEgEAKAl0ghHe/8g5d7ntvoD+S+JG5f6Yc7/Gj4SdOCG+83T8YvqSuFw/SXaMHT8n3935ziS4PXp+lK4PyPQihCgXcQAAIAAEgAASAABAAAkAACACBLAh0gRB+g3G2T+fut2SAc7ynftonP3JCaNnqGSWEh4Y+JftC/3nhkAwuHFghFEjgFwgAASAABIAAEAACQAAIAAEgkAmBLhBCuQX06A1iTsb4xyzNUJuiPIN5CCGniGpwUUwQQoEEfoEAEAACQAAIAAEgAASAABAAApkQ6CYh5GY/6bZPw104/12ZPRBCCQUcQAAIAAEgAASAABAAAkAACACB24hA9wihfcuopWi5COEIpZdYIbTgiFdAAAgAASAABIAAEAACQAAIAIF8CHSBEN43/xFdDzSui4jNVx5C+MRj9C6K4ysv6vZLnbuOvvkjthRpOYsYmzQ+AAEgAASAABAAAkAACAABIAAE7mAEukAIne/PPkO52Q8XDhm0zQp0HkLo9P6KWhm98Xa/YsL0riMzh9klhH/45AQIoRVlvAQCQAAIAAEgAASAABAAAkAACJgIdIMQOn19/O74T/555Se9//DtL7JUyfXxRwd/9c4Pl15Us5GLEDo/mHuOss3nr8w+1H+v4/b1vPI2ffPRwQ/pJYcghCq4cAMBIAAEgAAQAAJAAAgAASAABGIR6AohdBz30J4rdCmPbePU/z+uc7Z8hNC5t2fhI3rPIbl/Qvy7PnLqO/cvgBDG1jM+AAEgAASAABAAAkAACAABIAAEIgh0iRCSdB6479TcyJWPjwraNnXj+jMfvjk4dehuV8tGTkJIY37l7WfEHtEfXal++wcPOI4DQqjBigcgAASAABAAAkAACAABIAAEgEAKAl0khCkp4zMQAAJAAAgAASAABIAAEAACQAAIbCoCIISbCj8SBwJAAAgAASAABIAAEAACQAAIbB4CIISbhz1SBgJAAAgAASAABIAAEAACQAAIbCoCIISbCj8SBwJAAAgAASAABIAAEAACQAAIbB4CIISbhz1SBgJAAAgAASAABIAAEAACQAAIbCoCIISbCj8SBwJAAAgAASAABIAAEAACQAAIbB4CIISbhz1SBgJAAAgAASAABIAAEAACQAAIbCoCIISbCj8SBwJAAAgAASAABIAAEAACQAAIbB4CIISbhz1SBgJAAAgAASAABIAAEAACQAAIbCoCIISbCj8SBwJAAAgAASAABIAAEAACQAAIbB4CHSaEz+BvSyKw8t678t89+AMCQAAIAAEgAASAABAAAkAACFAEQAi3JIHrdKYkG1x57120fCAABIAAEAACQAAIAAEgAASAAEPg/wOerD9eg6M/PwAAAABJRU5ErkJggg==;" vertex="1" parent="1">
          <mxGeometry x="11.66" y="1100" width="466.67" height="210" as="geometry" />
        </mxCell>
        <mxCell id="FYiVNXrTDByQqckiucjM-92" value="&lt;h1 style=&quot;margin-top: 0px;&quot;&gt;组合逻辑&lt;/h1&gt;&lt;p&gt;&lt;font style=&quot;color: rgb(255, 0, 128);&quot;&gt;从上到下的10句话，大概包含了14个逻辑+运算符号。这样在一个时钟周期里无法完成。&lt;/font&gt;&lt;/p&gt;" style="text;html=1;whiteSpace=wrap;overflow=hidden;rounded=0;fontSize=19;" vertex="1" parent="1">
          <mxGeometry x="500" y="1090" width="240" height="170" as="geometry" />
        </mxCell>
        <mxCell id="FYiVNXrTDByQqckiucjM-93" value="&lt;h1 style=&quot;margin-top: 0px;&quot;&gt;经验而谈&lt;/h1&gt;&lt;p&gt;&lt;font style=&quot;color: rgb(103, 171, 159);&quot;&gt;对于位宽超过1024bits的逻辑运算，1 clock cycle，最多6~8级。&lt;/font&gt;&lt;/p&gt;" style="text;html=1;whiteSpace=wrap;overflow=hidden;rounded=0;fontColor=default;fontSize=19;" vertex="1" parent="1">
          <mxGeometry x="500" y="1280" width="230" height="150" as="geometry" />
        </mxCell>
        <mxCell id="FYiVNXrTDByQqckiucjM-94" value="&lt;font style=&quot;font-size: 16px;&quot;&gt;逻辑拆分多拍运行&lt;/font&gt;" style="rounded=0;whiteSpace=wrap;html=1;" vertex="1" parent="1">
          <mxGeometry x="85" y="1530" width="145" height="60" as="geometry" />
        </mxCell>
        <mxCell id="FYiVNXrTDByQqckiucjM-95" value="&lt;font style=&quot;font-size: 16px;&quot;&gt;&lt;b&gt;1. 多级流水线，pipeline模式&lt;/b&gt;&lt;/font&gt;&lt;div&gt;&lt;font style=&quot;font-size: 16px;&quot;&gt;优势：吞吐高，每周期输出一个结果&lt;/font&gt;&lt;/div&gt;&lt;div&gt;&lt;font style=&quot;font-size: 16px;&quot;&gt;劣势：寄存器占用量翻倍（*流水线级数），代码繁琐，需严格对齐节拍&lt;/font&gt;&lt;/div&gt;" style="rounded=0;whiteSpace=wrap;html=1;" vertex="1" parent="1">
          <mxGeometry x="290" y="1480" width="330" height="90" as="geometry" />
        </mxCell>
        <mxCell id="FYiVNXrTDByQqckiucjM-96" value="&lt;span style=&quot;font-size: 16px;&quot;&gt;&lt;b&gt;2.状态机，循环模式&lt;/b&gt;&lt;/span&gt;&lt;div&gt;&lt;span style=&quot;font-size: 16px;&quot;&gt;优势：寄存器资源只用一份，代码简明&lt;/span&gt;&lt;/div&gt;&lt;div&gt;&lt;span style=&quot;font-size: 16px;&quot;&gt;劣势：吞吐低，循环次数周期后输出一个结果&lt;/span&gt;&lt;/div&gt;" style="rounded=0;whiteSpace=wrap;html=1;" vertex="1" parent="1">
          <mxGeometry x="290" y="1590" width="330" height="60" as="geometry" />
        </mxCell>
        <mxCell id="FYiVNXrTDByQqckiucjM-97" value="&lt;font&gt;我们要拆分逻辑，分配子逻辑运算到不同的状态机步骤。由于读BRAM天然消耗2周期，这部分时间可以用来分配逻辑。&lt;/font&gt;" style="rounded=0;whiteSpace=wrap;html=1;fontSize=20;" vertex="1" parent="1">
          <mxGeometry x="40" y="1780" width="320" height="120" as="geometry" />
        </mxCell>
        <mxCell id="FYiVNXrTDByQqckiucjM-107" value="BRAM&lt;div&gt;258B x 256深度&lt;/div&gt;" style="rounded=0;whiteSpace=wrap;html=1;fillColor=#b0e3e6;strokeColor=#0e8088;" vertex="1" parent="1">
          <mxGeometry x="635" y="1701" width="75" height="80" as="geometry" />
        </mxCell>
        <mxCell id="FYiVNXrTDByQqckiucjM-108" value="控制器 （状态机）" style="shape=tape;whiteSpace=wrap;html=1;fillColor=light-dark(#6D8764,#475542);fontColor=light-dark(#FFFFFF,#E9E9E9);strokeColor=light-dark(#3A5431,#040504);" vertex="1" parent="1">
          <mxGeometry x="425" y="1701" width="130" height="80" as="geometry" />
        </mxCell>
        <mxCell id="FYiVNXrTDByQqckiucjM-109" value="" style="shape=flexArrow;endArrow=classic;html=1;rounded=0;fillColor=#9CC290;strokeColor=#3A5431;" edge="1" parent="1">
          <mxGeometry width="50" height="50" relative="1" as="geometry">
            <mxPoint x="645" y="1791" as="sourcePoint" />
            <mxPoint x="645" y="1871" as="targetPoint" />
          </mxGeometry>
        </mxCell>
        <mxCell id="FYiVNXrTDByQqckiucjM-110" value="" style="shape=flexArrow;endArrow=classic;html=1;rounded=0;fillColor=#9CC290;strokeColor=#3A5431;" edge="1" parent="1">
          <mxGeometry width="50" height="50" relative="1" as="geometry">
            <mxPoint x="745" y="1871" as="sourcePoint" />
            <mxPoint x="745" y="1791" as="targetPoint" />
          </mxGeometry>
        </mxCell>
        <mxCell id="FYiVNXrTDByQqckiucjM-111" value="temp src block" style="rounded=0;whiteSpace=wrap;html=1;fillColor=#fa6800;strokeColor=#C73500;fontColor=light-dark(#000000,#010101);" vertex="1" parent="1">
          <mxGeometry x="575" y="1881" width="100" height="20" as="geometry" />
        </mxCell>
        <mxCell id="FYiVNXrTDByQqckiucjM-112" value="temp dst block" style="rounded=0;whiteSpace=wrap;html=1;fillColor=#60a917;strokeColor=#2D7600;fontColor=#ffffff;" vertex="1" parent="1">
          <mxGeometry x="695" y="1881" width="100" height="20" as="geometry" />
        </mxCell>
        <mxCell id="FYiVNXrTDByQqckiucjM-113" value="" style="endArrow=classic;html=1;rounded=0;entryX=0;entryY=0.5;entryDx=0;entryDy=0;" edge="1" parent="1" target="FYiVNXrTDByQqckiucjM-107">
          <mxGeometry width="50" height="50" relative="1" as="geometry">
            <mxPoint x="555" y="1741" as="sourcePoint" />
            <mxPoint x="605" y="1691" as="targetPoint" />
          </mxGeometry>
        </mxCell>
        <mxCell id="FYiVNXrTDByQqckiucjM-114" value="" style="endArrow=classic;html=1;rounded=0;entryX=0.25;entryY=0;entryDx=0;entryDy=0;" edge="1" parent="1" target="FYiVNXrTDByQqckiucjM-112">
          <mxGeometry width="50" height="50" relative="1" as="geometry">
            <mxPoint x="555" y="1761" as="sourcePoint" />
            <mxPoint x="635" y="1761" as="targetPoint" />
          </mxGeometry>
        </mxCell>
        <mxCell id="FYiVNXrTDByQqckiucjM-115" value="" style="endArrow=classic;html=1;rounded=0;entryX=0;entryY=0;entryDx=0;entryDy=0;exitX=0.477;exitY=0.863;exitDx=0;exitDy=0;exitPerimeter=0;" edge="1" parent="1" source="FYiVNXrTDByQqckiucjM-108" target="FYiVNXrTDByQqckiucjM-111">
          <mxGeometry width="50" height="50" relative="1" as="geometry">
            <mxPoint x="565" y="1771" as="sourcePoint" />
            <mxPoint x="730" y="1891" as="targetPoint" />
          </mxGeometry>
        </mxCell>
        <mxCell id="FYiVNXrTDByQqckiucjM-116" value="temp 寄存器应该设置多大？" style="text;html=1;align=center;verticalAlign=middle;whiteSpace=wrap;rounded=0;fontSize=23;" vertex="1" parent="1">
          <mxGeometry x="155" y="290" width="320" height="30" as="geometry" />
        </mxCell>
        <mxCell id="FYiVNXrTDByQqckiucjM-117" value="" style="endArrow=classic;html=1;rounded=0;entryX=0;entryY=0.5;entryDx=0;entryDy=0;" edge="1" parent="1" target="FYiVNXrTDByQqckiucjM-95">
          <mxGeometry width="50" height="50" relative="1" as="geometry">
            <mxPoint x="232.5" y="1560" as="sourcePoint" />
            <mxPoint x="282.5" y="1510" as="targetPoint" />
          </mxGeometry>
        </mxCell>
        <mxCell id="FYiVNXrTDByQqckiucjM-118" value="" style="endArrow=classic;html=1;rounded=0;entryX=0;entryY=0.5;entryDx=0;entryDy=0;exitX=1;exitY=0.5;exitDx=0;exitDy=0;" edge="1" parent="1" source="FYiVNXrTDByQqckiucjM-94" target="FYiVNXrTDByQqckiucjM-96">
          <mxGeometry width="50" height="50" relative="1" as="geometry">
            <mxPoint x="242.5" y="1570" as="sourcePoint" />
            <mxPoint x="300" y="1535" as="targetPoint" />
          </mxGeometry>
        </mxCell>
        <mxCell id="FYiVNXrTDByQqckiucjM-119" value="&lt;strike&gt;1. 读BRAM src 0 + 1&lt;/strike&gt;" style="rounded=0;whiteSpace=wrap;html=1;align=left;fontSize=20;" vertex="1" parent="1">
          <mxGeometry x="41" y="1960" width="230" height="40" as="geometry" />
        </mxCell>
        <mxCell id="FYiVNXrTDByQqckiucjM-120" value="&lt;strike&gt;2. 等待&lt;/strike&gt;" style="rounded=0;whiteSpace=wrap;html=1;align=left;fontSize=20;" vertex="1" parent="1">
          <mxGeometry x="41" y="2000" width="230" height="40" as="geometry" />
        </mxCell>
        <mxCell id="FYiVNXrTDByQqckiucjM-121" value="1. 收BRAM src 0 + 1" style="rounded=0;whiteSpace=wrap;html=1;align=left;fontSize=20;" vertex="1" parent="1">
          <mxGeometry x="41" y="2040" width="230" height="40" as="geometry" />
        </mxCell>
        <mxCell id="FYiVNXrTDByQqckiucjM-124" value="2. 计算中间结果" style="rounded=0;whiteSpace=wrap;html=1;align=left;fontSize=20;" vertex="1" parent="1">
          <mxGeometry x="41" y="2080" width="230" height="40" as="geometry" />
        </mxCell>
        <mxCell id="FYiVNXrTDByQqckiucjM-125" value="3.&amp;nbsp; 计算中间结果" style="rounded=0;whiteSpace=wrap;html=1;align=left;fontSize=20;" vertex="1" parent="1">
          <mxGeometry x="41" y="2120" width="230" height="40" as="geometry" />
        </mxCell>
        <mxCell id="FYiVNXrTDByQqckiucjM-126" value="258Bytes 宽度" style="text;html=1;align=center;verticalAlign=middle;whiteSpace=wrap;rounded=0;fontSize=16;" vertex="1" parent="1">
          <mxGeometry x="167.5" y="690" width="115" height="30" as="geometry" />
        </mxCell>
        <mxCell id="FYiVNXrTDByQqckiucjM-127" value="BRAM" style="rounded=0;whiteSpace=wrap;html=1;fillColor=#b0e3e6;strokeColor=#0e8088;" vertex="1" parent="1">
          <mxGeometry x="120" y="720" width="210" height="20" as="geometry" />
        </mxCell>
        <mxCell id="FYiVNXrTDByQqckiucjM-128" value="BRAM" style="rounded=0;whiteSpace=wrap;html=1;fillColor=#b0e3e6;strokeColor=#0e8088;" vertex="1" parent="1">
          <mxGeometry x="120" y="740" width="60" height="20" as="geometry" />
        </mxCell>
        <mxCell id="FYiVNXrTDByQqckiucjM-129" value="0000000" style="rounded=0;whiteSpace=wrap;html=1;fillColor=#b0e3e6;strokeColor=#0e8088;" vertex="1" parent="1">
          <mxGeometry x="120" y="760" width="210" height="20" as="geometry" />
        </mxCell>
        <mxCell id="FYiVNXrTDByQqckiucjM-130" value="000000" style="rounded=0;whiteSpace=wrap;html=1;fillColor=#b0e3e6;strokeColor=#0e8088;" vertex="1" parent="1">
          <mxGeometry x="120" y="780" width="210" height="20" as="geometry" />
        </mxCell>
        <mxCell id="FYiVNXrTDByQqckiucjM-131" value="258Bytes 宽度" style="text;html=1;align=center;verticalAlign=middle;whiteSpace=wrap;rounded=0;fontSize=16;" vertex="1" parent="1">
          <mxGeometry x="397.5" y="690" width="115" height="30" as="geometry" />
        </mxCell>
        <mxCell id="FYiVNXrTDByQqckiucjM-132" value="BRAM" style="rounded=0;whiteSpace=wrap;html=1;fillColor=#b0e3e6;strokeColor=#0e8088;" vertex="1" parent="1">
          <mxGeometry x="350" y="720" width="210" height="20" as="geometry" />
        </mxCell>
        <mxCell id="FYiVNXrTDByQqckiucjM-133" value="000000" style="rounded=0;whiteSpace=wrap;html=1;fillColor=#b0e3e6;strokeColor=#0e8088;" vertex="1" parent="1">
          <mxGeometry x="350" y="780" width="210" height="20" as="geometry" />
        </mxCell>
        <mxCell id="FYiVNXrTDByQqckiucjM-135" value="000" style="rounded=0;whiteSpace=wrap;html=1;fillColor=#b0e3e6;strokeColor=#0e8088;" vertex="1" parent="1">
          <mxGeometry x="290" y="740" width="40" height="20" as="geometry" />
        </mxCell>
        <mxCell id="FYiVNXrTDByQqckiucjM-136" value="0" style="rounded=0;whiteSpace=wrap;html=1;fillColor=#b0e3e6;strokeColor=#0e8088;" vertex="1" parent="1">
          <mxGeometry x="90" y="720" width="30" height="20" as="geometry" />
        </mxCell>
        <mxCell id="FYiVNXrTDByQqckiucjM-137" value="1" style="rounded=0;whiteSpace=wrap;html=1;fillColor=#b0e3e6;strokeColor=#0e8088;" vertex="1" parent="1">
          <mxGeometry x="90" y="740" width="30" height="20" as="geometry" />
        </mxCell>
        <mxCell id="FYiVNXrTDByQqckiucjM-138" value="2" style="rounded=0;whiteSpace=wrap;html=1;fillColor=#b0e3e6;strokeColor=#0e8088;" vertex="1" parent="1">
          <mxGeometry x="90" y="760" width="30" height="20" as="geometry" />
        </mxCell>
        <mxCell id="FYiVNXrTDByQqckiucjM-139" value="3" style="rounded=0;whiteSpace=wrap;html=1;fillColor=#b0e3e6;strokeColor=#0e8088;" vertex="1" parent="1">
          <mxGeometry x="90" y="780" width="30" height="20" as="geometry" />
        </mxCell>
        <mxCell id="FYiVNXrTDByQqckiucjM-141" value="0000" style="rounded=0;whiteSpace=wrap;html=1;fillColor=#b0e3e6;strokeColor=#0e8088;" vertex="1" parent="1">
          <mxGeometry x="410" y="760" width="150" height="20" as="geometry" />
        </mxCell>
        <mxCell id="FYiVNXrTDByQqckiucjM-142" value="BRAM" style="rounded=0;whiteSpace=wrap;html=1;fillColor=#b0e3e6;strokeColor=#0e8088;" vertex="1" parent="1">
          <mxGeometry x="350" y="740" width="120" height="20" as="geometry" />
        </mxCell>
        <mxCell id="FYiVNXrTDByQqckiucjM-144" value="==============" style="rounded=0;whiteSpace=wrap;html=1;fillColor=#60a917;strokeColor=light-dark(#2D7600,#070A04);fontColor=#ffffff;" vertex="1" parent="1">
          <mxGeometry x="180" y="740" width="110" height="20" as="geometry" />
        </mxCell>
        <mxCell id="FYiVNXrTDByQqckiucjM-145" value="===========" style="rounded=0;whiteSpace=wrap;html=1;fillColor=#60a917;strokeColor=light-dark(#2D7600,#070A04);fontColor=#ffffff;" vertex="1" parent="1">
          <mxGeometry x="470" y="740" width="90" height="20" as="geometry" />
        </mxCell>
        <mxCell id="FYiVNXrTDByQqckiucjM-146" value="=======" style="rounded=0;whiteSpace=wrap;html=1;fillColor=#60a917;strokeColor=light-dark(#2D7600,#070A04);fontColor=#ffffff;" vertex="1" parent="1">
          <mxGeometry x="350" y="760" width="60" height="20" as="geometry" />
        </mxCell>
        <mxCell id="FYiVNXrTDByQqckiucjM-147" value="src block" style="text;html=1;align=center;verticalAlign=middle;whiteSpace=wrap;rounded=0;fontSize=21;" vertex="1" parent="1">
          <mxGeometry x="620" y="615" width="120" height="30" as="geometry" />
        </mxCell>
        <mxCell id="FYiVNXrTDByQqckiucjM-148" value="dst block" style="text;html=1;align=center;verticalAlign=middle;whiteSpace=wrap;rounded=0;fontSize=21;" vertex="1" parent="1">
          <mxGeometry x="620" y="735" width="120" height="30" as="geometry" />
        </mxCell>
        <mxCell id="FYiVNXrTDByQqckiucjM-149" value="" style="shape=flexArrow;endArrow=classic;html=1;rounded=0;fillColor=#f0a30a;strokeColor=#BD7000;entryX=1;entryY=0.5;entryDx=0;entryDy=0;" edge="1" parent="1">
          <mxGeometry width="50" height="50" relative="1" as="geometry">
            <mxPoint x="430" y="2059" as="sourcePoint" />
            <mxPoint x="271.0000000000002" y="2059" as="targetPoint" />
          </mxGeometry>
        </mxCell>
        <mxCell id="FYiVNXrTDByQqckiucjM-150" value="到这步，src block收集齐全&lt;div&gt;可以开始变换scr block&lt;/div&gt;" style="text;html=1;align=center;verticalAlign=middle;whiteSpace=wrap;rounded=0;" vertex="1" parent="1">
          <mxGeometry x="420" y="2043" width="185" height="30" as="geometry" />
        </mxCell>
        <mxCell id="FYiVNXrTDByQqckiucjM-151" value="准备mask" style="ellipse;whiteSpace=wrap;html=1;" vertex="1" parent="1">
          <mxGeometry x="300" y="2030" width="120" height="40" as="geometry" />
        </mxCell>
        <mxCell id="FYiVNXrTDByQqckiucjM-152" value="4. copy完成" style="rounded=0;whiteSpace=wrap;html=1;align=left;fontSize=20;fontColor=#FF3333;" vertex="1" parent="1">
          <mxGeometry x="41" y="2160" width="230" height="40" as="geometry" />
        </mxCell>
        <mxCell id="FYiVNXrTDByQqckiucjM-154" value="" style="shape=flexArrow;endArrow=classic;html=1;rounded=0;fillColor=#f0a30a;strokeColor=#BD7000;entryX=1;entryY=0.5;entryDx=0;entryDy=0;" edge="1" parent="1">
          <mxGeometry width="50" height="50" relative="1" as="geometry">
            <mxPoint x="570" y="2060" as="sourcePoint" />
            <mxPoint x="271" y="2060" as="targetPoint" />
          </mxGeometry>
        </mxCell>
        <mxCell id="FYiVNXrTDByQqckiucjM-155" value="到这步，dst block收集齐全&lt;div&gt;可以开始变换dst block&lt;/div&gt;" style="text;html=1;align=center;verticalAlign=middle;whiteSpace=wrap;rounded=0;" vertex="1" parent="1">
          <mxGeometry x="582" y="2043" width="185" height="30" as="geometry" />
        </mxCell>
        <mxCell id="FYiVNXrTDByQqckiucjM-156" value="" style="rounded=0;whiteSpace=wrap;html=1;fillColor=#f0a30a;fontColor=#000000;strokeColor=#BD7000;" vertex="1" parent="1">
          <mxGeometry x="420" y="2054" width="10" height="126" as="geometry" />
        </mxCell>
        <mxCell id="FYiVNXrTDByQqckiucjM-157" value="" style="rounded=0;whiteSpace=wrap;html=1;fillColor=#f0a30a;fontColor=#000000;strokeColor=#BD7000;" vertex="1" parent="1">
          <mxGeometry x="560" y="2070" width="10" height="110" as="geometry" />
        </mxCell>
        <mxCell id="FYiVNXrTDByQqckiucjM-159" value="" style="shape=curlyBracket;whiteSpace=wrap;html=1;rounded=1;flipH=1;labelPosition=right;verticalLabelPosition=middle;align=left;verticalAlign=middle;" vertex="1" parent="1">
          <mxGeometry x="760" y="2000" width="20" height="200" as="geometry" />
        </mxCell>
        <mxCell id="FYiVNXrTDByQqckiucjM-160" value="把14级逻辑可以分散在2轮里面做完，如果时序富裕可以删除第六步。如果时序紧张，可以再增加一轮第六步。&lt;font style=&quot;color: rgb(255, 0, 0);&quot;&gt;留有灵活余地。&lt;/font&gt;" style="text;html=1;align=center;verticalAlign=middle;whiteSpace=wrap;rounded=0;" vertex="1" parent="1">
          <mxGeometry x="780" y="2010" width="60" height="200" as="geometry" />
        </mxCell>
        <mxCell id="FYiVNXrTDByQqckiucjM-161" value="时序逻辑电路，用&amp;lt;=这种非阻塞赋值，代码过程每一句都是并行的。&lt;div&gt;&lt;br&gt;&lt;div&gt;&lt;br&gt;&lt;div&gt;组合逻辑电路，用=这种阻塞赋值，代码过程每一句都是串行的。&lt;/div&gt;&lt;/div&gt;&lt;/div&gt;" style="text;html=1;align=center;verticalAlign=middle;whiteSpace=wrap;rounded=0;fontSize=17;fillColor=#e3c800;fontColor=#000000;strokeColor=#B09500;" vertex="1" parent="1">
          <mxGeometry x="40" y="2330" width="270" height="200" as="geometry" />
        </mxCell>
        <mxCell id="FYiVNXrTDByQqckiucjM-162" value="BRAM&lt;div&gt;258B x 256深度&lt;/div&gt;" style="rounded=0;whiteSpace=wrap;html=1;fillColor=#b0e3e6;strokeColor=#0e8088;" vertex="1" parent="1">
          <mxGeometry x="720" y="1701" width="75" height="80" as="geometry" />
        </mxCell>
        <mxCell id="FYiVNXrTDByQqckiucjM-163" value="" style="endArrow=none;dashed=1;html=1;rounded=0;" edge="1" parent="1">
          <mxGeometry width="50" height="50" relative="1" as="geometry">
            <mxPoint x="281.5" y="2139.41" as="sourcePoint" />
            <mxPoint x="651.5" y="2139.41" as="targetPoint" />
          </mxGeometry>
        </mxCell>
        <mxCell id="FYiVNXrTDByQqckiucjM-164" value="" style="endArrow=none;dashed=1;html=1;rounded=0;" edge="1" parent="1">
          <mxGeometry width="50" height="50" relative="1" as="geometry">
            <mxPoint x="280" y="2179.41" as="sourcePoint" />
            <mxPoint x="650" y="2179.41" as="targetPoint" />
          </mxGeometry>
        </mxCell>
      </root>
    </mxGraphModel>
  </diagram>
</mxfile>
